<svg id="Layer_1" enable-background="new 0 0 53 53" viewBox="0 0 53 53" xmlns="http://www.w3.org/2000/svg"><g><g><g><g><g><g><g><g><path d="m49.5011673 11.1695023-10.6500244 15.7300415v18.1199951c0 3.0299683-2.4499512 5.4799805-5.4699707 5.4799805h-8.0300293v-48h8.0300293c3.0200195 0 5.4699707 2.4500124 5.4699707 5.4799805v5.7100215l4.5200195-6.6699824c.710022-1.0499878 2.1400146-1.3300171 3.1900024-.6099854l2.3200073 1.5699463c1.0499879.7100219 1.3300172 2.1400146.6199952 3.1900024z"/><path d="m33.380928 51h-8.0297852c-.2763672 0-.5-.2236328-.5-.5v-48c0-.2763672.2236328-.5.5-.5h8.0297852c3.2919922 0 5.9702148 2.6826172 5.9702148 5.9794922v4.0810547l3.605957-5.3212891c.4204102-.6210938 1.0576172-1.0410156 1.7949219-1.1806641.7319336-.1386719 1.4765625.0166016 2.0917969.4384766l2.3173828 1.5683594c1.2783203.8642578 1.6171875 2.6074219.7539063 3.8847656l-10.5639648 15.6025391v17.9667969c0 3.2978515-2.6782227 5.9804687-5.9702149 5.9804687zm-7.5297851-1h7.5297852c2.7407227 0 4.9702148-2.234375 4.9702148-4.9804688v-18.1201171c0-.0996094.0297852-.1972656.0859375-.2802734l10.6499023-15.7294922c.5537109-.8203125.3359375-1.9404297-.4863281-2.4960938l-2.3198242-1.5703125c-.3969727-.2714844-.871582-.3730469-1.3422852-.2822266-.4736328.0898438-.8828125.359375-1.1533203.7587891l-4.5200195 6.6699219c-.1230469.1816406-.3510742.265625-.5605469.1972656-.2099609-.0644531-.3535156-.2578125-.3535156-.4775391v-5.7099609c0-2.7460938-2.2294922-4.9794922-4.9702149-4.9794922h-7.5297852v47zm23.6499023-38.8300781h.0097656z"/></g><g><path d="m35.8471336 7.979744v37.040039c0 3.0299683-2.4500122 5.4799805-5.4699707 5.4799805h-21.8000488c-3.019958 0-5.4699707-2.4500122-5.4699707-5.4799805v-37.040039c0-3.0299683 2.4500124-5.4799805 5.4699707-5.4799805h21.8000488c3.0199585-.0000002 5.4699707 2.4500122 5.4699707 5.4799805z" fill="#fff"/><path d="m30.3770218 51h-21.7998047c-3.2919917 0-5.9702148-2.6826172-5.9702148-5.9804688v-37.040039c.0000002-3.296875 2.6782231-5.9794922 5.9702148-5.9794922h21.7998047c3.2919922 0 5.9702148 2.6826172 5.9702148 5.9794922v37.0400391c0 3.2978515-2.6782226 5.9804687-5.9702148 5.9804687zm-21.7998047-48c-2.7407222 0-4.9702146 2.2333984-4.9702146 4.9794922v37.0400391c0 2.7460937 2.2294924 4.9804687 4.9702146 4.9804687h21.7998047c2.7407227 0 4.9702148-2.234375 4.9702148-4.9804688v-37.040039c0-2.7460938-2.2294922-4.9794922-4.9702148-4.9794922z"/></g><g><path d="m31.8495197 38.1595993v1.075058c0 .7799683-.6300049 1.4099731-1.4099731 1.4099731h-21.9299917c-.77002 0-1.4000249-.6300049-1.4000249-1.4099731v-1.075058c0-.7799683.6300049-1.4099731 1.4000249-1.4099731h21.9299927c.7799672 0 1.4099721.6300048 1.4099721 1.4099731z" fill="#ddd"/><path d="m30.4395218 41.1445313h-21.9301758c-1.0473628 0-1.8999019-.8564453-1.8999019-1.9101563v-1.0751953c0-1.0527344.8525391-1.9091797 1.8999019-1.9091797h21.9301758c1.0532227 0 1.9101563.8564453 1.9101563 1.9091797v1.0751953c-.0000001 1.0537109-.8569337 1.9101563-1.9101563 1.9101563zm-21.9301758-3.8945313c-.4960938 0-.8999019.4082031-.8999019.9091797v1.0751953c0 .5019531.4038081.9101563.8999019.9101563h21.9301758c.5019531 0 .9101563-.4082031.9101563-.9101563v-1.0751953c0-.5009766-.4082031-.9091797-.9101563-.9091797z"/></g><g><path d="m17.3812275 30.0121078v2.150116c0 .7799683-.6300049 1.4099731-1.4099722 1.4099731h-7.4617004c-.77002 0-1.4000249-.6300049-1.4000249-1.4099731v-2.150116c0-.7799683.6300049-1.4099731 1.4000249-1.4099731h7.4617004c.7799673 0 1.4099722.6300049 1.4099722 1.4099731z" fill="#5ae4a7"/><path d="m15.9712601 34.0722656h-7.4619141c-1.0478511 0-1.8999019-.8564453-1.8999019-1.9101563v-2.1503906c0-1.0527344.8520508-1.9091797 1.8999019-1.9091797h7.4619141c1.0532227 0 1.9101563.8564453 1.9101563 1.9091797v2.1503906c-.0000001 1.053711-.8569337 1.9101563-1.9101563 1.9101563zm-7.4619141-4.9697265c-.4960938 0-.8999019.4082031-.8999019.9091797v2.1503906c0 .5019531.4038081.9101563.8999019.9101563h7.4619141c.5019531 0 .9101563-.4082031.9101563-.9101563v-2.1503906c0-.5009766-.4082031-.9091797-.9101563-.9091797z"/></g><g><path d="m31.8495197 30.0121078v2.150116c0 .7799683-.6300049 1.4099731-1.4099731 1.4099731h-7.4617004c-.7700195 0-1.4000244-.6300049-1.4000244-1.4099731v-2.150116c0-.7799683.6300049-1.4099731 1.4000244-1.4099731h7.4617004c.7799682 0 1.4099731.6300049 1.4099731 1.4099731z" fill="#5ae4a7"/><path d="m30.4395218 34.0722656h-7.4619141c-1.0478516 0-1.8999023-.8564453-1.8999023-1.9101563v-2.1503906c0-1.0527344.8520508-1.9091797 1.8999023-1.9091797h7.4619141c1.0532227 0 1.9101563.8564453 1.9101563 1.9091797v2.1503906c-.0000001 1.053711-.8569337 1.9101563-1.9101563 1.9101563zm-7.4619141-4.9697265c-.4960938 0-.8999023.4082031-.8999023.9091797v2.1503906c0 .5019531.4038086.9101563.8999023.9101563h7.4619141c.5019531 0 .9101563-.4082031.9101563-.9101563v-2.1503906c0-.5009766-.4082031-.9091797-.9101563-.9091797z"/></g><g><path d="m35.8371239 7.7097855h-9.2199707c-.6700439 0-1.2900391.3900146-1.5800171.9899902l-.4500122.9400024c-.289978.5999756-.9099731.9899902-1.5799561.9899902h-7.0600586c-.6699829 0-1.289978-.3900146-1.5799561-.9899902l-.4500121-.9400024c-.289978-.5999756-.9099731-.9899902-1.5800171-.9899902h-9.2199705c.1400146-2.9000244 2.5299685-5.210022 5.4599609-5.210022h21.8000488c2.9299925-.0000002 5.3199461 2.3099975 5.4599608 5.210022z" fill="#283e42"/><path d="m23.0073929 11.1298828h-7.0600586c-.8598633 0-1.6567383-.5-2.0302734-1.2724609l-.4506836-.9414063c-.2070313-.4287109-.6508789-.7060547-1.1293945-.7060547h-9.2197264c-.1367188 0-.2675781-.0556641-.3618164-.1552734-.0947266-.0986328-.144043-.2324219-.1376953-.3691406.1542969-3.1884766 2.7719729-5.6855469 5.9594724-5.6855469h21.7998047c3.1879883 0 5.8056641 2.4970703 5.9594727 5.6855469.0063477.1367188-.0429688.2705078-.1376953.3691406-.0942383.0996094-.2250977.1552734-.3618164.1552734h-9.2197266c-.4785156 0-.9223633.2773438-1.1298828.7080078l-.449707.9375c-.3740235.7744141-1.1704102 1.2744141-2.0302735 1.2744141zm-19.3378904-3.9199219h8.6674805c.8598633 0 1.6567383.5 2.0302734 1.2724609l.4506836.9414063c.2070313.4287109.6508789.7060547 1.1293945.7060547h7.0600586c.4785156 0 .921875-.2773438 1.1293945-.7080078l.449707-.9375c.3740234-.7744141 1.1708984-1.2744141 2.0307617-1.2744141h8.6674805c-.3681642-2.399414-2.4311525-4.2099609-4.907715-4.2099609h-21.7998047c-2.4760737 0-4.539062 1.8105469-4.9077146 4.2099609z"/></g><g><path d="m3.1071436 44.0430984v.9766846c0 3.0299683 2.4500124 5.4799805 5.4699707 5.4799805h21.8000488c3.0199585 0 5.4699707-2.4500122 5.4699707-5.4799805v-.9766846z" fill="#283e42"/><path d="m30.3770218 51h-21.7998047c-3.2919917 0-5.9702148-2.6826172-5.9702148-5.9804688v-.9765625c0-.2763672.2236328-.5.5-.5h32.7402344c.2763672 0 .5.2236328.5.5v.9765625c-.0000001 3.2978516-2.6782227 5.9804688-5.9702149 5.9804688zm-26.7700193-6.4570312v.4765625c0 2.7460937 2.2294924 4.9804687 4.9702146 4.9804687h21.7998047c2.7407227 0 4.9702148-2.234375 4.9702148-4.9804688v-.4765625h-31.7402341z"/></g><g><path d="m24.4702835 5.8349609h-6.034668c-.2763672 0-.5-.2236328-.5-.5s.2236328-.5.5-.5h6.034668c.2763672 0 .5.2236328.5.5s-.2236328.5-.5.5z"/></g><g><path d="m16.4356155 5.8349609h-1.9516602c-.2763672 0-.5-.2236328-.5-.5s.2236328-.5.5-.5h1.9516602c.2763672 0 .5.2236328.5.5s-.2236328.5-.5.5z"/></g><g><path d="m23.0606155 47.7714844h-7.1669922c-.2763672 0-.5-.2236328-.5-.5s.2236328-.5.5-.5h7.1669922c.2763672 0 .5.2236328.5.5s-.2236328.5-.5.5z"/></g></g></g></g></g></g><g><g><path d="m26.431818 19.5450859c0 1.4992008-.4753647 2.8813705-1.2797775 4.0149231-1.2578163 1.7770996-3.3347301 2.9397545-5.674902 2.9397545s-4.4170408-1.1626549-5.674902-2.9397545c-.8044128-1.1335526-1.2797756-2.5157223-1.2797756-4.0149231 0-3.8393307 3.1153488-6.9545898 6.9546776-6.9545898s6.9546795 3.1152591 6.9546795 6.9545898z" fill="#ddd"/><path d="m19.4771194 27c-2.4125977 0-4.6865234-1.1777344-6.0830078-3.1513672-.8969727-1.2636719-1.371582-2.7519531-1.371582-4.3037109 0-4.1103516 3.3442383-7.4541016 7.4545898-7.4541016s7.4545898 3.34375 7.4545898 7.4541016c0 1.5517578-.4746094 3.0400391-1.3720703 4.3046875-1.395996 1.9726562-3.6699218 3.1503906-6.0825195 3.1503906zm0-13.9091797c-3.559082 0-6.4545898 2.8955078-6.4545898 6.4541016 0 1.34375.4106445 2.6318359 1.1875 3.7246094 1.2099609 1.7099609 3.1787109 2.7304687 5.2670898 2.7304687s4.0571289-1.0205078 5.2666016-2.7294922c.7773438-1.09375 1.1879883-2.3818359 1.1879883-3.7255859 0-3.5585938-2.8955078-6.4541016-6.4545899-6.4541016z"/></g><g><g><path d="m25.1520405 23.560009c-1.2578163 1.7770996-3.3347301 2.9397545-5.674902 2.9397545s-4.4170408-1.1626549-5.674902-2.9397545c.7020655-1.206665 1.7770557-2.164711 3.0714722-2.7205067.5631161.8556538 1.5137997 1.4114494 2.6034298 1.4114494 1.0969524 0 2.0476341-.5557957 2.6034298-1.4114494 1.2944164.5557957 2.3694077 1.5138417 3.0714722 2.7205067z" fill="#ffddab"/><path d="m19.4771194 27c-2.4125977 0-4.6865234-1.1777344-6.0830078-3.1513672-.1132813-.1601563-.1225586-.3710938-.0239258-.5410156.7548828-1.2958984 1.9291992-2.3359375 3.3061523-2.9267578.2211914-.0976563.4819336-.0185547.6147461.1845703.4887695.7421875 1.3061523 1.1855469 2.1860352 1.1855469.8862305 0 1.7026367-.4423828 2.184082-1.1835938.1328125-.2041016.3950195-.2841797.6166992-.1865234 1.3769531.5908203 2.5512695 1.6308594 3.3061523 2.9267578.0986328.1699219.0893555.3808594-.0239258.5410156-1.3964842 1.9736328-3.67041 3.1513672-6.0830077 3.1513672zm-5.0708007-3.4667969c1.2202148 1.5507813 3.0917968 2.4667969 5.0708007 2.4667969s3.8505859-.9160156 5.0708008-2.4667969c-.5756836-.8740234-1.3789063-1.5927734-2.3095703-2.0673828-.6796875.8115234-1.6831055 1.2851563-2.7612305 1.2851563-1.0717773 0-2.074707-.4736328-2.7597656-1.2861328-.9311523.4755859-1.7348633 1.1943359-2.3110351 2.0683593z"/></g><g><path d="m22.5764065 17.7971954v1.355196c0 .6272125-.1858482 1.2080097-.4956264 1.6882267-.5575428.8517246-1.5100842 1.4093609-2.601963 1.4093609s-2.0444202-.5576363-2.601963-1.4093609c-.3097782-.480217-.4956264-1.0610142-.4956264-1.6882267v-1.355196c0-1.7114811 1.3861542-3.0975885 3.0975895-3.0975885.8595695 0 1.6339664.3485355 2.1915569.9060793.5575426.5652943.9060324 1.3396911.9060324 2.1915092z" fill="#ffddab"/><path d="m19.4785843 22.75c-1.2202148 0-2.3491211-.6113281-3.0200195-1.6357422-.3779297-.5859375-.5771484-1.2636719-.5771484-1.9619141v-1.3554687c0-1.9833984 1.6137695-3.5976563 3.597168-3.5976563.9624023 0 1.8666992.3740234 2.5454102 1.0527344.6791992.6884766 1.0522461 1.5917969 1.0522461 2.5449219v1.3554688c0 .6982422-.1992188 1.3759766-.5756836 1.9599609-.6723634 1.0263672-1.8012697 1.6376953-3.0219728 1.6376953zm0-7.5507812c-1.4321289 0-2.597168 1.1650391-2.597168 2.5976563v1.3554688c0 .5058594.1435547.9960938.4155273 1.4169922.4833985.7382811 1.2998048 1.1806639 2.1816407 1.1806639.8823242 0 1.6987305-.4423828 2.1835938-1.1826172.2705078-.4189453.4140625-.9091797.4140625-1.4150391v-1.3554687c0-.6884766-.2705078-1.3417969-.7617188-1.8398438-.487793-.4882812-1.140625-.7578124-1.8359375-.7578124z"/></g><g><path d="m22.5620842 17.6558723c-.0369148-.794817-.3658352-1.5170326-.8917103-2.0501862-.5575905-.5575438-1.3319874-.9060793-2.1915569-.9060793-1.6630344 0-3.0079269 1.3119001-3.0833626 2.9562654h6.1666298z" fill="#283e42"/><path d="m22.5620804 18.15625h-6.1665039c-.1367188 0-.2670898-.0556641-.3613281-.1542969-.0947266-.0986328-.1445313-.2324219-.1381836-.3681641.0878906-1.9257813 1.6616211-3.4345703 3.5825195-3.4345703.9624023 0 1.8666992.3740234 2.5454102 1.0527344.6279297.6367188.9956055 1.4814453 1.0375977 2.3808594.0063477.1367188-.043457.2695313-.1376953.3681641-.0942384.0996093-.2250978.1552734-.3618165.1552734zm-5.590332-1h5.0141602c-.112793-.4521484-.3427734-.8662109-.6713867-1.1992188-.487793-.4882813-1.140625-.7578125-1.8359375-.7578125-1.2060548.0000001-2.2221681.8251954-2.506836 1.9570313z"/></g></g></g></g><g><g><g><path d="m46.4973755 11.1663036-12.4403076 18.3689404-6.1274567-4.1498013 12.4403038-18.3689403c.7090569-1.046968 2.1386642-1.3220677 3.1923485-.6084628l2.3220978 1.5726337c1.0469665.7090554 1.3220672 2.1386628.6130142 3.1856303z" fill="#5ae4a7"/><path d="m34.0567093 30.0351563c-.0966797 0-.1938477-.0273438-.2797852-.0859375l-6.1274414-4.1494141c-.1098633-.0742188-.1855469-.1894531-.2109375-.3193359-.0249023-.1308594.0029297-.265625.0771484-.375l12.4399415-18.3691407c.8647461-1.2763672 2.6103516-1.6083984 3.8867188-.7421875l2.3222656 1.5722656c.6171875.4179688 1.034668 1.0517578 1.1757813 1.7851563.1411133.734375-.0112305 1.4785156-.4291992 2.0947266l-12.4399415 18.3691406c-.0966797.1425781-.2543946.2197266-.4145508.2197266zm-5.4326172-4.7832032 5.2993164 3.5888672 12.159668-17.9550781c.2680664-.3955078.3662109-.8730469.2753906-1.3447266s-.3588867-.8789063-.7543945-1.1464844l-2.3222656-1.5722656c-.8232422-.5576172-1.9433594-.34375-2.4980469.4746094z"/></g><g><path d="m45.209568 13.0678368 1.2878075-1.9015331c.709053-1.0469675.4339523-2.4765749-.6130142-3.1856303l-2.3220978-1.5726337c-1.0536842-.7136049-2.4832916-.4385052-3.1923485.6084628l-1.2878075 1.9015331z" fill="#283e42"/><path d="m45.209053 13.5673828c-.0966797 0-.1938477-.0273438-.2797852-.0859375l-6.1274414-4.1494141c-.1098633-.0742188-.1855469-.1894531-.2109375-.3193359-.0249023-.1308594.0029297-.265625.0771484-.375l1.2875977-1.9013672c.8647461-1.2763672 2.6103516-1.6083984 3.8867188-.7421875l2.3222656 1.5722656c.6171875.4179688 1.034668 1.0517578 1.1757813 1.7851563.1411133.734375-.0112305 1.4785156-.4291992 2.0947266l-1.2875977 1.9013672c-.0966797.1425781-.2543945.2197265-.4145508.2197265zm-5.4326171-4.7832031 5.2993164 3.5888672 1.0073242-1.4873047c.2680664-.3955078.3662109-.8730469.2753906-1.3447266s-.3588867-.8789063-.7543945-1.1464844l-2.3222656-1.5722656c-.8232422-.5576172-1.9433594-.34375-2.4980469.4746094z"/></g><g><path d="m34.0570679 29.535244-3.4191074 1.4925842-1.5607033.6855335c-.6314182.267458-1.3294239-.205265-1.3153973-.8908482l.0506516-1.7082119.1170998-3.7288589z" fill="#ffddab"/><path d="m28.7056351 32.2880859c-.284668 0-.5654297-.0839844-.8085938-.2490234-.4077148-.2763672-.6455078-.7353516-.6352539-1.2275391l.168457-5.4414063c.0053711-.1826172.1098633-.3466797.2719727-.4296875.1630859-.0810547.3574219-.0703125.5078125.03125l6.1274414 4.1494141c.1508789.1025391.234375.2783203.2177734.4599609-.0170898.1816406-.1308594.3398438-.2978516.4121094l-4.9790039 2.1777344c-.1855468.078125-.3798827.1171875-.5727538.1171875zm-.3046875-5.9794921-.1391602 4.5283203c-.0043945.2138672.1352539.3330078.1958008.3740234.0610352.0410156.2241211.1269531.4243164.0419922l4.1430664-1.8125z"/></g><g><path d="m30.6379604 31.0278282-1.5607033.6855335c-.6314182.267458-1.3294239-.205265-1.3153973-.8908482l.0506516-1.7082119c.5001068.1722298 1.0174789.4345455 1.5275478.7799873.5100671.3454419.9523736.7330648 1.2979012 1.1335393z" fill="#283e42"/><path d="m28.7056351 32.2880859c-.284668 0-.5654297-.0839844-.8085938-.2490234-.4077148-.2763672-.6455078-.7353516-.6352539-1.2275391l.0507813-1.7119141c.0048828-.1591797.0849609-.3066406.2158203-.3964844.1308594-.0908203.2963867-.1142578.4467773-.0615234.5488281.1884766 1.1025391.4707031 1.6455078.8388672.5385742.3642578 1.0214844.7861328 1.3959961 1.2207031.1035156.1201172.1435547.2822266.1088867.4365234-.0351563.1542969-.1416016.2832031-.2866211.3476563l-1.5605469.6855469c-.1855468.078125-.3798827.1171875-.5727538.1171875zm-.4150391-2.4316406-.0288086.9804688c-.0043945.2138672.1352539.3330078.1958008.3740234.0610352.0410156.2241211.1269531.4243164.0419922l.8901367-.3916016c-.2167969-.1933594-.456543-.3798828-.7119141-.5527344-.2563476-.1738281-.5131835-.3242187-.7695312-.4521484z"/></g><g><path d="m42.146 10.993-11.153 16.467" fill="#fff"/><path d="m30.9927444 27.9599609c-.0966797 0-.1938477-.0273438-.2797852-.0859375-.2285156-.1552734-.2885742-.4658203-.1337891-.6943359l11.152832-16.4667969c.1547852-.2285156.4663086-.2890625.6943359-.1337891.2285156.1552734.2885742.4658203.1337891.6943359l-11.152832 16.4667969c-.0966796.1425782-.2543944.2197266-.4145507.2197266z"/></g></g></g></g></svg>