<svg width="74" height="48" viewBox="0 0 74 48" fill="none" xmlns="http://www.w3.org/2000/svg">
<g id="Icon">
<rect id="BASE" x="1" y="1" width="72" height="46" rx="23" stroke="#F5F5F5" stroke-width="2"/>
<g id="PayPal">
<path id="Fill 7" fill-rule="evenodd" clip-rule="evenodd" d="M31.5171 38.9153L32.0582 35.3929L30.8529 35.3641H25.0977L29.0974 9.37016C29.1098 9.29145 29.1501 9.21838 29.2089 9.1664C29.2681 9.11442 29.3434 9.08591 29.4222 9.08591H39.1265C42.3484 9.08591 44.5717 9.77294 45.7324 11.1292C46.2766 11.7654 46.6232 12.4305 46.791 13.162C46.9669 13.9299 46.9698 14.8471 46.7982 15.966L46.7858 16.0474V16.7644L47.33 17.0804C47.7882 17.3297 48.1524 17.6148 48.4318 17.9412C48.8972 18.4854 49.1983 19.1769 49.3255 19.9964C49.4571 20.8393 49.4136 21.8427 49.1983 22.9785C48.9499 24.2849 48.5486 25.4228 48.0064 26.3537C47.5079 27.2115 46.8727 27.9232 46.1184 28.4745C45.3982 28.9984 44.5428 29.3962 43.5754 29.6507C42.638 29.9008 41.5692 30.0271 40.397 30.0271H39.6418C39.1019 30.0271 38.5774 30.2264 38.1656 30.5837C37.7526 30.9484 37.4796 31.4468 37.3959 31.9919L37.3388 32.3091L36.3828 38.5179L36.3396 38.7457C36.328 38.8179 36.3083 38.8539 36.2793 38.8782C36.2535 38.9005 36.2164 38.9153 36.1802 38.9153H31.5171Z" fill="#28356A"/>
<path id="Fill 8" fill-rule="evenodd" clip-rule="evenodd" d="M47.845 16.1302C47.8163 16.32 47.7829 16.5139 47.7459 16.7133C46.4661 23.4481 42.0876 25.7747 36.4958 25.7747H33.6486C32.9647 25.7747 32.3883 26.2835 32.2819 26.975L30.4113 39.1369C30.342 39.591 30.6834 40 31.1303 40H36.1802C36.7781 40 37.2861 39.5548 37.3802 38.9503L37.4298 38.6875L38.3806 32.503L38.4418 32.1638C38.5348 31.5573 39.0439 31.1117 39.6418 31.1117H40.397C45.2896 31.1117 49.1198 29.0759 50.2392 23.184C50.7067 20.7228 50.4647 18.6677 49.2273 17.2224C48.8529 16.7866 48.3883 16.4248 47.845 16.1302Z" fill="#298FC2"/>
<path id="Fill 9" fill-rule="evenodd" clip-rule="evenodd" d="M46.5077 15.5831C46.3121 15.5246 46.1104 15.4717 45.9035 15.4239C45.6954 15.3773 45.4824 15.336 45.263 15.2997C44.4954 15.1726 43.6541 15.1123 42.7531 15.1123H35.1469C34.9594 15.1123 34.7815 15.1557 34.6224 15.2341C34.2715 15.407 34.0109 15.7474 33.9478 16.1641L32.3296 26.6688L32.2832 26.975C32.3896 26.2836 32.966 25.7747 33.6499 25.7747H36.4971C42.0889 25.7747 46.4674 23.4469 47.7471 16.7133C47.7854 16.514 47.8176 16.32 47.8463 16.1302C47.5226 15.9541 47.1719 15.8035 46.7943 15.6752C46.701 15.6434 46.6048 15.6128 46.5077 15.5831Z" fill="#22284F"/>
<path id="Fill 11" fill-rule="evenodd" clip-rule="evenodd" d="M33.9465 16.1641C34.0097 15.7474 34.2702 15.407 34.6211 15.2353C34.7814 15.1566 34.9581 15.1132 35.1456 15.1132H42.7518C43.6528 15.1132 44.4941 15.1738 45.2617 15.301C45.4811 15.3369 45.6941 15.3785 45.9022 15.4251C46.1091 15.4727 46.3108 15.5258 46.5064 15.584C46.6035 15.6137 46.6997 15.6446 46.7939 15.6752C47.1715 15.8035 47.5224 15.9553 47.8461 16.1303C48.2269 13.6415 47.8429 11.9469 46.5302 10.4125C45.0826 8.72297 42.4705 8 39.1277 8H29.4231C28.7403 8 28.1579 8.50881 28.0524 9.20148L24.0103 35.4627C23.9307 35.9822 24.3216 36.4509 24.8328 36.4509H30.824L33.9465 16.1641Z" fill="#28356A"/>
</g>
</g>
</svg>
