<svg width="74" height="48" viewBox="0 0 74 48" fill="none" xmlns="http://www.w3.org/2000/svg">
<g id="Icon">
<rect id="BASE" x="1" y="1" width="72" height="46" rx="23" stroke="#F5F5F5" stroke-width="2"/>
<path id="ApplePay" fill-rule="evenodd" clip-rule="evenodd" d="M19.8679 15.9537C19.2351 16.7276 18.2225 17.338 17.2099 17.2508C17.0834 16.2044 17.5791 15.0927 18.1592 14.406C18.7921 13.6104 19.8996 13.0436 20.7961 13C20.9016 14.0899 20.4902 15.1581 19.8679 15.9537ZM20.784 17.4578C19.8919 17.4048 19.078 17.7351 18.4205 18.0018C17.9974 18.1735 17.6392 18.3189 17.3666 18.3189C17.0607 18.3189 16.6876 18.1657 16.2688 17.9938C15.7199 17.7685 15.0924 17.5109 14.4344 17.5232C12.926 17.545 11.5232 18.4279 10.7532 19.8339C9.1711 22.6459 10.3419 26.8095 11.8713 29.0984C12.6202 30.2319 13.5167 31.4744 14.698 31.4308C15.2178 31.4106 15.5916 31.2466 15.9785 31.077C16.4239 30.8817 16.8867 30.6788 17.6092 30.6788C18.3066 30.6788 18.7491 30.8764 19.1739 31.0661C19.5778 31.2464 19.9656 31.4197 20.5414 31.409C21.7649 31.3872 22.5349 30.2755 23.2838 29.142C24.0919 27.9254 24.4471 26.7381 24.501 26.5579L24.5073 26.537C24.506 26.5357 24.496 26.531 24.4784 26.5226C24.2083 26.3948 22.1434 25.418 22.1235 22.7985C22.1037 20.5999 23.7614 19.4859 24.0223 19.3106C24.0382 19.2999 24.0489 19.2927 24.0538 19.2889C22.999 17.6758 21.3536 17.5014 20.784 17.4578ZM29.2571 31.2891V14.297H35.4275C38.6128 14.297 40.8384 16.5641 40.8384 19.8775C40.8384 23.1909 38.5706 25.4798 35.3431 25.4798H31.8096V31.2891H29.2571ZM31.8084 16.5205H34.7512C36.9662 16.5205 38.2319 17.7412 38.2319 19.8884C38.2319 22.0356 36.9662 23.2672 34.7406 23.2672H31.8084V16.5205ZM49.2606 29.251C48.5856 30.5807 47.0984 31.4199 45.4951 31.4199C43.1219 31.4199 41.4659 29.9594 41.4659 27.7577C41.4659 25.5779 43.0692 24.3244 46.0331 24.1392L49.2184 23.943V23.0056C49.2184 21.6214 48.343 20.8693 46.7819 20.8693C45.4951 20.8693 44.5564 21.556 44.3665 22.6023H42.0672C42.141 20.4007 44.145 18.7985 46.8558 18.7985C49.7775 18.7985 51.676 20.3789 51.676 22.8312V31.2891H49.3134V29.251H49.2606ZM46.1848 29.4036C44.8242 29.4036 43.9593 28.7278 43.9593 27.6924C43.9593 26.6242 44.7925 26.003 46.3852 25.9049L49.2225 25.7196V26.6787C49.2225 28.27 47.9146 29.4036 46.1848 29.4036ZM59.5151 31.954C58.492 34.9295 57.3212 35.9105 54.832 35.9105C54.6421 35.9105 54.0093 35.8887 53.8616 35.8451V33.8069C54.0198 33.8287 54.4101 33.8505 54.6105 33.8505C55.7391 33.8505 56.3719 33.36 56.7622 32.0848L56.9942 31.3327L52.6697 18.962H55.3383L58.3443 29.0003H58.3971L61.4031 18.962H63.9979L59.5151 31.954Z" fill="#0F0F0F"/>
</g>
</svg>
