<svg width="24" height="24" viewBox="0 0 24 24" fill="none" xmlns="http://www.w3.org/2000/svg">
<g id="Button - More">
<g id="Icon">
<mask id="mask0_125_8049" style="mask-type:alpha" maskUnits="userSpaceOnUse" x="0" y="0" width="24" height="24">
<rect id="Bounding box" width="24" height="24" fill="white"/>
</mask>
<g mask="url(#mask0_125_8049)">
<g id="Icon_2">
<path id="Vector" d="M14 5C14 3.9 13.1 3 12 3C10.9 3 10 3.9 10 5C10 6.1 10.9 7 12 7C13.1 7 14 6.1 14 5Z" stroke="#0F0F0F" stroke-width="2"/>
<path id="Vector_2" d="M14 19C14 17.9 13.1 17 12 17C10.9 17 10 17.9 10 19C10 20.1 10.9 21 12 21C13.1 21 14 20.1 14 19Z" stroke="#0F0F0F" stroke-width="2"/>
<path id="Vector_3" opacity="0.4" d="M14 12C14 10.9 13.1 10 12 10C10.9 10 10 10.9 10 12C10 13.1 10.9 14 12 14C13.1 14 14 13.1 14 12Z" stroke="#0F0F0F" stroke-width="2"/>
</g>
</g>
</g>
</g>
</svg>
