<svg width="24" height="24" viewBox="0 0 24 24" fill="none" xmlns="http://www.w3.org/2000/svg">
<g id="Button - Play">
<g id="Icon">
<mask id="mask0_125_7788" style="mask-type:alpha" maskUnits="userSpaceOnUse" x="0" y="0" width="24" height="24">
<rect id="Bounding box" width="24" height="24" fill="white"/>
</mask>
<g mask="url(#mask0_125_7788)">
<g id="Icon_2">
<path id="Vector" d="M11.9697 22C17.4926 22 21.9697 17.5228 21.9697 12C21.9697 6.47715 17.4926 2 11.9697 2C6.44688 2 1.96973 6.47715 1.96973 12C1.96973 17.5228 6.44688 22 11.9697 22Z" stroke="#0F0F0F" stroke-width="2" stroke-linecap="round" stroke-linejoin="round"/>
<path id="Vector_2" opacity="0.4" d="M8.74023 12.2296V10.5596C8.74023 8.47964 10.2102 7.62964 12.0102 8.66964L13.4602 9.50964L14.9102 10.3496C16.7102 11.3896 16.7102 13.0896 14.9102 14.1296L13.4602 14.9696L12.0102 15.8096C10.2102 16.8496 8.74023 15.9996 8.74023 13.9196V12.2296Z" stroke="#0F0F0F" stroke-width="2" stroke-miterlimit="10" stroke-linecap="round" stroke-linejoin="round"/>
</g>
</g>
</g>
</g>
</svg>
