<svg width="20" height="20" viewBox="0 0 20 20" fill="none" xmlns="http://www.w3.org/2000/svg">
<g id="Icon">
<mask id="mask0_125_6713" style="mask-type:alpha" maskUnits="userSpaceOnUse" x="0" y="0" width="20" height="20">
<rect id="Bounding box" width="20" height="20" fill="white"/>
</mask>
<g mask="url(#mask0_125_6713)">
<g id="Icon_2">
<path id="Vector" d="M13.9163 15.817H6.08301C5.73301 15.817 5.34134 15.542 5.22468 15.2086L1.77468 5.55862C1.28301 4.17529 1.85801 3.75029 3.04134 4.60029L6.29134 6.92529C6.83301 7.30029 7.44968 7.10862 7.68301 6.50029L9.14968 2.59196C9.61634 1.34196 10.3913 1.34196 10.858 2.59196L12.3247 6.50029C12.558 7.10862 13.1747 7.30029 13.708 6.92529L16.758 4.75029C18.058 3.81696 18.683 4.29196 18.1497 5.80029L14.783 15.2253C14.658 15.542 14.2663 15.817 13.9163 15.817Z" stroke="#FFAA01" stroke-width="2" stroke-linecap="round" stroke-linejoin="round"/>
<path id="Vector_2" opacity="0.34" d="M5.41602 18.3333H14.5827" stroke="#FFAA01" stroke-width="2" stroke-linecap="round" stroke-linejoin="round"/>
<path id="Vector_3" opacity="0.34" d="M7.91602 11.6667H12.0827" stroke="#FFAA01" stroke-width="2" stroke-linecap="round" stroke-linejoin="round"/>
</g>
</g>
</g>
</svg>
