<svg width="32" height="32" viewBox="0 0 32 32" fill="none" xmlns="http://www.w3.org/2000/svg">
<mask id="mask0_125_4013" style="mask-type:alpha" maskUnits="userSpaceOnUse" x="0" y="0" width="32" height="32">
<rect width="32" height="32" fill="white"/>
</mask>
<g mask="url(#mask0_125_4013)">
<path d="M29.3346 13.3333V17.3333C29.3346 22.6667 26.668 25.3333 21.3346 25.3333H20.668C20.2546 25.3333 19.8546 25.5333 19.6013 25.8667L17.6013 28.5333C16.7213 29.7067 15.2813 29.7067 14.4013 28.5333L12.4013 25.8667C12.188 25.5733 11.6946 25.3333 11.3346 25.3333H10.668C5.33464 25.3333 2.66797 24 2.66797 17.3333V10.6667C2.66797 5.33333 5.33464 2.66666 10.668 2.66666H18.668" stroke="#0F0F0F" stroke-width="2" stroke-miterlimit="10" stroke-linecap="round" stroke-linejoin="round"/>
<path opacity="0.4" d="M26.0013 9.33333C27.8423 9.33333 29.3346 7.84094 29.3346 5.99999C29.3346 4.15904 27.8423 2.66666 26.0013 2.66666C24.1604 2.66666 22.668 4.15904 22.668 5.99999C22.668 7.84094 24.1604 9.33333 26.0013 9.33333Z" stroke="#0F0F0F" stroke-width="2" stroke-linecap="round" stroke-linejoin="round"/>
<path opacity="0.4" d="M21.3293 14.6667H21.3412" stroke="#0F0F0F" stroke-width="2" stroke-linecap="round" stroke-linejoin="round"/>
<path opacity="0.4" d="M15.9933 14.6667H16.0053" stroke="#0F0F0F" stroke-width="2" stroke-linecap="round" stroke-linejoin="round"/>
<path opacity="0.4" d="M10.6613 14.6667H10.6733" stroke="#0F0F0F" stroke-width="2" stroke-linecap="round" stroke-linejoin="round"/>
</g>
</svg>
