<?xml version="1.0" encoding="utf-8"?>
<!-- Generator: Adobe Illustrator 25.2.3, SVG Export Plug-In . SVG Version: 6.00 Build 0)  -->
<svg version="1.1" id="Layer_1" xmlns="http://www.w3.org/2000/svg" xmlns:xlink="http://www.w3.org/1999/xlink" x="0px" y="0px"
	 viewBox="0 0 20 20" style="enable-background:new 0 0 20 20;" xml:space="preserve">
<style type="text/css">
	.st0{display:none;fill:#FFFFFF;}
	.st1{fill:#797BBB;}
	.st2{fill:#7B7CBB;}
</style>
<g>
	<path class="st0" d="M4.3,19.5c-2,0-4.1,0-6.1,0c-0.2,0-0.2,0-0.2-0.2c0-6.2,0-12.5,0-18.8c0-0.2,0-0.2,0.2-0.2c4.7,0,9.4,0,14,0
		c0.2,0,0.2,0.1,0.2,0.2c0,2.3,0,4.5,0,6.8c0,0,0,0-0.1-0.1c-0.2-0.8-0.7-1.1-1.5-1.1c-1.3,0-2.7,0-4,0.1c-0.5,0-1,0.2-1.5,0.5
		c-0.6,0.5-1,1-1.2,1.8c-0.1,0.3,0,0.3,0.2,0.3c1.2,0,2.4,0,3.6,0.1c0.4,0,0.8,0,1.2,0c0.2,0,0.2,0.1,0.2,0.2
		c-0.2,0.6-0.5,1.1-1,1.6c-1,1-2,2-3,3c-0.1,0.2-0.2,0.2-0.3,0c-1-1-1.9-1.9-2.9-2.9c-1.1-1.1-1.5-2.5-1.2-4c0.3-2,2.2-3.6,4.2-3.6
		c1.3,0,2.3,0.4,3.3,1.3C8.9,4.9,9.6,5,10.1,4.6c0.8-0.5,0.9-1.6,0.1-2.3C8.4,0.7,6.4,0.1,4.1,0.5C0.8,1-1.7,3.8-1.9,7.1
		c-0.1,2.1,0.6,3.9,2,5.4c1.3,1.4,2.7,2.7,4.1,4.1c0.6,0.6,1.4,0.6,2,0c1.3-1.3,2.7-2.7,4.1-4.1c0.9-0.9,1.6-2.1,1.9-3.4
		c0.1-0.3,0.1-0.7,0.2-1c0,3.7,0,7.3,0,11c0,0.2,0,0.2-0.2,0.2c-1.9,0-3.9,0-5.8,0c0.2-0.1,0.5-0.1,0.8-0.1c0.5-0.1,0.9-0.1,1.4-0.3
		c0.1,0,0.2-0.1,0.2-0.2c0-0.1-0.1-0.2-0.2-0.2c-0.2-0.1-0.5-0.2-0.7-0.2c-1.4-0.2-2.8-0.2-4.3-0.1c-0.4,0-0.8,0.1-1.2,0.2
		c-0.1,0.1-0.3,0.1-0.3,0.2c0,0.2,0.2,0.2,0.3,0.2c0.3,0.1,0.6,0.2,0.9,0.2C3.6,19.4,4,19.4,4.3,19.5z"/>
	<path class="st1" d="M17.1,8.4C17,8.7,17,9,16.9,9.4c-0.3,1.3-0.9,2.4-1.9,3.4c-1.3,1.3-2.7,2.7-4.1,4.1c-0.6,0.6-1.4,0.6-2,0
		c-1.4-1.4-2.7-2.7-4.1-4.1c-1.5-1.5-2.2-3.3-2-5.4C3,4,5.5,1.1,8.8,0.6c2.3-0.4,4.4,0.2,6.1,1.8c0.8,0.7,0.8,1.7-0.1,2.3
		c-0.5,0.3-1.2,0.3-1.7-0.2c-0.9-0.9-2-1.3-3.3-1.3c-2,0-3.9,1.6-4.2,3.6c-0.2,1.5,0.2,2.9,1.2,4c1,1,1.9,1.9,2.9,2.9
		c0.2,0.2,0.2,0.1,0.3,0c1-1,2-2,3-3c0.5-0.5,0.8-1,1-1.6c0.1-0.2,0-0.2-0.2-0.2c-0.4,0-0.8,0-1.2,0C11.5,9,10.4,9,9.2,9
		C8.9,9,8.8,8.9,8.9,8.7c0.2-0.7,0.6-1.3,1.2-1.8c0.4-0.3,0.9-0.5,1.5-0.5c1.3,0,2.7,0,4-0.1c0.8,0,1.2,0.3,1.5,1.1c0,0,0,0,0.1,0.1
		C17.1,7.8,17.1,8.1,17.1,8.4z"/>
	<path class="st2" d="M9,19.6c-0.4-0.1-0.7-0.1-1.1-0.2c-0.3-0.1-0.6-0.1-0.9-0.2C7,19.2,6.8,19.2,6.8,19s0.2-0.2,0.3-0.2
		c0.4-0.2,0.8-0.2,1.2-0.2c1.4-0.2,2.8-0.2,4.3,0.1c0.2,0,0.5,0.1,0.7,0.2c0.1,0,0.2,0.1,0.2,0.2c0,0.1-0.1,0.2-0.2,0.2
		c-0.4,0.2-0.9,0.2-1.4,0.3c-0.2,0-0.5,0-0.8,0.1C10.4,19.6,9.7,19.6,9,19.6z"/>
</g>
</svg>
