<svg width="74" height="48" viewBox="0 0 74 48" fill="none" xmlns="http://www.w3.org/2000/svg">
<g id="Icon">
<rect id="BASE" x="1" y="1" width="72" height="46" rx="23" stroke="#F5F5F5" stroke-width="2"/>
<g id="GooglePay">
<g id="Pay">
<path id="Union" fill-rule="evenodd" clip-rule="evenodd" d="M34.9075 30.2472V23.7765H38.2752C39.6552 23.7765 40.8199 23.318 41.7695 22.4136L41.9974 22.1843C43.7319 20.3119 43.6179 17.395 41.7695 15.6627C40.8453 14.7456 39.5792 14.2488 38.2752 14.2743H32.8691V30.2472H34.9075ZM34.904 21.8148V16.2358H38.3228C39.0573 16.2358 39.7537 16.516 40.2729 17.0255C41.3745 18.0954 41.3998 19.8787 40.3362 20.9869C39.817 21.5346 39.0826 21.8403 38.3228 21.8148H34.904ZM51.5056 20.1717C50.632 19.3692 49.4419 18.9616 47.9353 18.9616C45.9982 18.9616 44.5423 19.675 43.5801 21.0888L45.3779 22.2225C46.0362 21.2544 46.9351 20.7704 48.0746 20.7704C48.7962 20.7704 49.4925 21.0379 50.0369 21.5219C50.5687 21.9804 50.8725 22.6428 50.8725 23.3434V23.8147C50.0876 23.3816 49.1001 23.1523 47.8847 23.1523C46.4667 23.1523 45.3272 23.4835 44.479 24.1586C43.6307 24.8337 43.2003 25.7253 43.2003 26.8589C43.1749 27.8907 43.6181 28.8715 44.403 29.5338C45.2006 30.2471 46.2135 30.6038 47.4036 30.6038C48.8089 30.6038 49.923 29.9796 50.7712 28.7313H50.8599V30.2471H52.8096V23.509C52.8096 22.0951 52.3791 20.9742 51.5056 20.1717ZM45.9698 28.2346C45.5519 27.9289 45.2986 27.4322 45.2986 26.8972C45.2986 26.2985 45.5772 25.8017 46.1217 25.4069C46.6789 25.012 47.3753 24.8082 48.1984 24.8082C49.338 24.7955 50.2244 25.0502 50.8575 25.5597C50.8575 26.4259 50.5156 27.1774 49.8445 27.8143C49.2367 28.4257 48.4136 28.7696 47.5526 28.7696C46.9828 28.7823 46.4256 28.5913 45.9698 28.2346ZM57.1911 35.0492L64.0025 19.3183H61.7869L58.6344 27.1646H58.5965L55.368 19.3183H53.1524L57.6216 29.5465L55.0895 35.0492H57.1911Z" fill="#3C4043"/>
</g>
<g id="G">
<path id="Blue" d="M27.8637 22.3754C27.8637 21.7513 27.813 21.1271 27.7117 20.5157H19.1152V24.044H24.0402C23.8376 25.1776 23.1793 26.1967 22.2171 26.8335V29.1263H25.1543C26.8761 27.5341 27.8637 25.1776 27.8637 22.3754Z" fill="#4285F4"/>
<path id="Green" d="M19.1153 31.3426C21.5715 31.3426 23.6478 30.5274 25.1544 29.1263L22.2171 26.8335C21.3942 27.394 20.3434 27.7124 19.1153 27.7124C16.7351 27.7124 14.7221 26.0948 14.0005 23.9294H10.9746V26.2986C12.5192 29.3938 15.6717 31.3426 19.1153 31.3426Z" fill="#25D366"/>
<path id="Yellow" d="M14.0045 23.9294C13.6246 22.7958 13.6246 21.5602 14.0045 20.4138V18.0574H10.9782C9.67394 20.6431 9.67394 23.7001 10.9782 26.2858L14.0045 23.9294Z" fill="#FBBC04"/>
<path id="Red" d="M19.1153 16.6308C20.4193 16.6053 21.6727 17.102 22.6096 18.0064L25.2177 15.3825C23.5592 13.8285 21.3815 12.9751 19.1153 13.0006C15.6717 13.0006 12.5192 14.9621 10.9746 18.0574L14.0005 20.4265C14.7221 18.2484 16.7351 16.6308 19.1153 16.6308Z" fill="#EA4335"/>
</g>
</g>
</g>
</svg>
