<svg height="512" viewBox="0 0 64 64" width="512" xmlns="http://www.w3.org/2000/svg"><g id="plants-growth-hand-chat"><rect fill="#c2dff6" height="30" rx="2" width="46" x="9" y="23"/><path d="m23 46h3v4h-3z" fill="#ff5023"/><path d="m14.5 53-.5 2 1 7h-9v-5l-3-4v-8l3-5 3-2v10h1l2.72-2.72a2.21 2.21 0 0 1 3.61 2.39l-1.33 3.33z" fill="#ffdaaa"/><path d="m29 44h3v6h-3z" fill="#ff5023"/><path d="m35 42h3v8h-3z" fill="#ff5023"/><path d="m53 41a2.006 2.006 0 0 1 2-2 2.015 2.015 0 0 1 2 2v1a2.015 2.015 0 0 1 2-2 2.006 2.006 0 0 1 2 2v12l-3 4v4h-13v-5l-3-4v-8l3-3v-8a2.006 2.006 0 0 1 2-2 2.015 2.015 0 0 1 2 2v7a2.006 2.006 0 0 1 2-2 2.015 2.015 0 0 1 2 2z" fill="#ffdaaa"/><path d="m32 28 8 10h-16l5.1-6.38z" fill="#b39a7c"/><path d="m39 12h3a7 7 0 0 1 -7 7h-3a7 7 0 0 1 7-7z" fill="#64c37d"/><path d="m32 23h-3a7 7 0 0 1 -7-7h3a7 7 0 0 1 7 7z" fill="#91dc5a"/><path d="m32 13h-3a7 7 0 0 1 -7-7h3a7 7 0 0 1 7 7z" fill="#91dc5a"/><path d="m39 3h3a7 7 0 0 1 -7 7h-3a7 7 0 0 1 7-7z" fill="#64c37d"/><path d="m11 20v-9h-3l5-5 5 5h-3v9z" fill="#ffda44"/><path d="m50 17v-9h-3l5-5 5 5h-3v9z" fill="#ffda44"/><path d="m59 39a2.942 2.942 0 0 0 -1.47.4 3.032 3.032 0 0 0 -1.53-1.22v-13.18a3.009 3.009 0 0 0 -3-3h-20v-2h2a8.011 8.011 0 0 0 8-8 1 1 0 0 0 -1-1h-3a7.974 7.974 0 0 0 -6 2.73v-2.73h2a8.011 8.011 0 0 0 8-8 1 1 0 0 0 -1-1h-3a8 8 0 0 0 -7.74 6.03 8.008 8.008 0 0 0 -6.26-3.03h-3a1 1 0 0 0 -1 1 8.011 8.011 0 0 0 8 8h2v3.73a7.974 7.974 0 0 0 -6-2.73h-3a1 1 0 0 0 -1 1 7.974 7.974 0 0 0 2.73 6h-12.73a3.009 3.009 0 0 0 -3 3v12.46l-2.55 1.71a.949.949 0 0 0 -.31.32l-3 5a1 1 0 0 0 -.14.51v8a.984.984 0 0 0 .2.6l2.8 3.73v4.67h2v-5a.984.984 0 0 0 -.2-.6l-2.8-3.73v-7.39l2.74-4.57 1.26-.84v7.13h-1v2h3a1.033 1.033 0 0 0 .71-.29l2.72-2.72a1.211 1.211 0 0 1 1.98 1.3l-1.34 3.34a.5.5 0 0 0 -.04.13l-1 4a.966.966 0 0 0 -.02.38l1 7 1.98-.28-.97-6.81.26-1.05h26.22l2.5 3.33v4.67h2v-5a.984.984 0 0 0 -.2-.6l-2.8-3.73v-7.26l1-1v3.59h2v-14a1 1 0 0 1 2 0v14h2v-7a1 1 0 0 1 2 0v7h2v-7a1 1 0 0 1 2 0v7h2v-6a1 1 0 0 1 2 0v11.67l-2.8 3.73a.984.984 0 0 0 -.2.6v4h2v-3.67l2.8-3.73a.984.984 0 0 0 .2-.6v-12a3.009 3.009 0 0 0 -3-3zm-20-26h1.92a6.017 6.017 0 0 1 -5.92 5h-1.92a6.017 6.017 0 0 1 5.92-5zm0-9h1.92a6.017 6.017 0 0 1 -5.92 5h-1.92a6.017 6.017 0 0 1 5.92-5zm-10 8a6.017 6.017 0 0 1 -5.92-5h1.92a6.017 6.017 0 0 1 5.92 5zm3 17.6 5.92 7.4h-11.84l3.05-3.81 2.11 2.46 1.52-1.3-2.36-2.75zm-8.92-12.6h1.92a6.017 6.017 0 0 1 5.92 5h-1.92a6.017 6.017 0 0 1 -5.92-5zm30.92 21.18a3.174 3.174 0 0 0 -1 .6 2.974 2.974 0 0 0 -2-.78 3 3 0 0 0 -1 .18v-4.18a3 3 0 0 0 -6 0v7.59l-2.71 2.7a1.033 1.033 0 0 0 -.29.71v7h-25.22l.17-.69 1.31-3.27a3.212 3.212 0 0 0 -5.25-3.47l-2.01 2.02v-21.59a1 1 0 0 1 1-1h20v3.65l-1.92 2.4-2.32-2.7a1.011 1.011 0 0 0 -.76-.35h-13v2h12.54l2.27 2.64-4.29 5.36h-1.52v2h20v-2h-1.52l-7.48-9.35v-3.65h20a1 1 0 0 1 1 1z"/><path d="m13 31h4v2h-4z"/><path d="m13 35h6v2h-6z"/><path d="m39 49v-7a1 1 0 0 0 -1-1h-3a1 1 0 0 0 -1 1v7h-1v-5a1 1 0 0 0 -1-1h-3a1 1 0 0 0 -1 1v5h-1v-3a1 1 0 0 0 -1-1h-3a1 1 0 0 0 -1 1v3h-1v2h19v-2zm-14 0h-1v-2h1zm6 0h-1v-4h1zm6 0h-1v-6h1z"/><path d="m49 13h2v2h-2z"/><path d="m47 9h2v2h2v-3a1 1 0 0 0 -1-1h-.586l2.586-2.586 2.586 2.586h-.586a1 1 0 0 0 -1 1v9h2v-8h2a1 1 0 0 0 .707-1.707l-5-5a1 1 0 0 0 -1.414 0l-5 5a1 1 0 0 0 .707 1.707z"/><path d="m14 16h2v2h-2z"/><path d="m8 12h2v8h2v-9a1 1 0 0 0 -1-1h-.586l2.586-2.586 2.586 2.586h-.586a1 1 0 0 0 -1 1v3h2v-2h2a1 1 0 0 0 .707-1.707l-5-5a1 1 0 0 0 -1.414 0l-5 5a1 1 0 0 0 .707 1.707z"/></g></svg>