<?xml version="1.0" encoding="utf-8"?>
<!-- Generator: Adobe Illustrator 25.2.3, SVG Export Plug-In . SVG Version: 6.00 Build 0)  -->
<svg version="1.1" id="Layer_1" xmlns="http://www.w3.org/2000/svg" xmlns:xlink="http://www.w3.org/1999/xlink" x="0px" y="0px"
	 viewBox="0 0 137 100" style="enable-background:new 0 0 137 100;" xml:space="preserve">
<style type="text/css">
	.st0{display:none;fill-rule:evenodd;clip-rule:evenodd;fill:#6218FF;}
	.st1{display:none;}
	.st2{display:inline;fill:#FEFEFE;}
	.st3{display:inline;fill:#807FFD;}
	.st4{display:inline;fill:#8180FD;}
	.st5{display:none;fill:#FEFEFE;}
	.st6{fill:#8584FD;}
	.st7{fill:#807FFD;}
</style>
<path class="st0" d="M62.4,1.3c-6.6-3.8-14.8,1-14.8,8.6c0,8.7,0,18.9,0,25.8l-2.1,2.7c-3.8,4.8-9.4,10.1-15.1,14.1
	c-1.3,0.9-2.2,1.7-2.2,1.7c0.2,0.2,5.1-2.3,7.4-3.8c5.3-3.3,9.5-6.8,18.4-15.3c6.6-6.3,9-8.4,10.9-9.7c3.6-2.4,6.3-2.3,7.7,0.3
	c0.9,1.7,1.2,3.6,1.1,8.7c-0.1,2.6-0.1,7.1-0.1,10c0,6.2,0.2,7.3,1.9,8.8c0.9,0.9,1.1,0.9,2.4,0.8c1.9-0.2,5.5-2.1,10.2-5.4
	c8.2-5.8,11.3-7.6,13.3-7.6c1.4,0,2.1,0.5,2.6,1.9s0.4,3.2-0.7,7.6c-0.4,1.8-0.8,3.9-0.8,4.7c0,1.3,0,1.5,0.7,2.1s0.9,0.6,2.6,0.5
	c1.3-0.1,2.5-0.4,4.2-1c1.3-0.5,2.3-0.8,2.3-0.8s-0.9,0.8-2,1.8C102.6,64.2,98,66,96.6,63c-0.3-0.7-0.5-1.6-0.5-4.2
	C96,54.4,96,54.4,95,54.4c-1.1,0-2.7,1-8,5c-8.4,6.2-12.5,8.7-16,9.5c-1.6,0.3-2.1,0.4-3.2,0.1c-1.4-0.3-1.8-0.6-2.5-2
	c-0.4-0.8-0.5-1.5-0.5-9.5c0-9.3-0.1-10.1-1.2-11.5c-2.1-2.5-5.8-1.2-19,6.6S25.2,63.5,18.3,65.8c-5.8,1.9-8.6,2.3-12,2.5
	c-2.4,0-6.3-0.5-6.3-0.5s5.9,1.5,8.2,1.9c5.2,0.8,10.8,0.4,14.2-0.2c5.6-1,10.9-2.7,20.5-6.6l4.6-1.8c0,9.7,0.1,19.4,0.1,29.1
	c0,7.6,8.2,12.3,14.8,8.5l69.7-40.2c6.6-3.8,6.6-13.3,0-17.1L62.4,1.3z"/>
<g class="st1">
	<path class="st2" d="M50.8,81.2c-6.7,0-13.3,0-20,0c-0.5,0-0.6-0.1-0.6-0.6c0-20.5,0-41.1,0-61.6c0-0.5,0.1-0.6,0.6-0.6
		c15.3,0,30.7,0,46,0c0.6,0,0.6,0.2,0.6,0.6c0,7.4,0,14.9,0,22.3c-0.1-0.1-0.1-0.1-0.2-0.2c-0.8-2.5-2.2-3.5-4.8-3.5
		c-4.4,0-8.7,0.1-13.1,0.2c-1.8,0-3.4,0.5-4.8,1.5c-2,1.5-3.4,3.4-4.1,5.8c-0.3,1-0.1,1.1,0.8,1.1c3.9,0.1,7.8,0.1,11.7,0.2
		c1.4,0,2.7,0,4.1,0c0.6,0,0.7,0.2,0.5,0.7c-0.8,1.9-1.8,3.6-3.3,5.1c-3.3,3.3-6.5,6.5-9.8,9.8c-0.4,0.5-0.7,0.5-1.1,0
		c-3.2-3.2-6.4-6.4-9.6-9.6c-3.6-3.6-4.9-8.1-4.1-13.1c1.1-6.6,7.2-11.7,13.8-11.8c4.2-0.1,7.7,1.3,10.7,4.2
		c1.6,1.5,3.8,1.8,5.6,0.6c2.7-1.7,2.8-5.1,0.2-7.5c-5.7-5.2-12.4-7.2-20-6c-10.7,1.7-19,11-19.5,21.8c-0.3,6.9,1.9,12.8,6.7,17.8
		c4.4,4.5,8.9,8.9,13.3,13.4c2,2,4.7,2,6.7,0c4.4-4.4,8.9-8.9,13.3-13.3c3.1-3.1,5.2-6.8,6.2-11.1c0.3-1.1,0.3-2.2,0.7-3.3
		c0,12.1,0,24.1,0,36.2c0,0.6-0.1,0.8-0.7,0.8c-6.3,0-12.7,0-19,0c0.8-0.3,1.7-0.2,2.5-0.3c1.5-0.2,3-0.4,4.5-1
		c0.3-0.1,0.6-0.3,0.6-0.6c0-0.4-0.3-0.6-0.7-0.7c-0.7-0.3-1.5-0.5-2.2-0.6c-4.6-0.8-9.3-0.8-14-0.3c-1.3,0.1-2.7,0.3-4,0.8
		c-0.4,0.2-0.9,0.3-0.9,0.8s0.5,0.6,0.9,0.8c0.9,0.4,1.9,0.5,2.8,0.7C48.3,80.9,49.6,80.8,50.8,81.2z"/>
	<path class="st3" d="M92.7,44.6c-0.4,1.1-0.4,2.2-0.7,3.3c-1,4.3-3.1,8-6.2,11.1c-4.4,4.4-8.9,8.9-13.3,13.3c-2,2-4.7,2-6.7,0
		c-4.5-4.5-8.9-8.9-13.3-13.4C47.7,54,45.4,48,45.8,41.1c0.5-10.9,8.8-20.2,19.5-21.8c7.6-1.2,14.3,0.8,20,6
		c2.6,2.3,2.5,5.7-0.2,7.5c-1.8,1.1-4,0.9-5.6-0.6c-3-2.9-6.6-4.3-10.7-4.2c-6.7,0.1-12.7,5.2-13.8,11.8c-0.8,5,0.5,9.4,4.1,13.1
		c3.2,3.2,6.4,6.4,9.6,9.6c0.5,0.5,0.7,0.4,1.1,0c3.2-3.3,6.5-6.6,9.8-9.8c1.5-1.5,2.5-3.2,3.3-5.1c0.2-0.5,0.1-0.7-0.5-0.7
		c-1.4,0-2.7,0-4.1,0c-3.9-0.1-7.8-0.1-11.7-0.2c-1,0-1.1-0.2-0.8-1.1c0.7-2.4,2.1-4.3,4.1-5.8c1.4-1,3-1.5,4.8-1.5
		c4.4,0,8.7-0.1,13.1-0.2c2.6,0,4,1,4.8,3.5c0,0.1,0.1,0.1,0.2,0.2C92.7,42.7,92.7,43.7,92.7,44.6z"/>
	<path class="st4" d="M66.2,81.6c-1.2-0.4-2.4-0.3-3.6-0.5c-1-0.2-1.9-0.3-2.8-0.7c-0.4-0.2-0.9-0.3-0.9-0.8s0.5-0.6,0.9-0.8
		c1.3-0.5,2.6-0.7,4-0.8c4.7-0.5,9.3-0.5,14,0.3c0.8,0.1,1.5,0.3,2.2,0.6c0.3,0.1,0.7,0.3,0.7,0.7c0,0.4-0.4,0.5-0.6,0.6
		c-1.4,0.6-2.9,0.8-4.5,1c-0.8,0.1-1.7,0-2.5,0.3C70.7,81.6,68.5,81.6,66.2,81.6z"/>
</g>
<g>
	<path class="st5" d="M71.4,30.1c-18.5,0-37,0-55.5,0c-0.4,0-0.5-0.1-0.4-0.4c0-12.5,0-25,0-37.5c0-0.4,0.1-0.4,0.4-0.4
		c32.7,0,65.5,0,98.2,0c0.4,0,0.5,0.1,0.4,0.4c0,12.5,0,25,0,37.5c0,0.4-0.1,0.4-0.4,0.4c-13.9,0-27.9,0-41.8,0
		c0.1-0.2,0.2-0.3,0.2-0.6S72.2,29.2,72,29c0.5-0.2,0.9-0.4,1.1-0.8c0-0.1,0.2-0.3,0-0.4c-0.2-0.1-0.4-0.1-0.5,0.1
		c-0.1,0.1-0.1,0.2-0.2,0.2c-0.4,0.5-1.2,0.3-1.3-0.3c-0.2-0.6-0.2-1.3,0-2c0.2-0.6,0.9-0.7,1.3-0.2c0.1,0.1,0.1,0.1,0.1,0.2
		c0.1,0.2,0.4,0.2,0.5,0.1c0.2-0.1,0-0.3,0-0.4c-0.2-0.4-0.6-0.7-1.1-0.8c-0.6,0-1,0.1-1.3,0.6c-0.4,0.6-0.4,2.4,0.1,3
		c0,0.1,0.1,0.1,0.1,0.1c0.5,0.2,0.7,0.7,1.1,1C71.8,29.8,71.3,29.6,71.4,30.1z M15.6,2.6c0,4.8,1.2,7.7,3.6,10.1
		c2.3,2.3,4.6,4.6,6.9,6.9c1.1,1,2.4,1.1,3.5,0c2.4-2.4,4.8-4.7,7.1-7.1c2.2-2.3,3.3-5,3.4-8.1c0.1-1.6-1.1-2.8-2.7-2.7
		c-2.1,0.1-4.2,0.1-6.3,0.1c-2.2,0-4,1.2-4.9,3.3c-0.4,1-0.3,1.1,0.7,1.1c2.6,0,5.2,0.1,7.7,0.1c0.4,0,0.4,0.1,0.3,0.4
		c-0.3,0.8-0.7,1.5-1.2,2.1c-1.8,2-3.7,3.8-5.6,5.7c-0.3,0.3-0.4,0.1-0.5-0.1c-1.7-1.7-3.5-3.4-5.1-5.1c-2.1-2.3-2.8-5-1.7-7.9
		c1.9-5.2,8.4-6.6,12.4-2.8c1,1,2.5,1,3.4,0s0.9-2.4-0.1-3.4C33.4-7.4,30-8.5,26-8C20.1-7.1,15.5-1.9,15.6,2.6z M74.8,1.7
		c0-1.9,0-3.7,0-5.6c0-1.2-0.8-2.2-2-2.5c-0.8-0.1-1.6,0-2.3-0.1c-0.5,0-0.6,0.1-0.6,0.6c0,5.2,0,10.4,0,15.7c0,0.9,0,1.8,0.2,2.7
		c0.3,2,1.2,3.8,3,4.8c2.7,1.5,5.5,2,8.5,1.5c2.9-0.5,4.8-2.1,5.8-4.8c0.7-2,0.9-4,0.8-6c-0.1-1.9-0.6-3.7-1.5-5.3
		c-1.7-2.9-4.6-4.3-7.9-3.6C77-0.6,75.8,0.4,74.8,1.7z M106.3,8c0-1.5,0-2.6,0-3.8c0-2.2-1.1-3.8-3.2-4.7c-1-0.4-2.1-0.6-3.1-0.7
		c-1.9-0.1-3.9-0.2-5.7,0.5c-2,0.8-3.3,2.1-3.8,4.2C90.3,4,90.4,4,90.9,4c1.3,0,2.6,0,3.9,0c0.2,0,0.4,0,0.6-0.3
		c0.3-0.5,0.7-0.7,1.2-0.9c1.3-0.4,2.5-0.3,3.8,0.1c0.7,0.2,1.1,0.6,1.1,1.3c0,0.6-0.3,1.1-0.8,1.4C99.9,6,99,6.2,98.2,6.3
		c-1.6,0.3-3.1,0.4-4.6,1c-1.7,0.7-3.1,1.6-3.5,3.6c-0.1,0.3-0.2,0.7-0.2,1.1c-0.2,3.2,0.7,5.4,4,6.4c2.5,0.8,5,0.5,7.5-0.2
		c2.9-0.9,4.5-3,4.9-6C106.4,10.7,106.2,9.2,106.3,8z M67.4,8.9c0.1-1.6-0.2-3.2-0.8-4.8c-1-2.5-2.7-4.3-5.4-5
		c-1.3-0.3-2.6-0.4-3.9-0.3c-3.4,0.2-6.2,2.4-7.1,5.7c-0.8,2.7-0.8,5.4-0.2,8.1c0.4,1.9,1.2,3.5,2.9,4.6c2.5,1.7,5.3,2.1,8.3,1.4
		c2.6-0.6,4.4-2.3,5.4-4.7C67.2,12.3,67.5,10.7,67.4,8.9z M109,6.5c0,4,0,8,0,12.1c0,0.4,0.1,0.5,0.5,0.5c1.4,0,2.8,0,4.2,0
		c0.3,0,0.5-0.1,0.5-0.4c0-7.4,0-14.8,0-22.2c0-1.2-0.8-2.2-2-2.4c-0.9-0.2-1.7,0-2.6-0.1c-0.4,0-0.5,0.1-0.5,0.5
		C109-1.6,109,2.5,109,6.5z M41.8,6.2c0,4,0,8,0,12c0,0.4,0.1,0.5,0.5,0.5c1.4,0,2.8,0,4.2,0c0.3,0,0.5-0.1,0.5-0.4
		c0-7.4,0-14.8,0-22.3c0-1.3-1.1-2.3-2.3-2.4c-0.7,0-1.5,0-2.2,0c-0.4,0-0.6,0.1-0.6,0.6C41.8-1.8,41.8,2.2,41.8,6.2z M28.2,24.4
		c0.8,0.1,1.7,0,2.6-0.1c0.8-0.1,1.6-0.2,2.4-0.5c0.2-0.1,0.5-0.2,0.5-0.4c0-0.3-0.3-0.3-0.5-0.4c-0.9-0.3-1.8-0.4-2.7-0.5
		c-1.9-0.2-3.9-0.1-5.8,0.1c-0.6,0.1-1.2,0.2-1.8,0.4c-0.2,0-0.5,0-0.5,0.4c0,0.3,0.3,0.4,0.6,0.5c0.2,0.1,0.3,0.1,0.5,0.1
		C25,24.3,26.5,24.4,28.2,24.4z M95.8,28.9c-0.2-0.5-0.5-0.9-0.7-1.3C95,27.3,95,27.2,95.3,27c0.4-0.3,0.5-0.8,0.4-1.4
		c-0.2-0.5-0.5-0.7-1-0.8c-0.5,0-0.9,0-1.4,0c-0.2,0-0.3,0.1-0.3,0.3c0,1.2,0,2.3,0,3.5c0,0.2,0.1,0.3,0.3,0.3
		c0.2,0,0.3-0.1,0.3-0.3c0-0.3,0-0.7,0-1s0.1-0.4,0.4-0.4s0.6,0.1,0.7,0.4c0.1,0.3,0.3,0.5,0.4,0.8C95.1,28.9,95.3,29.1,95.8,28.9z
		 M89.8,27L89.8,27c0-0.1,0-0.2,0-0.3c0-0.4,0-0.9,0.5-1.1c0.5-0.2,0.8,0,1.1,0.4c0.1,0.2,0.3,0.1,0.5,0.1c0.2-0.1,0.1-0.3,0-0.4
		c-0.3-0.6-0.9-0.8-1.6-0.7c-0.6,0.1-1,0.6-1.1,1.2c0,0.5,0,1,0,1.5c0,0.6,0.2,1,0.7,1.2c0.5,0.3,1,0.2,1.5-0.1s0.8-1.3,0.6-1.8
		c-0.2-0.4-0.6-0.1-1-0.2c-0.2,0-0.4,0-0.4,0.3c0,0.4,0.2,0.3,0.4,0.3c0.2,0,0.4-0.1,0.4,0.3c0,0.5-0.4,0.9-0.8,0.9
		s-0.8-0.3-0.9-0.8C89.8,27.5,89.8,27.2,89.8,27z M73.9,26.9c0,0.2,0,0.4,0,0.6c0,0.9,0.6,1.4,1.4,1.5c0.8,0,1.4-0.5,1.5-1.4
		c0-0.4,0-0.9,0-1.3c0-0.9-0.6-1.5-1.5-1.5s-1.4,0.6-1.4,1.5C73.9,26.5,73.9,26.7,73.9,26.9z M77.5,26.9c0,0.6,0,1.1,0,1.7
		c0,0.3,0.1,0.4,0.4,0.4c0.7,0,1.3,0,2,0c0.2,0,0.3,0,0.3-0.3c0-0.2-0.1-0.3-0.3-0.3c-0.3,0-0.7,0-1,0c-0.8,0-0.7,0.2-0.8-0.8
		c0-0.3,0.1-0.4,0.4-0.4s0.6,0,0.9,0c0.2,0,0.4,0.1,0.4-0.3c0-0.3-0.2-0.3-0.4-0.3c-0.2,0-0.4,0-0.5,0c-0.9,0-0.8,0.2-0.8-0.8
		c0-0.3,0.1-0.4,0.4-0.4c0.4,0,0.9,0,1.3,0c0.2,0,0.3,0,0.4-0.3c0-0.3-0.2-0.3-0.4-0.3c-0.6,0-1.3,0-1.9,0c-0.3,0-0.4,0.1-0.4,0.4
		C77.5,25.8,77.5,26.3,77.5,26.9z M63,26.9c0-0.2,0-0.5,0-0.7c0-0.8-0.6-1.3-1.3-1.3c-0.8,0-1.4,0.4-1.5,1.2c0,0.5,0,1.1,0,1.7
		c0.1,0.8,0.7,1.3,1.4,1.3c0.8,0,1.4-0.5,1.4-1.3C63,27.4,63,27.2,63,26.9z M104.3,27c0-0.4,0-0.8-0.1-1.1c-0.1-0.7-0.6-1.1-1.3-1.1
		c-0.7,0-1.3,0.3-1.4,1s-0.1,1.3,0,2s0.7,1.2,1.4,1.2c0.7,0,1.2-0.5,1.4-1.2C104.3,27.5,104.3,27.3,104.3,27z M58.2,24.9
		c0,0-0.1,0-0.2,0c-0.6,0.1-1,0.5-1.1,1.1c0,0.7,0.2,1,0.9,1.2c0.3,0.1,0.5,0.1,0.8,0.2s0.5,0.2,0.5,0.5c0,0.4-0.2,0.5-0.5,0.6
		c-0.5,0.1-0.9,0-1.3-0.2c-0.3-0.2-0.3,0-0.5,0.2s0.1,0.3,0.2,0.3c0.6,0.4,1.3,0.4,2,0.2c0.5-0.2,0.7-0.6,0.7-1.1s-0.2-0.8-0.7-1
		c-0.3-0.1-0.7-0.2-1-0.3c-0.3-0.1-0.5-0.2-0.4-0.6c0-0.3,0.2-0.5,0.5-0.5c0.4-0.1,0.7,0,1,0.2c0.2,0.1,0.3,0,0.4-0.2
		c0.1-0.2-0.1-0.3-0.2-0.3C59,24.9,58.6,24.8,58.2,24.9z M111.5,28.9c-0.5-1.3-0.9-2.6-1.4-3.8c-0.1-0.2-0.2-0.2-0.3-0.2
		c-0.2,0-0.3,0.1-0.3,0.3c-0.4,1.2-0.8,2.3-1.3,3.5c-0.1,0.3,0,0.3,0.3,0.3c0.2,0,0.3-0.1,0.4-0.3c0.1-0.5,0.4-0.7,0.9-0.6
		c0.2,0,0.4,0,0.5,0c0.3-0.1,0.5,0.1,0.6,0.4C110.8,28.9,111,29.1,111.5,28.9z M88.9,28.9c-0.5-1.3-0.9-2.5-1.4-3.7
		c-0.1-0.2-0.1-0.3-0.4-0.3c-0.2,0-0.3,0.2-0.3,0.3c-0.4,1.1-0.8,2.2-1.2,3.3c0,0.1-0.3,0.3,0,0.4c0.2,0.1,0.5,0.1,0.5-0.2
		c0.1-0.6,0.4-0.7,1-0.6c0.1,0,0.3,0,0.4,0c0.3-0.1,0.5,0.1,0.6,0.4C88.2,28.9,88.5,29.1,88.9,28.9z M66.9,26.5L66.9,26.5
		c0,0.4,0,0.7,0,1.1c0,0.9,0.5,1.4,1.4,1.5c0.9,0,1.4-0.5,1.5-1.4c0-0.8,0-1.6,0-2.4c0-0.2,0-0.4-0.3-0.4s-0.3,0.2-0.3,0.4
		c0,0.7,0,1.5,0,2.2c0,0.7-0.3,0.9-0.8,1c-0.6,0-0.8-0.3-0.8-1c0-0.7,0-1.5,0-2.2c0-0.2,0-0.3-0.3-0.4C67,24.9,67,25,67,25.3
		C66.9,25.6,66.9,26,66.9,26.5z M82.2,24.9c-0.1,0-0.1,0-0.2,0c-0.7,0-1.1,0.4-1.2,1c-0.1,0.7,0.2,1,1,1.2c0.3,0.1,0.5,0.1,0.8,0.2
		c0.3,0.1,0.5,0.2,0.4,0.6c0,0.3-0.2,0.5-0.5,0.5c-0.5,0.1-0.9,0.1-1.3-0.2c-0.2-0.1-0.3-0.1-0.4,0.1c-0.2,0.2,0,0.3,0.1,0.4
		c0.7,0.4,1.3,0.4,2,0.1c0.5-0.2,0.6-0.6,0.6-1.2c0-0.5-0.3-0.8-0.7-0.9c-0.4-0.1-0.7-0.2-1.1-0.3c-0.3-0.1-0.4-0.3-0.4-0.6
		c0-0.3,0.2-0.5,0.5-0.5c0.4-0.1,0.8-0.1,1.1,0.1c0.3,0.2,0.3,0,0.4-0.2c0.2-0.2-0.1-0.3-0.2-0.4C82.9,24.9,82.6,24.8,82.2,24.9z
		 M113.2,24.9c-0.1,0-0.1,0-0.2,0c-0.7,0-1.1,0.4-1.2,1c-0.1,0.7,0.2,1.1,0.9,1.3c0.3,0.1,0.6,0.1,0.9,0.2c0.2,0.1,0.4,0.2,0.4,0.5
		s-0.1,0.5-0.4,0.6c-0.5,0.2-1,0.1-1.4-0.2c-0.2-0.1-0.3,0-0.4,0.1c-0.1,0.2,0,0.3,0.1,0.4c0.7,0.4,1.4,0.4,2.1,0.1
		c0.5-0.2,0.6-0.6,0.6-1.1s-0.3-0.8-0.7-0.9c-0.3-0.1-0.7-0.2-1-0.3s-0.5-0.3-0.5-0.6s0.3-0.5,0.6-0.5c0.3,0,0.6,0,0.9,0.1
		c0.2,0.1,0.4,0.1,0.5-0.1c0.2-0.3-0.2-0.3-0.3-0.4C113.8,24.9,113.5,24.8,113.2,24.9z M98,26.9C98.1,26.9,98.1,26.9,98,26.9
		c0,0.3,0,0.6,0,0.8c0.1,0.7,0.5,1.1,1.1,1.2s1.2-0.1,1.5-0.7c0.1-0.1,0.3-0.3,0.1-0.5c-0.2-0.1-0.4-0.1-0.6,0.2s-0.5,0.5-0.9,0.4
		s-0.6-0.4-0.6-0.8c0-0.5,0-1,0-1.5c0-0.6,0.5-0.9,1-0.7c0.2,0.1,0.4,0.2,0.5,0.4s0.4,0.2,0.5,0.1c0.2-0.1,0.1-0.3,0-0.4
		c-0.3-0.6-0.8-0.8-1.5-0.7c-0.5,0.1-1,0.5-1.1,1.1C98,26.2,98.1,26.6,98,26.9z M63.8,27c0,0.6,0,1.1,0,1.7c0,0.2,0,0.4,0.3,0.4
		c0.7,0,1.3,0,2,0c0.2,0,0.3,0,0.3-0.3c0-0.2-0.1-0.3-0.3-0.3c-0.4,0-0.8,0-1.3,0c-0.3,0-0.4-0.1-0.4-0.4c0-0.9,0-1.8,0-2.7
		c0-0.2,0-0.4-0.3-0.4c-0.3,0-0.3,0.2-0.3,0.4C63.8,25.8,63.8,26.4,63.8,27z M105.1,26.9c0,0.6,0,1.1,0,1.7c0,0.3,0.1,0.4,0.4,0.4
		c0.6,0,1.3,0,1.9,0c0.2,0,0.4,0,0.4-0.3c0-0.2-0.1-0.3-0.3-0.3c-0.4,0-0.9,0-1.3,0c-0.3,0-0.4-0.1-0.4-0.4c0-0.9,0-1.8,0-2.7
		c0-0.2,0.1-0.5-0.3-0.5s-0.3,0.3-0.3,0.4C105.1,25.8,105.1,26.4,105.1,26.9z M97.2,27c0-0.6,0-1.1,0-1.7c0-0.2,0-0.4-0.3-0.4
		s-0.3,0.2-0.3,0.4c0,1.1,0,2.2,0,3.4c0,0.2,0,0.4,0.3,0.4s0.3-0.2,0.3-0.4C97.2,28.1,97.2,27.5,97.2,27z M75.7,24.6
		c0.5,0,0.6-0.2,0.6-0.6c0-0.3-0.3-0.3-0.3-0.2c-0.3,0.5-0.6,0.1-0.9,0c-0.5-0.2-0.8,0-0.9,0.4c0,0.1-0.1,0.2,0,0.3s0.3,0.1,0.3,0
		c0.2-0.4,0.5-0.2,0.7-0.1C75.5,24.6,75.6,24.6,75.7,24.6z M96.9,24.6c0.1,0,0.8-0.5,0.8-0.6v-0.1c-0.1-0.1-0.2-0.3-0.4-0.1
		c-0.2,0.2-0.6,0.3-0.5,0.7C96.7,24.5,96.9,24.5,96.9,24.6z"/>
	<path class="st6" d="M75.4,84.7c-0.1-0.5,0.4-0.3,0.6-0.5c-0.4-0.3-0.6-0.8-1.1-1c-0.1,0-0.1-0.1-0.1-0.1c-0.4-0.6-0.4-2.4-0.1-3
		c0.3-0.5,0.7-0.6,1.3-0.6c0.5,0,0.9,0.3,1.1,0.8c0.1,0.1,0.3,0.3,0,0.4c-0.2,0.1-0.4,0.1-0.5-0.1c0-0.1-0.1-0.1-0.1-0.2
		c-0.4-0.5-1.2-0.4-1.3,0.2c-0.2,0.6-0.2,1.3,0,2c0.2,0.6,0.9,0.7,1.3,0.3c0.1-0.1,0.1-0.2,0.2-0.2c0.1-0.2,0.4-0.2,0.5-0.1
		c0.2,0.1,0,0.3,0,0.4c-0.2,0.5-0.6,0.7-1.1,0.8c0.2,0.2,0.4,0.3,0.5,0.5c0,0.2-0.1,0.4-0.2,0.6C76,84.7,75.7,84.7,75.4,84.7z"/>
	<path class="st7" d="M19.5,57.2c-0.1-4.6,4.5-9.8,10.4-10.6c4-0.6,7.5,0.5,10.4,3.3c1,1,1.1,2.4,0.1,3.4c-0.9,0.9-2.4,0.9-3.4,0
		c-4-3.8-10.4-2.4-12.4,2.8c-1.1,2.9-0.5,5.6,1.7,7.9c1.7,1.8,3.4,3.4,5.1,5.1c0.2,0.2,0.3,0.3,0.5,0.1c1.9-1.9,3.8-3.7,5.6-5.7
		c0.6-0.6,0.9-1.3,1.2-2.1c0.1-0.3,0.1-0.4-0.3-0.4c-2.6,0-5.2-0.1-7.7-0.1c-1,0-1.1-0.1-0.7-1.1c0.8-2.1,2.6-3.3,4.9-3.3
		c2.1,0,4.2,0,6.3-0.1c1.6-0.1,2.8,1,2.7,2.7c-0.1,3.1-1.2,5.9-3.4,8.1c-2.3,2.4-4.7,4.7-7.1,7.1c-1,1-2.4,1-3.5,0
		c-2.3-2.3-4.6-4.6-6.9-6.9C20.8,64.9,19.6,62,19.5,57.2z"/>
	<path class="st7" d="M78.7,56.2c1-1.3,2.2-2.3,3.9-2.6c3.3-0.7,6.2,0.6,7.9,3.6c1,1.7,1.4,3.4,1.5,5.3c0.1,2.1-0.1,4.1-0.8,6
		c-1,2.7-2.9,4.3-5.8,4.8c-3,0.5-5.9,0.1-8.5-1.5c-1.9-1.1-2.7-2.8-3-4.8c-0.1-0.9-0.2-1.8-0.2-2.7c0-5.2,0-10.4,0-15.7
		c0-0.5,0.1-0.6,0.6-0.6c0.8,0.1,1.6-0.1,2.3,0.1c1.2,0.2,2,1.2,2,2.5C78.7,52.5,78.7,54.4,78.7,56.2z M87,63.5
		c0-1.3-0.1-2.6-0.8-3.7c-0.7-1.3-1.9-2-3.4-2c-1.7,0-2.9,0.8-3.5,2.4c-0.9,2.2-0.8,4.4-0.1,6.6c0.5,1.5,1.6,2.5,3.3,2.6
		c1.8,0.1,3.1-0.6,3.9-2.2C86.9,66,87,64.8,87,63.5z"/>
	<path class="st7" d="M110.2,62.5c-0.1,1.2,0.1,2.7-0.1,4.2c-0.3,3.1-1.9,5.1-4.9,6c-2.4,0.7-5,1-7.5,0.2c-3.3-1-4.2-3.2-4-6.4
		c0-0.4,0.1-0.8,0.2-1.2c0.4-1.9,1.8-2.9,3.5-3.6c1.5-0.6,3.1-0.7,4.6-1c0.8-0.1,1.7-0.3,2.4-0.7c0.5-0.3,0.9-0.7,0.8-1.4
		c0-0.6-0.4-1.1-1.1-1.3c-1.2-0.4-2.5-0.5-3.8-0.1c-0.5,0.1-0.9,0.4-1.2,0.9c-0.1,0.3-0.3,0.3-0.6,0.3c-1.3,0-2.6,0-3.9,0
		c-0.6,0-0.6,0-0.5-0.6c0.5-2.1,1.8-3.4,3.8-4.2c1.9-0.7,3.8-0.7,5.7-0.5c1.1,0.1,2.1,0.3,3.1,0.7c2.1,0.8,3.2,2.5,3.2,4.7
		C110.2,59.9,110.2,61,110.2,62.5z M105.5,64.4c0-0.1,0-0.1,0-0.2c0-0.9,0-0.9-0.9-0.6c-0.1,0-0.2,0.1-0.3,0.1
		c-1.2,0.4-2.5,0.6-3.7,1c-0.9,0.3-1.7,0.7-2,1.8s0.1,2.3,1.1,2.7c1.7,0.8,4.2,0,5.1-1.5C105.4,66.6,105.5,65.5,105.5,64.4z"/>
	<path class="st7" d="M71.4,63.4c0,1.8-0.2,3.5-0.9,5.1c-1,2.5-2.8,4.1-5.4,4.7c-3,0.7-5.7,0.3-8.3-1.4c-1.6-1.1-2.4-2.8-2.9-4.6
		c-0.6-2.7-0.6-5.4,0.2-8.1c0.9-3.2,3.8-5.4,7.1-5.7c1.3-0.1,2.6,0,3.9,0.3c2.7,0.7,4.4,2.5,5.4,5C71.2,60.2,71.4,61.8,71.4,63.4z
		 M58.4,63.2c0.1,0.6,0.1,1.5,0.2,2.3c0.1,0.5,0.2,1,0.4,1.5c0.6,1.6,2,2.5,3.6,2.5c1.4-0.1,2.7-1.1,3.2-2.6
		c0.6-1.7,0.7-3.4,0.4-5.2c-0.1-0.9-0.4-1.7-1-2.5c-1.6-2.2-4.7-2-6.1,0.3C58.6,60.5,58.5,61.8,58.4,63.2z"/>
	<path class="st7" d="M112.9,61c0-4,0-8,0-12c0-0.4,0.1-0.6,0.5-0.5c0.9,0.1,1.7-0.1,2.6,0.1c1.2,0.2,2,1.2,2,2.4
		c0,7.4,0,14.8,0,22.2c0,0.4-0.1,0.5-0.5,0.4c-1.4,0-2.8,0-4.2,0c-0.4,0-0.5-0.1-0.5-0.5C113,69,112.9,65,112.9,61z"/>
	<path class="st7" d="M45.7,60.7c0-4,0-8,0-12c0-0.5,0.1-0.6,0.6-0.6c0.7,0,1.5,0,2.2,0c1.3,0,2.3,1.1,2.3,2.4c0,7.4,0,14.8,0,22.3
		c0,0.4-0.1,0.4-0.5,0.4c-1.4,0-2.8,0-4.2,0c-0.4,0-0.5-0.1-0.5-0.5C45.7,68.7,45.7,64.7,45.7,60.7z"/>
	<path class="st7" d="M32.1,78.9c-1.7,0-3.2-0.1-4.7-0.4c-0.2,0-0.3-0.1-0.5-0.1c-0.2-0.1-0.6-0.1-0.6-0.5c0-0.3,0.3-0.4,0.6-0.4
		c0.6-0.2,1.2-0.3,1.8-0.4c1.9-0.2,3.9-0.3,5.8-0.1c0.9,0.1,1.8,0.2,2.7,0.5c0.2,0.1,0.5,0.1,0.5,0.4s-0.3,0.4-0.5,0.4
		c-0.8,0.3-1.6,0.4-2.4,0.5C33.9,78.9,32.9,78.9,32.1,78.9z"/>
	<path class="st6" d="M99.8,83.4c-0.5,0.2-0.7,0-0.9-0.4c-0.1-0.3-0.3-0.5-0.4-0.8c-0.1-0.4-0.4-0.4-0.7-0.4c-0.3,0-0.4,0.1-0.4,0.4
		s0,0.7,0,1c0,0.2,0,0.3-0.3,0.3c-0.2,0-0.3-0.1-0.3-0.3c0-1.2,0-2.3,0-3.5c0-0.2,0.1-0.3,0.3-0.3c0.5,0,0.9,0,1.4,0s0.9,0.2,1,0.8
		c0.2,0.5,0.1,1.1-0.4,1.4c-0.3,0.2-0.2,0.4-0.1,0.6C99.3,82.5,99.5,83,99.8,83.4z M98,81.2c0.1,0,0.2,0,0.2,0
		c0.5,0,0.8-0.2,0.8-0.7c0-0.4-0.2-0.6-0.7-0.6c-0.2,0-0.4,0-0.6,0c-0.1,0-0.2,0-0.3,0.1c0,0.4-0.1,0.7,0,1.1
		C97.5,81.4,97.8,81.2,98,81.2z"/>
	<path class="st6" d="M93.8,81.5c0,0.2,0,0.5,0,0.7c0,0.5,0.4,0.8,0.9,0.8s0.8-0.4,0.8-0.9c0-0.3-0.2-0.2-0.4-0.3
		c-0.2,0-0.4,0.1-0.4-0.3c0-0.3,0.2-0.3,0.4-0.3c0.3,0.1,0.8-0.2,1,0.2c0.3,0.6-0.1,1.5-0.6,1.8s-1,0.3-1.5,0.1
		c-0.5-0.2-0.7-0.7-0.7-1.2s0-1,0-1.5c0-0.6,0.5-1.1,1.1-1.2c0.7-0.1,1.3,0.2,1.6,0.7c0.1,0.1,0.2,0.3,0,0.4
		c-0.1,0.1-0.4,0.1-0.5-0.1c-0.3-0.4-0.6-0.6-1.1-0.4s-0.5,0.7-0.5,1.1C93.8,81.3,93.8,81.4,93.8,81.5L93.8,81.5z"/>
	<path class="st6" d="M77.8,81.5c0-0.2,0-0.4,0-0.6c0-0.9,0.5-1.5,1.4-1.5s1.4,0.6,1.5,1.5c0,0.4,0,0.9,0,1.3
		c-0.1,0.8-0.7,1.4-1.5,1.4s-1.3-0.6-1.4-1.5C77.8,81.9,77.8,81.7,77.8,81.5z M78.4,81.4c0,0.2,0,0.5,0,0.7c0,0.5,0.3,0.8,0.8,0.9
		c0.4,0,0.8-0.3,0.9-0.7c0-0.5,0.1-1,0-1.6c0-0.5-0.4-0.8-0.9-0.7c-0.4,0-0.7,0.3-0.7,0.8C78.4,81,78.4,81.2,78.4,81.4z"/>
	<path class="st6" d="M81.4,81.4c0-0.6,0-1.1,0-1.7c0-0.3,0.1-0.4,0.4-0.4c0.6,0,1.3,0,1.9,0c0.2,0,0.4,0,0.4,0.3s-0.2,0.3-0.4,0.3
		c-0.4,0-0.9,0-1.3,0c-0.3,0-0.4,0.1-0.4,0.4c0,1-0.1,0.8,0.8,0.8c0.2,0,0.4,0,0.5,0c0.2,0,0.4,0,0.4,0.3s-0.2,0.3-0.4,0.3
		c-0.3,0-0.6,0-0.9,0S82,81.8,82,82.1c0,1-0.1,0.8,0.8,0.8c0.3,0,0.7,0,1,0c0.2,0,0.3,0.1,0.3,0.3c0,0.2-0.1,0.3-0.3,0.3
		c-0.7,0-1.3,0-2,0c-0.3,0-0.4-0.1-0.4-0.4C81.5,82.6,81.4,82,81.4,81.4z"/>
	<path class="st6" d="M67,81.4c0,0.3,0,0.5,0,0.8c-0.1,0.8-0.6,1.3-1.4,1.3c-0.7,0-1.4-0.5-1.4-1.3c0-0.5,0-1.1,0-1.7
		c0.1-0.8,0.7-1.3,1.5-1.2c0.8,0,1.3,0.5,1.3,1.3C67,80.9,67,81.2,67,81.4z M66.4,81.4c0-0.2,0-0.5,0-0.7c0-0.4-0.3-0.7-0.7-0.8
		c-0.5,0-0.8,0.2-0.9,0.7c-0.1,0.6-0.1,1.1,0,1.7c0.1,0.4,0.4,0.7,0.8,0.7s0.7-0.3,0.8-0.8C66.4,81.9,66.4,81.7,66.4,81.4z"/>
	<path class="st6" d="M108.2,81.6c0,0.2,0,0.5,0,0.8c-0.2,0.7-0.7,1.2-1.4,1.2c-0.7,0-1.3-0.5-1.4-1.2s-0.1-1.3,0-2s0.7-1,1.4-1
		c0.7,0,1.2,0.4,1.3,1.1C108.2,80.8,108.2,81.1,108.2,81.6z M107.6,81.4c0-0.3,0-0.6-0.1-0.9c-0.1-0.4-0.4-0.5-0.7-0.5
		c-0.4,0-0.7,0.1-0.8,0.5c-0.2,0.6-0.2,1.3,0,2c0.1,0.4,0.4,0.6,0.8,0.6s0.7-0.2,0.8-0.5C107.7,82.1,107.6,81.8,107.6,81.4z"/>
	<path class="st6" d="M62.1,79.4c0.4,0,0.8,0.1,1.1,0.2c0.1,0.1,0.3,0.1,0.2,0.3c-0.1,0.1-0.2,0.3-0.4,0.2c-0.3-0.2-0.7-0.2-1-0.2
		s-0.5,0.2-0.5,0.5s0.1,0.5,0.4,0.6c0.3,0.1,0.7,0.2,1,0.3c0.5,0.2,0.7,0.5,0.7,1s-0.2,0.9-0.7,1.1c-0.7,0.3-1.3,0.2-2-0.2
		c-0.1-0.1-0.4-0.1-0.2-0.3c0.1-0.1,0.2-0.3,0.5-0.2c0.4,0.3,0.8,0.3,1.3,0.2c0.3-0.1,0.5-0.2,0.5-0.6c0-0.3-0.2-0.5-0.5-0.5
		c-0.3-0.1-0.5-0.1-0.8-0.2c-0.7-0.2-0.9-0.5-0.9-1.2c0-0.6,0.4-1,1.1-1.1C62,79.4,62.1,79.4,62.1,79.4z"/>
	<path class="st6" d="M115.4,83.4c-0.5,0.2-0.7,0-0.8-0.4c-0.1-0.3-0.2-0.5-0.6-0.4c-0.2,0-0.4,0-0.5,0c-0.5-0.1-0.8,0.1-0.9,0.6
		c0,0.2-0.1,0.3-0.4,0.3c-0.2,0-0.4,0-0.3-0.3c0.4-1.2,0.9-2.3,1.3-3.5c0.1-0.2,0.1-0.3,0.3-0.3c0.2,0,0.3,0,0.3,0.2
		C114.5,80.9,114.9,82.2,115.4,83.4z M113,82c0.3,0,0.6,0,0.9,0c0.2,0,0.3-0.1,0.2-0.3c-0.2-0.5-0.3-0.9-0.5-1.5
		C113.4,80.9,113.3,81.4,113,82z"/>
	<path class="st6" d="M92.9,83.4c-0.5,0.2-0.7,0-0.8-0.4c-0.1-0.3-0.2-0.5-0.6-0.4c-0.1,0-0.3,0-0.4,0c-0.5-0.1-0.9,0-1,0.6
		c0,0.3-0.3,0.3-0.5,0.2c-0.3-0.1-0.1-0.3,0-0.4c0.4-1.1,0.8-2.2,1.2-3.3c0.1-0.2,0.1-0.3,0.3-0.3c0.2,0,0.3,0.1,0.4,0.3
		C92,80.9,92.4,82.2,92.9,83.4z M91.2,80.2c-0.1,0.4-0.2,0.7-0.3,1c-0.3,0.9-0.3,0.9,0.6,0.8c0.3,0,0.3-0.1,0.2-0.3
		C91.5,81.2,91.4,80.8,91.2,80.2z"/>
	<path class="st6" d="M70.9,81c0-0.4,0-0.8,0-1.2c0-0.2,0-0.4,0.3-0.4s0.3,0.2,0.3,0.4c0,0.7,0,1.5,0,2.2s0.3,1,0.8,1
		c0.6,0,0.8-0.3,0.8-1s0-1.5,0-2.2c0-0.2,0-0.3,0.3-0.4c0.3,0,0.3,0.1,0.3,0.4c0,0.8,0,1.6,0,2.4c0,0.9-0.6,1.4-1.5,1.4
		c-0.8,0-1.3-0.6-1.4-1.5C70.9,81.7,70.9,81.3,70.9,81L70.9,81z"/>
	<path class="st6" d="M86.2,79.4c0.4,0,0.7,0.1,1,0.2c0.1,0.1,0.3,0.1,0.2,0.4c-0.1,0.2-0.2,0.3-0.4,0.2c-0.3-0.2-0.7-0.2-1.1-0.1
		c-0.3,0.1-0.4,0.2-0.5,0.5c0,0.3,0.1,0.5,0.4,0.6c0.4,0.1,0.7,0.2,1.1,0.3c0.4,0.1,0.7,0.4,0.7,0.9c0,0.6-0.2,1-0.6,1.2
		c-0.7,0.3-1.4,0.2-2-0.1c-0.2-0.1-0.3-0.2-0.1-0.4c0.1-0.2,0.2-0.2,0.4-0.1c0.4,0.2,0.8,0.3,1.3,0.2c0.3-0.1,0.5-0.2,0.5-0.5
		s-0.2-0.5-0.4-0.6c-0.3-0.1-0.5-0.1-0.8-0.2c-0.8-0.2-1-0.5-1-1.2c0.1-0.6,0.5-1,1.2-1C86,79.4,86.1,79.4,86.2,79.4z"/>
	<path class="st6" d="M117.1,79.4c0.3,0,0.6,0,0.9,0.2c0.1,0.1,0.4,0.1,0.3,0.4c-0.1,0.2-0.3,0.3-0.5,0.1c-0.3-0.2-0.6-0.2-0.9-0.1
		c-0.3,0-0.6,0.2-0.6,0.5c-0.1,0.4,0.2,0.5,0.5,0.6s0.7,0.2,1,0.3c0.4,0.1,0.7,0.4,0.7,0.9s-0.1,0.9-0.6,1.1
		c-0.7,0.3-1.4,0.2-2.1-0.1c-0.2-0.1-0.3-0.2-0.1-0.4c0.1-0.2,0.2-0.3,0.4-0.1c0.4,0.3,0.9,0.3,1.4,0.2c0.3-0.1,0.4-0.3,0.4-0.6
		c0-0.3-0.1-0.4-0.4-0.5s-0.6-0.1-0.9-0.2c-0.7-0.2-1-0.6-0.9-1.3c0.1-0.6,0.5-1,1.2-1C117,79.4,117,79.4,117.1,79.4z"/>
	<path class="st6" d="M102,81.4c0-0.3,0-0.7,0.1-1c0.1-0.6,0.6-1,1.1-1.1c0.7-0.1,1.2,0.2,1.5,0.7c0.1,0.1,0.2,0.3,0,0.4
		s-0.4,0.1-0.5-0.1s-0.3-0.4-0.5-0.4c-0.5-0.1-1,0.2-1,0.7s0,1,0,1.5c0,0.4,0.2,0.7,0.6,0.8c0.4,0.1,0.7-0.1,0.9-0.4
		c0.1-0.3,0.4-0.3,0.6-0.2c0.2,0.1,0,0.3-0.1,0.5c-0.3,0.6-0.9,0.8-1.5,0.7c-0.6-0.1-1-0.6-1.1-1.2C102,82,102,81.7,102,81.4
		L102,81.4z"/>
	<path class="st6" d="M67.8,81.5c0-0.6,0-1.1,0-1.7c0-0.2,0-0.4,0.3-0.4s0.3,0.2,0.3,0.4c0,0.9,0,1.8,0,2.7c0,0.3,0.1,0.4,0.4,0.4
		c0.4,0,0.8,0,1.3,0c0.2,0,0.3,0.1,0.3,0.3c0,0.2-0.1,0.3-0.3,0.3c-0.7,0-1.3,0-2,0c-0.3,0-0.3-0.1-0.3-0.4
		C67.8,82.6,67.8,82,67.8,81.5z"/>
	<path class="st6" d="M109,81.4c0-0.5,0-1.1,0-1.6c0-0.2-0.1-0.4,0.3-0.4s0.3,0.3,0.3,0.5c0,0.9,0,1.8,0,2.7c0,0.3,0.1,0.4,0.4,0.4
		c0.4,0,0.9,0,1.3,0c0.2,0,0.3,0.1,0.3,0.3c0,0.3-0.2,0.3-0.4,0.3c-0.6,0-1.3,0-1.9,0c-0.3,0-0.4-0.1-0.4-0.4
		C109.1,82.5,109,82,109,81.4z"/>
	<path class="st6" d="M101.1,81.5c0,0.6,0,1.1,0,1.7c0,0.2,0,0.3-0.3,0.4c-0.3,0-0.3-0.1-0.3-0.4c0-1.1,0-2.2,0-3.4
		c0-0.2,0-0.4,0.3-0.4s0.3,0.2,0.3,0.4C101.1,80.3,101.1,80.9,101.1,81.5z"/>
	<path class="st6" d="M79.6,79.1c-0.1,0-0.3,0-0.4-0.1c-0.2-0.1-0.5-0.4-0.7,0.1c0,0.1-0.2,0.1-0.3,0c-0.1-0.1-0.1-0.2,0-0.3
		c0.1-0.4,0.4-0.6,0.9-0.4c0.3,0.1,0.6,0.4,0.9,0c0.1-0.1,0.3-0.1,0.3,0.2C80.3,78.9,80.1,79.1,79.6,79.1z"/>
	<path class="st6" d="M100.8,79.1c-0.1,0-0.2-0.1-0.2-0.2c-0.1-0.4,0.4-0.5,0.5-0.7c0.2-0.2,0.3,0,0.4,0.1v0.1
		C101.6,78.6,101,79.1,100.8,79.1z"/>
	<path class="st5" d="M87,63.5c0,1.3-0.1,2.5-0.7,3.7c-0.8,1.6-2.1,2.4-3.9,2.2c-1.7-0.1-2.8-1.1-3.3-2.6c-0.7-2.2-0.8-4.4,0.1-6.6
		c0.6-1.6,1.9-2.3,3.5-2.4c1.5,0,2.6,0.7,3.4,2C86.9,61,87,62.2,87,63.5z"/>
	<path class="st5" d="M105.5,64.4c0,1.1-0.1,2.2-0.7,3.2c-1,1.5-3.5,2.3-5.1,1.5c-0.9-0.4-1.3-1.6-1.1-2.7c0.3-1.1,1.1-1.5,2-1.8
		c1.2-0.4,2.5-0.5,3.7-1c0.1,0,0.2-0.1,0.3-0.1c0.9-0.3,0.9-0.3,0.9,0.6C105.5,64.3,105.5,64.3,105.5,64.4z"/>
	<path class="st5" d="M58.4,63.2c0.1-1.4,0.2-2.7,0.8-3.8c1.3-2.3,4.5-2.5,6.1-0.3c0.5,0.7,0.8,1.6,1,2.5c0.2,1.8,0.2,3.5-0.4,5.2
		c-0.5,1.5-1.8,2.6-3.2,2.6c-1.7,0.1-3.1-0.9-3.6-2.5c-0.2-0.5-0.3-1-0.4-1.5C58.6,64.7,58.5,63.8,58.4,63.2z"/>
	<path class="st5" d="M98,81.2c-0.2-0.1-0.5,0.1-0.6-0.1c-0.1-0.3,0-0.7,0-1.1c0-0.1,0.2-0.1,0.3-0.1c0.2,0,0.4,0,0.6,0
		c0.5,0,0.7,0.2,0.7,0.6s-0.3,0.6-0.8,0.7C98.2,81.2,98.1,81.2,98,81.2z"/>
	<path class="st5" d="M78.4,81.4c0-0.2,0-0.4,0-0.6c0-0.5,0.3-0.8,0.7-0.8c0.5,0,0.9,0.2,0.9,0.7s0,1,0,1.6c0,0.5-0.4,0.8-0.9,0.7
		c-0.4,0-0.7-0.4-0.8-0.9C78.4,81.9,78.4,81.7,78.4,81.4z"/>
	<path class="st5" d="M66.4,81.4c0,0.2,0,0.5,0,0.7c0,0.5-0.4,0.8-0.8,0.8s-0.8-0.2-0.8-0.7c-0.1-0.6-0.1-1.1,0-1.7
		c0.1-0.5,0.4-0.7,0.9-0.7c0.4,0,0.7,0.3,0.7,0.8C66.4,81,66.4,81.2,66.4,81.4z"/>
	<path class="st5" d="M107.6,81.4c0,0.4,0,0.7-0.1,1c-0.1,0.4-0.4,0.6-0.8,0.5c-0.4,0-0.7-0.2-0.8-0.6c-0.2-0.7-0.2-1.3,0-2
		c0.1-0.4,0.4-0.5,0.8-0.5s0.6,0.2,0.7,0.5C107.7,80.8,107.7,81.1,107.6,81.4z"/>
	<path class="st5" d="M113,82c0.2-0.6,0.4-1.1,0.6-1.8c0.2,0.6,0.4,1,0.5,1.5c0.1,0.2,0,0.3-0.2,0.3C113.7,82,113.4,82,113,82z"/>
	<path class="st5" d="M91.2,80.2c0.2,0.6,0.4,1,0.5,1.5c0.1,0.2,0,0.3-0.2,0.3c-0.9,0.1-0.9,0.1-0.6-0.8
		C90.9,80.9,91,80.6,91.2,80.2z"/>
</g>
</svg>
