<?xml version="1.0" encoding="utf-8"?>
<!-- Generator: Adobe Illustrator 25.2.3, SVG Export Plug-In . SVG Version: 6.00 Build 0)  -->
<svg version="1.1" id="Layer_1" xmlns="http://www.w3.org/2000/svg" xmlns:xlink="http://www.w3.org/1999/xlink" x="0px" y="0px"
	 viewBox="0 0 130 50" style="enable-background:new 0 0 130 50;" xml:space="preserve">
<style type="text/css">
	.st0{display:none;fill:#FFFFFF;}
	.st1{fill:#7E80BE;}
	.st2{fill:#797BBB;}
</style>
<g>
	<path class="st0" d="M66-4.2c-15.6,0-31.1,0-46.7,0c-0.3,0-0.4-0.1-0.3-0.3c0-10.5,0-21,0-31.5c0-0.3,0.1-0.3,0.3-0.3
		c27.5,0,55.1,0,82.6,0c0.3,0,0.4,0.1,0.3,0.3c0,10.5,0,21,0,31.5c0,0.3-0.1,0.3-0.3,0.3c-11.7,0-23.5,0-35.2,0
		C66.9-4.4,67-4.4,67-4.7C67-5,66.7-5,66.5-5.1c0.4-0.2,0.8-0.3,0.9-0.7c0-0.1,0.2-0.3,0-0.3C67.3-6.2,67.1-6.2,67-6
		C67-6,67-5.9,66.9-5.9c-0.3,0.4-1,0.3-1.1-0.3c-0.2-0.5-0.2-1.1,0-1.7C66-8.3,66.5-8.4,66.9-8C67-7.9,67-7.9,67-7.8
		c0.1,0.2,0.3,0.2,0.4,0.1c0.2-0.1,0-0.3,0-0.3c-0.2-0.3-0.5-0.6-0.9-0.7c-0.5,0-0.8,0.1-1.1,0.5c-0.3,0.5-0.3,2,0.1,2.5
		c0,0.1,0.1,0.1,0.1,0.1C66-5.5,66.1-5,66.5-4.8C66.4-4.4,66-4.6,66-4.2z M19.1-27.3c0,4,1,6.5,3,8.5c1.9,1.9,3.9,3.9,5.8,5.8
		c0.9,0.8,2,0.9,2.9,0c2-2,4-4,6-6c1.9-1.9,2.8-4.2,2.9-6.8c0.1-1.3-0.9-2.4-2.3-2.3C35.7-28,33.9-28,32.1-28c-1.9,0-3.4,1-4.1,2.8
		c-0.3,0.8-0.3,0.9,0.6,0.9c2.2,0,4.4,0.1,6.5,0.1c0.3,0,0.3,0.1,0.3,0.3c-0.3,0.7-0.6,1.3-1,1.8c-1.5,1.7-3.1,3.2-4.7,4.8
		c-0.3,0.3-0.3,0.1-0.4-0.1c-1.4-1.4-2.9-2.9-4.3-4.3c-1.8-1.9-2.4-4.2-1.4-6.6c1.6-4.4,7.1-5.6,10.4-2.4c0.8,0.8,2.1,0.8,2.9,0
		c0.8-0.8,0.8-2-0.1-2.9c-2.6-2.2-5.5-3.1-8.8-2.7C22.9-35.5,19-31.1,19.1-27.3z M68.9-28.1c0-1.6,0-3.1,0-4.7c0-1-0.7-1.9-1.7-2.1
		c-0.7-0.1-1.3,0-1.9-0.1c-0.4,0-0.5,0.1-0.5,0.5c0,4.4,0,8.7,0,13.2c0,0.8,0,1.5,0.2,2.3c0.3,1.7,1,3.2,2.5,4
		c2.3,1.3,4.6,1.7,7.1,1.3c2.4-0.4,4-1.8,4.9-4c0.6-1.7,0.8-3.4,0.7-5c-0.1-1.6-0.5-3.1-1.3-4.5c-1.4-2.4-3.9-3.6-6.6-3
		C70.7-30,69.7-29.2,68.9-28.1z M95.4-22.8c0-1.3,0-2.2,0-3.2c0-1.9-0.9-3.2-2.7-4c-0.8-0.3-1.8-0.5-2.6-0.6
		c-1.6-0.1-3.3-0.2-4.8,0.4c-1.7,0.7-2.8,1.8-3.2,3.5c-0.2,0.4-0.1,0.4,0.3,0.4c1.1,0,2.2,0,3.3,0c0.2,0,0.3,0,0.5-0.3
		c0.3-0.4,0.6-0.6,1-0.8c1.1-0.3,2.1-0.3,3.2,0.1c0.6,0.2,0.9,0.5,0.9,1.1c0,0.5-0.3,0.9-0.7,1.2c-0.7,0.3-1.4,0.5-2.1,0.6
		c-1.3,0.3-2.6,0.3-3.9,0.8c-1.4,0.6-2.6,1.3-2.9,3c-0.1,0.3-0.2,0.6-0.2,0.9c-0.2,2.7,0.6,4.5,3.4,5.4c2.1,0.7,4.2,0.4,6.3-0.2
		c2.4-0.8,3.8-2.5,4.1-5C95.5-20.5,95.3-21.8,95.4-22.8z M62.7-22c0.1-1.3-0.2-2.7-0.7-4c-0.8-2.1-2.3-3.6-4.5-4.2
		c-1.1-0.3-2.2-0.3-3.3-0.3c-2.9,0.2-5.2,2-6,4.8c-0.7,2.3-0.7,4.5-0.2,6.8c0.3,1.6,1,2.9,2.4,3.9c2.1,1.4,4.5,1.8,7,1.2
		c2.2-0.5,3.7-1.9,4.5-4C62.5-19.2,62.8-20.5,62.7-22z M97.7-24c0,3.4,0,6.7,0,10.2c0,0.3,0.1,0.4,0.4,0.4c1.2,0,2.4,0,3.5,0
		c0.3,0,0.4-0.1,0.4-0.3c0-6.2,0-12.4,0-18.7c0-1-0.7-1.9-1.7-2c-0.8-0.2-1.4,0-2.2-0.1c-0.3,0-0.4,0.1-0.4,0.4
		C97.7-30.9,97.7-27.4,97.7-24z M41.1-24.3c0,3.4,0,6.7,0,10.1c0,0.3,0.1,0.4,0.4,0.4c1.2,0,2.4,0,3.5,0c0.3,0,0.4-0.1,0.4-0.3
		c0-6.2,0-12.4,0-18.8c0-1.1-0.9-1.9-1.9-2c-0.6,0-1.3,0-1.9,0c-0.3,0-0.5,0.1-0.5,0.5C41.1-31,41.1-27.7,41.1-24.3z M29.7-9
		c0.7,0.1,1.4,0,2.2-0.1c0.7-0.1,1.3-0.2,2-0.4c0.2-0.1,0.4-0.2,0.4-0.3c0-0.3-0.3-0.3-0.4-0.3c-0.8-0.3-1.5-0.3-2.3-0.4
		c-1.6-0.2-3.3-0.1-4.9,0.1c-0.5,0.1-1,0.2-1.5,0.3c-0.2,0-0.4,0-0.4,0.3c0,0.3,0.3,0.3,0.5,0.4c0.2,0.1,0.3,0.1,0.4,0.1
		C27-9.1,28.3-9,29.7-9z M86.6-5.2C86.4-5.6,86.1-6,86-6.3c-0.1-0.3-0.1-0.3,0.2-0.5c0.3-0.3,0.4-0.7,0.3-1.2
		c-0.2-0.4-0.4-0.6-0.8-0.7c-0.4,0-0.8,0-1.2,0c-0.2,0-0.3,0.1-0.3,0.3c0,1,0,1.9,0,2.9c0,0.2,0.1,0.3,0.3,0.3
		c0.2,0,0.3-0.1,0.3-0.3c0-0.3,0-0.6,0-0.8c0-0.3,0.1-0.3,0.3-0.3c0.3,0,0.5,0.1,0.6,0.3C85.7-6,85.9-5.9,86-5.6
		C86-5.2,86.1-5,86.6-5.2z M81.5-6.8L81.5-6.8c0-0.1,0-0.2,0-0.3c0-0.3,0-0.8,0.4-0.9c0.4-0.2,0.7,0,0.9,0.3
		c0.1,0.2,0.3,0.1,0.4,0.1c0.2-0.1,0.1-0.3,0-0.3c-0.3-0.5-0.8-0.7-1.3-0.6c-0.5,0.1-0.8,0.5-0.9,1c0,0.4,0,0.8,0,1.3
		c0,0.5,0.2,0.8,0.6,1C82-5,82.4-5,82.9-5.3s0.7-1.1,0.5-1.5c-0.2-0.3-0.5-0.1-0.8-0.2c-0.2,0-0.3,0-0.3,0.3c0,0.3,0.2,0.3,0.3,0.3
		c0.2,0,0.3-0.1,0.3,0.3c0,0.4-0.3,0.8-0.7,0.8c-0.3,0-0.7-0.3-0.8-0.7C81.5-6.4,81.5-6.6,81.5-6.8z M68.1-6.9c0,0.2,0,0.3,0,0.5
		c0,0.8,0.5,1.2,1.2,1.3c0.7,0,1.2-0.4,1.3-1.2c0-0.3,0-0.8,0-1.1c0-0.8-0.5-1.3-1.3-1.3c-0.8,0-1.2,0.5-1.2,1.3
		C68.1-7.2,68.1-7.1,68.1-6.9z M71.2-6.9c0,0.5,0,0.9,0,1.4c0,0.3,0.1,0.3,0.3,0.3c0.6,0,1.1,0,1.7,0c0.2,0,0.3,0,0.3-0.3
		c0-0.2-0.1-0.3-0.3-0.3c-0.3,0-0.6,0-0.8,0c-0.7,0-0.6,0.2-0.7-0.7c0-0.3,0.1-0.3,0.3-0.3s0.5,0,0.8,0c0.2,0,0.3,0.1,0.3-0.3
		c0-0.3-0.2-0.3-0.3-0.3c-0.2,0-0.3,0-0.4,0c-0.8,0-0.7,0.2-0.7-0.7c0-0.3,0.1-0.3,0.3-0.3c0.3,0,0.8,0,1.1,0c0.2,0,0.3,0,0.3-0.3
		c0-0.3-0.2-0.3-0.3-0.3c-0.5,0-1.1,0-1.6,0c-0.3,0-0.3,0.1-0.3,0.3C71.2-7.8,71.2-7.4,71.2-6.9z M59-6.9c0-0.2,0-0.4,0-0.6
		c0-0.7-0.5-1.1-1.1-1.1c-0.7,0-1.2,0.3-1.3,1c0,0.4,0,0.9,0,1.4C56.7-5.5,57.2-5,57.8-5C58.5-5,59-5.5,59-6.1C59-6.5,59-6.6,59-6.9
		z M93.7-6.8c0-0.3,0-0.7-0.1-0.9c-0.1-0.6-0.5-0.9-1.1-0.9s-1.1,0.3-1.2,0.8c-0.1,0.6-0.1,1.1,0,1.7c0.1,0.6,0.6,1,1.2,1
		c0.6,0,1-0.4,1.2-1C93.7-6.4,93.7-6.6,93.7-6.8z M54.9-8.6c0,0-0.1,0-0.2,0c-0.5,0.1-0.8,0.4-0.9,0.9c0,0.6,0.2,0.8,0.8,1
		c0.3,0.1,0.4,0.1,0.7,0.2c0.3,0.1,0.4,0.2,0.4,0.4c0,0.3-0.2,0.4-0.4,0.5c-0.4,0.1-0.8,0-1.1-0.2c-0.3-0.2-0.3,0-0.4,0.2
		c-0.2,0.2,0.1,0.3,0.2,0.3C54.4-5,55-5,55.6-5.1C56-5.3,56.2-5.6,56.2-6S56-6.7,55.6-6.9C55.4-7,55-7.1,54.8-7.1
		c-0.3-0.1-0.4-0.2-0.3-0.5c0-0.3,0.2-0.4,0.4-0.4c0.3-0.1,0.6,0,0.8,0.2c0.2,0.1,0.3,0,0.3-0.2c0.1-0.2-0.1-0.3-0.2-0.3
		C55.6-8.6,55.3-8.7,54.9-8.6z M99.8-5.2c-0.4-1.1-0.8-2.2-1.2-3.2c-0.1-0.2-0.2-0.2-0.3-0.2c-0.2,0-0.3,0.1-0.3,0.3
		c-0.3,1-0.7,1.9-1.1,2.9c-0.1,0.3,0,0.3,0.3,0.3c0.2,0,0.3-0.1,0.3-0.3c0.1-0.4,0.3-0.6,0.8-0.5c0.2,0,0.3,0,0.4,0
		C99-6,99.2-5.8,99.3-5.5C99.2-5.2,99.3-5,99.8-5.2z M80.8-5.2c-0.4-1.1-0.8-2.1-1.2-3.1c-0.1-0.2-0.1-0.3-0.3-0.3
		c-0.2,0-0.3,0.2-0.3,0.3c-0.3,0.9-0.7,1.9-1,2.8c0,0.1-0.3,0.3,0,0.3c0.2,0.1,0.4,0.1,0.4-0.2c0.1-0.5,0.3-0.6,0.8-0.5
		c0.1,0,0.3,0,0.3,0C79.8-6,80-5.8,80.1-5.5C80.2-5.2,80.4-5,80.8-5.2z M62.3-7.2L62.3-7.2c0,0.3,0,0.6,0,0.9c0,0.8,0.4,1.2,1.2,1.3
		c0.8,0,1.2-0.4,1.3-1.2c0-0.7,0-1.3,0-2c0-0.2,0-0.3-0.3-0.3c-0.3,0-0.3,0.2-0.3,0.3c0,0.6,0,1.3,0,1.9s-0.3,0.8-0.7,0.8
		c-0.5,0-0.7-0.3-0.7-0.8s0-1.3,0-1.9c0-0.2,0-0.3-0.3-0.3c-0.3,0-0.3,0.1-0.3,0.3C62.3-8,62.3-7.6,62.3-7.2z M75.1-8.6
		c-0.1,0-0.1,0-0.2,0c-0.6,0-0.9,0.3-1,0.8c-0.1,0.6,0.2,0.8,0.8,1c0.3,0.1,0.4,0.1,0.7,0.2c0.3,0.1,0.4,0.2,0.3,0.5
		c0,0.3-0.2,0.4-0.4,0.4c-0.4,0.1-0.8,0.1-1.1-0.2c-0.2-0.1-0.3-0.1-0.3,0.1c-0.2,0.2,0,0.3,0.1,0.3C74.6-5,75.1-5,75.7-5.3
		c0.4-0.2,0.5-0.5,0.5-1c0-0.4-0.3-0.7-0.6-0.8S75-7.2,74.7-7.3c-0.3-0.1-0.3-0.3-0.3-0.5c0-0.3,0.2-0.4,0.4-0.4
		c0.3-0.1,0.7-0.1,0.9,0.1C76-8,76-8.1,76-8.3c0.2-0.2-0.1-0.3-0.2-0.3C75.7-8.6,75.5-8.7,75.1-8.6z M101.2-8.6c-0.1,0-0.1,0-0.2,0
		c-0.6,0-0.9,0.3-1,0.8c-0.1,0.6,0.2,0.9,0.8,1.1c0.3,0.1,0.5,0.1,0.8,0.2c0.2,0.1,0.3,0.2,0.3,0.4c0,0.3-0.1,0.4-0.3,0.5
		c-0.4,0.2-0.8,0.1-1.2-0.2c-0.2-0.1-0.3,0-0.3,0.1c-0.1,0.2,0,0.3,0.1,0.3c0.6,0.3,1.2,0.3,1.8,0.1c0.4-0.2,0.5-0.5,0.5-0.9
		s-0.3-0.7-0.6-0.8c-0.3-0.1-0.6-0.2-0.8-0.3c-0.3-0.1-0.4-0.3-0.4-0.5s0.3-0.4,0.5-0.4c0.3,0,0.5,0,0.8,0.1
		c0.2,0.1,0.3,0.1,0.4-0.1c0.2-0.3-0.2-0.3-0.3-0.3C101.7-8.6,101.4-8.7,101.2-8.6z M88.4-6.9C88.5-6.9,88.5-6.9,88.4-6.9
		c0,0.3,0,0.5,0,0.7c0.1,0.6,0.4,0.9,0.9,1c0.5,0.1,1-0.1,1.3-0.6c0.1-0.1,0.3-0.3,0.1-0.4c-0.2-0.1-0.3-0.1-0.5,0.2
		c-0.2,0.3-0.4,0.4-0.8,0.3c-0.3-0.1-0.5-0.3-0.5-0.7c0-0.4,0-0.8,0-1.3c0-0.5,0.4-0.8,0.8-0.6c0.2,0.1,0.3,0.2,0.4,0.3
		c0.1,0.2,0.3,0.2,0.4,0.1c0.2-0.1,0.1-0.3,0-0.3c-0.3-0.5-0.7-0.7-1.3-0.6c-0.4,0.1-0.8,0.4-0.9,0.9C88.4-7.5,88.5-7.1,88.4-6.9z
		 M59.6-6.8c0,0.5,0,0.9,0,1.4c0,0.2,0,0.3,0.3,0.3c0.6,0,1.1,0,1.7,0c0.2,0,0.3,0,0.3-0.3c0-0.2-0.1-0.3-0.3-0.3
		c-0.3,0-0.7,0-1.1,0c-0.3,0-0.3-0.1-0.3-0.3c0-0.8,0-1.5,0-2.3c0-0.2,0-0.3-0.3-0.3s-0.3,0.2-0.3,0.3C59.6-7.8,59.6-7.3,59.6-6.8z
		 M94.4-6.9c0,0.5,0,0.9,0,1.4c0,0.3,0.1,0.3,0.3,0.3c0.5,0,1.1,0,1.6,0c0.2,0,0.3,0,0.3-0.3c0-0.2-0.1-0.3-0.3-0.3
		c-0.3,0-0.8,0-1.1,0C95.1-5.6,95-5.7,95-6c0-0.8,0-1.5,0-2.3c0-0.2,0.1-0.4-0.3-0.4c-0.3,0-0.3,0.3-0.3,0.3
		C94.4-7.8,94.4-7.3,94.4-6.9z M87.7-6.8c0-0.5,0-0.9,0-1.4c0-0.2,0-0.3-0.3-0.3s-0.3,0.2-0.3,0.3c0,0.9,0,1.9,0,2.9
		c0,0.2,0,0.3,0.3,0.3s0.3-0.2,0.3-0.3C87.7-5.9,87.7-6.4,87.7-6.8z M69.7-8.8c0.4,0,0.5-0.2,0.5-0.5c0-0.3-0.3-0.3-0.3-0.2
		c-0.3,0.4-0.5,0.1-0.8,0c-0.4-0.2-0.7,0-0.8,0.3c0,0.1-0.1,0.2,0,0.3s0.3,0.1,0.3,0c0.2-0.3,0.4-0.2,0.6-0.1
		C69.5-8.8,69.6-8.8,69.7-8.8z M87.5-8.8c0.1,0,0.7-0.4,0.7-0.5v-0.1c-0.1-0.1-0.2-0.3-0.3-0.1C87.7-9.3,87.3-9.2,87.5-8.8
		C87.3-8.9,87.5-8.9,87.5-8.8z"/>
	<path class="st1" d="M69.4,41.7c-0.1-0.4,0.3-0.3,0.5-0.4c-0.3-0.3-0.5-0.7-0.9-0.8c-0.1,0-0.1-0.1-0.1-0.1c-0.3-0.5-0.3-2-0.1-2.5
		c0.3-0.4,0.6-0.5,1.1-0.5c0.4,0,0.8,0.3,0.9,0.7c0.1,0.1,0.3,0.3,0,0.3c-0.2,0.1-0.3,0.1-0.4-0.1c0-0.1-0.1-0.1-0.1-0.2
		c-0.3-0.4-1-0.3-1.1,0.2c-0.2,0.5-0.2,1.1,0,1.7c0.2,0.5,0.8,0.6,1.1,0.3c0.1-0.1,0.1-0.2,0.2-0.2c0.1-0.2,0.3-0.2,0.4-0.1
		c0.2,0.1,0,0.3,0,0.3c-0.2,0.4-0.5,0.6-0.9,0.7c0.2,0.2,0.3,0.3,0.4,0.4c0,0.2-0.1,0.3-0.2,0.5C69.9,41.7,69.7,41.7,69.4,41.7z"/>
	<path class="st2" d="M22.4,18.6c-0.1-3.9,3.8-8.2,8.7-8.9c3.4-0.5,6.3,0.4,8.7,2.8c0.8,0.8,0.9,2,0.1,2.9c-0.8,0.8-2,0.8-2.9,0
		c-3.4-3.2-8.7-2-10.4,2.4c-0.9,2.4-0.4,4.7,1.4,6.6c1.4,1.5,2.9,2.9,4.3,4.3c0.2,0.2,0.3,0.3,0.4,0.1c1.6-1.6,3.2-3.1,4.7-4.8
		c0.5-0.5,0.8-1.1,1-1.8c0.1-0.3,0.1-0.3-0.3-0.3c-2.2,0-4.4-0.1-6.5-0.1c-0.8,0-0.9-0.1-0.6-0.9c0.7-1.8,2.2-2.8,4.1-2.8
		c1.8,0,3.5,0,5.3-0.1c1.3-0.1,2.4,0.8,2.3,2.3c-0.1,2.6-1,5-2.9,6.8c-1.9,2-4,4-6,6c-0.8,0.8-2,0.8-2.9,0c-1.9-1.9-3.9-3.9-5.8-5.8
		C23.5,25.1,22.5,22.6,22.4,18.6z"/>
	<path class="st2" d="M72.2,17.8c0.8-1.1,1.9-1.9,3.3-2.2c2.8-0.6,5.2,0.5,6.6,3c0.8,1.4,1.2,2.9,1.3,4.5c0.1,1.8-0.1,3.4-0.7,5
		c-0.8,2.3-2.4,3.6-4.9,4c-2.5,0.4-5,0.1-7.1-1.3c-1.6-0.9-2.3-2.4-2.5-4c-0.1-0.8-0.2-1.5-0.2-2.3c0-4.4,0-8.7,0-13.2
		c0-0.4,0.1-0.5,0.5-0.5c0.7,0.1,1.3-0.1,1.9,0.1c1,0.2,1.7,1,1.7,2.1C72.2,14.6,72.2,16.2,72.2,17.8z M79.2,23.9
		c0-1.1-0.1-2.2-0.7-3.1c-0.6-1.1-1.6-1.7-2.9-1.7c-1.4,0-2.4,0.7-2.9,2c-0.8,1.9-0.7,3.7-0.1,5.6c0.4,1.3,1.3,2.1,2.8,2.2
		c1.5,0.1,2.6-0.5,3.3-1.9C79.1,26,79.2,25,79.2,23.9z"/>
	<path class="st2" d="M98.7,23.1c-0.1,1,0.1,2.3-0.1,3.5c-0.3,2.6-1.6,4.3-4.1,5c-2,0.6-4.2,0.8-6.3,0.2c-2.8-0.8-3.5-2.7-3.4-5.4
		c0-0.3,0.1-0.7,0.2-1c0.3-1.6,1.5-2.4,2.9-3c1.3-0.5,2.6-0.6,3.9-0.8c0.7-0.1,1.4-0.3,2-0.6c0.4-0.3,0.8-0.6,0.7-1.2
		c0-0.5-0.3-0.9-0.9-1.1c-1-0.3-2.1-0.4-3.2-0.1c-0.4,0.1-0.8,0.3-1,0.8c-0.1,0.3-0.3,0.3-0.5,0.3c-1.1,0-2.2,0-3.3,0
		c-0.5,0-0.5,0-0.4-0.5c0.4-1.8,1.5-2.9,3.2-3.5c1.6-0.6,3.2-0.6,4.8-0.4c0.9,0.1,1.8,0.3,2.6,0.6c1.8,0.7,2.7,2.1,2.7,4
		C98.7,20.9,98.7,21.8,98.7,23.1z M94.7,24.7c0-0.1,0-0.1,0-0.2c0-0.8,0-0.8-0.8-0.5c-0.1,0-0.2,0.1-0.3,0.1c-1,0.3-2.1,0.5-3.1,0.8
		c-0.8,0.3-1.4,0.6-1.7,1.5c-0.3,0.9,0.1,1.9,0.9,2.3c1.4,0.7,3.5,0,4.3-1.3C94.6,26.5,94.7,25.6,94.7,24.7z"/>
	<path class="st2" d="M66,23.8c0,1.5-0.2,2.9-0.8,4.3c-0.8,2.1-2.4,3.4-4.5,4c-2.5,0.6-4.8,0.3-7-1.2c-1.3-0.9-2-2.4-2.4-3.9
		c-0.5-2.3-0.5-4.5,0.2-6.8c0.8-2.7,3.2-4.5,6-4.8c1.1-0.1,2.2,0,3.3,0.3c2.3,0.6,3.7,2.1,4.5,4.2C65.9,21.1,66,22.5,66,23.8z
		 M55.1,23.6c0.1,0.5,0.1,1.3,0.2,1.9c0.1,0.4,0.2,0.8,0.3,1.3c0.5,1.3,1.7,2.1,3,2.1c1.2-0.1,2.3-0.9,2.7-2.2
		c0.5-1.4,0.6-2.9,0.3-4.4c-0.1-0.8-0.3-1.4-0.8-2.1c-1.3-1.9-4-1.7-5.1,0.3C55.3,21.4,55.2,22.5,55.1,23.6z"/>
	<path class="st2" d="M100.9,21.8c0-3.4,0-6.7,0-10.1c0-0.3,0.1-0.5,0.4-0.4c0.8,0.1,1.4-0.1,2.2,0.1c1,0.2,1.7,1,1.7,2
		c0,6.2,0,12.4,0,18.7c0,0.3-0.1,0.4-0.4,0.3c-1.2,0-2.4,0-3.5,0c-0.3,0-0.4-0.1-0.4-0.4C101,28.5,100.9,25.2,100.9,21.8z"/>
	<path class="st2" d="M44.4,21.5c0-3.4,0-6.7,0-10.1c0-0.4,0.1-0.5,0.5-0.5c0.6,0,1.3,0,1.9,0c1.1,0,1.9,0.9,1.9,2
		c0,6.2,0,12.4,0,18.8c0,0.3-0.1,0.3-0.4,0.3c-1.2,0-2.4,0-3.5,0c-0.3,0-0.4-0.1-0.4-0.4C44.4,28.3,44.4,24.9,44.4,21.5z"/>
	<path class="st2" d="M33,36.9c-1.4,0-2.7-0.1-4-0.3c-0.2,0-0.3-0.1-0.4-0.1c-0.2-0.1-0.5-0.1-0.5-0.4c0-0.3,0.3-0.3,0.5-0.3
		c0.5-0.2,1-0.3,1.5-0.3c1.6-0.2,3.3-0.3,4.9-0.1c0.8,0.1,1.5,0.2,2.3,0.4c0.2,0.1,0.4,0.1,0.4,0.3s-0.3,0.3-0.4,0.3
		c-0.7,0.3-1.3,0.3-2,0.4C34.5,36.9,33.7,36.9,33,36.9z"/>
	<path class="st1" d="M89.9,40.6c-0.4,0.2-0.6,0-0.8-0.3c-0.1-0.3-0.3-0.4-0.3-0.7c-0.1-0.3-0.3-0.3-0.6-0.3c-0.3,0-0.3,0.1-0.3,0.3
		c0,0.3,0,0.6,0,0.8c0,0.2,0,0.3-0.3,0.3c-0.2,0-0.3-0.1-0.3-0.3c0-1,0-1.9,0-2.9c0-0.2,0.1-0.3,0.3-0.3c0.4,0,0.8,0,1.2,0
		s0.8,0.2,0.8,0.7c0.2,0.4,0.1,0.9-0.3,1.2c-0.3,0.2-0.2,0.3-0.1,0.5C89.5,39.9,89.7,40.3,89.9,40.6z M88.4,38.8c0.1,0,0.2,0,0.2,0
		c0.4,0,0.7-0.2,0.7-0.6c0-0.3-0.2-0.5-0.6-0.5c-0.2,0-0.3,0-0.5,0c-0.1,0-0.2,0-0.3,0.1c0,0.3-0.1,0.6,0,0.9
		C88,39,88.2,38.8,88.4,38.8z"/>
	<path class="st1" d="M84.9,39c0,0.2,0,0.4,0,0.6c0,0.4,0.3,0.7,0.8,0.7s0.7-0.3,0.7-0.8c0-0.3-0.2-0.2-0.3-0.3
		c-0.2,0-0.3,0.1-0.3-0.3c0-0.3,0.2-0.3,0.3-0.3c0.3,0.1,0.7-0.2,0.8,0.2c0.3,0.5-0.1,1.3-0.5,1.5s-0.8,0.3-1.3,0.1
		c-0.4-0.2-0.6-0.6-0.6-1s0-0.8,0-1.3c0-0.5,0.4-0.9,0.9-1c0.6-0.1,1.1,0.2,1.3,0.6c0.1,0.1,0.2,0.3,0,0.3c-0.1,0.1-0.3,0.1-0.4-0.1
		c-0.3-0.3-0.5-0.5-0.9-0.3C85,37.9,85,38.4,85,38.7C84.9,38.9,84.9,39,84.9,39L84.9,39z"/>
	<path class="st1" d="M71.4,39c0-0.2,0-0.3,0-0.5c0-0.8,0.4-1.3,1.2-1.3c0.8,0,1.2,0.5,1.3,1.3c0,0.3,0,0.8,0,1.1
		c-0.1,0.7-0.6,1.2-1.3,1.2c-0.7,0-1.1-0.5-1.2-1.3C71.4,39.4,71.4,39.2,71.4,39z M71.9,39c0,0.2,0,0.4,0,0.6c0,0.4,0.3,0.7,0.7,0.8
		c0.3,0,0.7-0.3,0.8-0.6c0-0.4,0.1-0.8,0-1.3c0-0.4-0.3-0.7-0.8-0.6c-0.3,0-0.6,0.3-0.6,0.7C71.9,38.6,71.9,38.8,71.9,39z"/>
	<path class="st1" d="M74.4,39c0-0.5,0-0.9,0-1.4c0-0.3,0.1-0.3,0.3-0.3c0.5,0,1.1,0,1.6,0c0.2,0,0.3,0,0.3,0.3
		c0,0.3-0.2,0.3-0.3,0.3c-0.3,0-0.8,0-1.1,0C75,37.7,75,37.8,75,38c0,0.8-0.1,0.7,0.7,0.7c0.2,0,0.3,0,0.4,0c0.2,0,0.3,0,0.3,0.3
		s-0.2,0.3-0.3,0.3c-0.3,0-0.5,0-0.8,0S75,39.3,75,39.5c0,0.8-0.1,0.7,0.7,0.7c0.3,0,0.6,0,0.8,0c0.2,0,0.3,0.1,0.3,0.3
		c0,0.2-0.1,0.3-0.3,0.3c-0.6,0-1.1,0-1.7,0c-0.3,0-0.3-0.1-0.3-0.3C74.5,40,74.4,39.5,74.4,39z"/>
	<path class="st1" d="M62.3,39c0,0.3,0,0.4,0,0.7c-0.1,0.7-0.5,1.1-1.2,1.1c-0.6,0-1.2-0.4-1.2-1.1c0-0.4,0-0.9,0-1.4
		c0.1-0.7,0.6-1.1,1.3-1c0.7,0,1.1,0.4,1.1,1.1C62.3,38.5,62.3,38.8,62.3,39z M61.8,39c0-0.2,0-0.4,0-0.6c0-0.3-0.3-0.6-0.6-0.7
		c-0.4,0-0.7,0.2-0.8,0.6c-0.1,0.5-0.1,0.9,0,1.4c0.1,0.3,0.3,0.6,0.7,0.6s0.6-0.3,0.7-0.7C61.8,39.4,61.8,39.2,61.8,39z"/>
	<path class="st1" d="M97,39.1c0,0.2,0,0.4,0,0.7c-0.2,0.6-0.6,1-1.2,1s-1.1-0.4-1.2-1c-0.1-0.6-0.1-1.1,0-1.7
		c0.1-0.6,0.6-0.8,1.2-0.8c0.6,0,1,0.3,1.1,0.9C97,38.5,97,38.7,97,39.1z M96.5,39c0-0.3,0-0.5-0.1-0.8c-0.1-0.3-0.3-0.4-0.6-0.4
		c-0.3,0-0.6,0.1-0.7,0.4c-0.2,0.5-0.2,1.1,0,1.7c0.1,0.3,0.3,0.5,0.7,0.5s0.6-0.2,0.7-0.4C96.6,39.5,96.5,39.3,96.5,39z"/>
	<path class="st1" d="M58.2,37.3c0.3,0,0.7,0.1,0.9,0.2c0.1,0.1,0.3,0.1,0.2,0.3c-0.1,0.1-0.2,0.3-0.3,0.2c-0.3-0.2-0.6-0.2-0.8-0.2
		s-0.4,0.2-0.4,0.4c0,0.3,0.1,0.4,0.3,0.5c0.3,0.1,0.6,0.2,0.8,0.3c0.4,0.2,0.6,0.4,0.6,0.8s-0.2,0.8-0.6,0.9
		c-0.6,0.3-1.1,0.2-1.7-0.2c-0.1-0.1-0.3-0.1-0.2-0.3c0.1-0.1,0.2-0.3,0.4-0.2c0.3,0.3,0.7,0.3,1.1,0.2c0.3-0.1,0.4-0.2,0.4-0.5
		c0-0.3-0.2-0.4-0.4-0.4c-0.3-0.1-0.4-0.1-0.7-0.2c-0.6-0.2-0.8-0.4-0.8-1c0-0.5,0.3-0.8,0.9-0.9C58.1,37.3,58.2,37.3,58.2,37.3z"/>
	<path class="st1" d="M103,40.6c-0.4,0.2-0.6,0-0.7-0.3c-0.1-0.3-0.2-0.4-0.5-0.3c-0.2,0-0.3,0-0.4,0c-0.4-0.1-0.7,0.1-0.8,0.5
		c0,0.2-0.1,0.3-0.3,0.3c-0.2,0-0.3,0-0.3-0.3c0.3-1,0.8-1.9,1.1-2.9c0.1-0.2,0.1-0.3,0.3-0.3s0.3,0,0.3,0.2
		C102.3,38.5,102.6,39.6,103,40.6z M101,39.5c0.3,0,0.5,0,0.8,0c0.2,0,0.3-0.1,0.2-0.3c-0.2-0.4-0.3-0.8-0.4-1.3
		C101.4,38.5,101.3,39,101,39.5z"/>
	<path class="st1" d="M84.1,40.6c-0.4,0.2-0.6,0-0.7-0.3c-0.1-0.3-0.2-0.4-0.5-0.3c-0.1,0-0.3,0-0.3,0c-0.4-0.1-0.8,0-0.8,0.5
		c0,0.3-0.3,0.3-0.4,0.2c-0.3-0.1-0.1-0.3,0-0.3c0.3-0.9,0.7-1.9,1-2.8c0.1-0.2,0.1-0.3,0.3-0.3c0.2,0,0.3,0.1,0.3,0.3
		C83.4,38.5,83.7,39.6,84.1,40.6z M82.7,37.9c-0.1,0.3-0.2,0.6-0.3,0.8c-0.3,0.8-0.3,0.8,0.5,0.7c0.3,0,0.3-0.1,0.2-0.3
		C82.9,38.8,82.9,38.5,82.7,37.9z"/>
	<path class="st1" d="M65.6,38.6c0-0.3,0-0.7,0-1c0-0.2,0-0.3,0.3-0.3c0.3,0,0.3,0.2,0.3,0.3c0,0.6,0,1.3,0,1.9
		c0,0.6,0.3,0.8,0.7,0.8c0.5,0,0.7-0.3,0.7-0.8c0-0.6,0-1.3,0-1.9c0-0.2,0-0.3,0.3-0.3c0.3,0,0.3,0.1,0.3,0.3c0,0.7,0,1.3,0,2
		c0,0.8-0.5,1.2-1.3,1.2c-0.7,0-1.1-0.5-1.2-1.3C65.6,39.2,65.6,38.9,65.6,38.6L65.6,38.6z"/>
	<path class="st1" d="M78.5,37.3c0.3,0,0.6,0.1,0.8,0.2c0.1,0.1,0.3,0.1,0.2,0.3c-0.1,0.2-0.2,0.3-0.3,0.2c-0.3-0.2-0.6-0.2-0.9-0.1
		c-0.3,0.1-0.3,0.2-0.4,0.4c0,0.3,0.1,0.4,0.3,0.5c0.3,0.1,0.6,0.2,0.9,0.3c0.3,0.1,0.6,0.3,0.6,0.8c0,0.5-0.2,0.8-0.5,1
		c-0.6,0.3-1.2,0.2-1.7-0.1c-0.2-0.1-0.3-0.2-0.1-0.3c0.1-0.2,0.2-0.2,0.3-0.1c0.3,0.2,0.7,0.3,1.1,0.2c0.3-0.1,0.4-0.2,0.4-0.4
		c0-0.3-0.2-0.4-0.3-0.5c-0.3-0.1-0.4-0.1-0.7-0.2c-0.7-0.2-0.8-0.4-0.8-1c0.1-0.5,0.4-0.8,1-0.8C78.3,37.3,78.4,37.3,78.5,37.3z"/>
	<path class="st1" d="M104.5,37.3c0.3,0,0.5,0,0.8,0.2c0.1,0.1,0.3,0.1,0.3,0.3c-0.1,0.2-0.3,0.3-0.4,0.1c-0.3-0.2-0.5-0.2-0.8-0.1
		c-0.3,0-0.5,0.2-0.5,0.4c-0.1,0.3,0.2,0.4,0.4,0.5c0.3,0.1,0.6,0.2,0.8,0.3c0.3,0.1,0.6,0.3,0.6,0.8s-0.1,0.8-0.5,0.9
		c-0.6,0.3-1.2,0.2-1.8-0.1c-0.2-0.1-0.3-0.2-0.1-0.3c0.1-0.2,0.2-0.3,0.3-0.1c0.3,0.3,0.8,0.3,1.2,0.2c0.3-0.1,0.3-0.3,0.3-0.5
		c0-0.3-0.1-0.3-0.3-0.4c-0.3-0.1-0.5-0.1-0.8-0.2c-0.6-0.2-0.8-0.5-0.8-1.1c0.1-0.5,0.4-0.8,1-0.8
		C104.4,37.3,104.4,37.3,104.5,37.3z"/>
	<path class="st1" d="M91.8,39c0-0.3,0-0.6,0.1-0.8c0.1-0.5,0.5-0.8,0.9-0.9c0.6-0.1,1,0.2,1.3,0.6c0.1,0.1,0.2,0.3,0,0.3
		c-0.2,0.1-0.3,0.1-0.4-0.1s-0.3-0.3-0.4-0.3c-0.4-0.1-0.8,0.2-0.8,0.6s0,0.8,0,1.3c0,0.3,0.2,0.6,0.5,0.7c0.3,0.1,0.6-0.1,0.8-0.3
		c0.1-0.3,0.3-0.3,0.5-0.2c0.2,0.1,0,0.3-0.1,0.4c-0.3,0.5-0.8,0.7-1.3,0.6c-0.5-0.1-0.8-0.5-0.9-1C91.8,39.5,91.8,39.2,91.8,39
		L91.8,39z"/>
	<path class="st1" d="M63,39c0-0.5,0-0.9,0-1.4c0-0.2,0-0.3,0.3-0.3c0.3,0,0.3,0.2,0.3,0.3c0,0.8,0,1.5,0,2.3c0,0.3,0.1,0.3,0.3,0.3
		c0.3,0,0.7,0,1.1,0c0.2,0,0.3,0.1,0.3,0.3c0,0.2-0.1,0.3-0.3,0.3c-0.6,0-1.1,0-1.7,0c-0.3,0-0.3-0.1-0.3-0.3C63,40,63,39.5,63,39z"
		/>
	<path class="st1" d="M97.7,39c0-0.4,0-0.9,0-1.3c0-0.2-0.1-0.3,0.3-0.3c0.3,0,0.3,0.3,0.3,0.4c0,0.8,0,1.5,0,2.3
		c0,0.3,0.1,0.3,0.3,0.3c0.3,0,0.8,0,1.1,0c0.2,0,0.3,0.1,0.3,0.3c0,0.3-0.2,0.3-0.3,0.3c-0.5,0-1.1,0-1.6,0c-0.3,0-0.3-0.1-0.3-0.3
		C97.7,39.9,97.7,39.5,97.7,39z"/>
	<path class="st1" d="M91,39c0,0.5,0,0.9,0,1.4c0,0.2,0,0.3-0.3,0.3c-0.3,0-0.3-0.1-0.3-0.3c0-0.9,0-1.9,0-2.9c0-0.2,0-0.3,0.3-0.3
		s0.3,0.2,0.3,0.3C91,38,91,38.5,91,39z"/>
	<path class="st1" d="M72.9,37c-0.1,0-0.3,0-0.3-0.1c-0.2-0.1-0.4-0.3-0.6,0.1c0,0.1-0.2,0.1-0.3,0c-0.1-0.1-0.1-0.2,0-0.3
		c0.1-0.3,0.3-0.5,0.8-0.3c0.3,0.1,0.5,0.3,0.8,0c0.1-0.1,0.3-0.1,0.3,0.2C73.5,36.9,73.4,37,72.9,37z"/>
	<path class="st1" d="M90.8,37c-0.1,0-0.2-0.1-0.2-0.2c-0.1-0.3,0.3-0.4,0.4-0.6c0.2-0.2,0.3,0,0.3,0.1v0.1
		C91.4,36.6,90.9,37,90.8,37z"/>
	<path class="st0" d="M79.2,23.9c0,1.1-0.1,2.1-0.6,3.1c-0.7,1.3-1.8,2-3.3,1.9c-1.4-0.1-2.4-0.9-2.8-2.2c-0.6-1.9-0.7-3.7,0.1-5.6
		c0.5-1.3,1.6-1.9,2.9-2c1.3,0,2.2,0.6,2.9,1.7C79.1,21.8,79.2,22.8,79.2,23.9z"/>
	<path class="st0" d="M94.7,24.7c0,0.9-0.1,1.9-0.6,2.7c-0.8,1.3-2.9,1.9-4.3,1.3c-0.8-0.3-1.1-1.3-0.9-2.3c0.3-0.9,0.9-1.3,1.7-1.5
		c1-0.3,2.1-0.4,3.1-0.8c0.1,0,0.2-0.1,0.3-0.1c0.8-0.3,0.8-0.3,0.8,0.5C94.7,24.6,94.7,24.6,94.7,24.7z"/>
	<path class="st0" d="M55.1,23.6c0.1-1.2,0.2-2.3,0.7-3.2c1.1-1.9,3.8-2.1,5.1-0.3c0.4,0.6,0.7,1.3,0.8,2.1c0.2,1.5,0.2,2.9-0.3,4.4
		c-0.4,1.3-1.5,2.2-2.7,2.2c-1.4,0.1-2.6-0.8-3-2.1c-0.2-0.4-0.3-0.8-0.3-1.3C55.3,24.9,55.2,24.2,55.1,23.6z"/>
	<path class="st0" d="M88.4,38.8c-0.2-0.1-0.4,0.1-0.5-0.1c-0.1-0.3,0-0.6,0-0.9c0-0.1,0.2-0.1,0.3-0.1c0.2,0,0.3,0,0.5,0
		c0.4,0,0.6,0.2,0.6,0.5c0,0.3-0.3,0.5-0.7,0.6C88.6,38.8,88.5,38.8,88.4,38.8z"/>
	<path class="st0" d="M71.9,39c0-0.2,0-0.3,0-0.5c0-0.4,0.3-0.7,0.6-0.7c0.4,0,0.8,0.2,0.8,0.6s0,0.8,0,1.3c0,0.4-0.3,0.7-0.8,0.6
		c-0.3,0-0.6-0.3-0.7-0.8C71.9,39.4,71.9,39.2,71.9,39z"/>
	<path class="st0" d="M61.8,39c0,0.2,0,0.4,0,0.6c0,0.4-0.3,0.7-0.7,0.7c-0.3,0-0.7-0.2-0.7-0.6c-0.1-0.5-0.1-0.9,0-1.4
		c0.1-0.4,0.3-0.6,0.8-0.6c0.3,0,0.6,0.3,0.6,0.7C61.8,38.6,61.8,38.8,61.8,39z"/>
	<path class="st0" d="M96.5,39c0,0.3,0,0.6-0.1,0.8c-0.1,0.3-0.3,0.5-0.7,0.4c-0.3,0-0.6-0.2-0.7-0.5c-0.2-0.6-0.2-1.1,0-1.7
		c0.1-0.3,0.3-0.4,0.7-0.4s0.5,0.2,0.6,0.4C96.6,38.5,96.6,38.7,96.5,39z"/>
	<path class="st0" d="M101,39.5c0.2-0.5,0.3-0.9,0.5-1.5c0.2,0.5,0.3,0.8,0.4,1.3c0.1,0.2,0,0.3-0.2,0.3S101.4,39.5,101,39.5z"/>
	<path class="st0" d="M82.7,37.9c0.2,0.5,0.3,0.8,0.4,1.3c0.1,0.2,0,0.3-0.2,0.3c-0.8,0.1-0.8,0.1-0.5-0.7
		C82.4,38.5,82.5,38.3,82.7,37.9z"/>
</g>
</svg>
