<svg version="1.1" id="Layer_1" xmlns="http://www.w3.org/2000/svg" xmlns:xlink="http://www.w3.org/1999/xlink" x="0px" y="0px"
	 width="100%" viewBox="0 0 67 90" enable-background="new 0 0 67 90" xml:space="preserve">
<path fill="#807FFE" opacity="1.000000" stroke="none" 
	d="
M28.000000,1.000000 
	C32.024544,1.000000 36.049088,1.000000 40.727432,1.324549 
	C47.890640,2.868653 53.495781,5.802567 58.064770,10.606035 
	C61.131779,13.830439 60.807083,18.157881 57.499081,21.003250 
	C53.126404,24.764400 49.948509,21.690023 46.685093,19.188341 
	C38.555187,12.956086 27.228218,13.022690 19.259346,22.121315 
	C13.543516,28.647482 13.057881,40.730145 19.191893,47.587196 
	C23.954924,52.911671 29.129475,57.868023 34.448833,63.324146 
	C40.372223,55.916977 48.609112,51.227699 52.932449,41.931160 
	C44.544540,41.931160 36.963150,41.931160 29.444206,41.931160 
	C28.795826,35.104195 35.264290,28.200655 42.180241,28.032280 
	C48.002811,27.890528 53.876293,27.575102 59.638691,28.180021 
	C62.527626,28.483290 65.219177,30.666828 68.000000,32.000000 
	C68.000000,35.030594 68.000000,38.061188 67.678238,41.731388 
	C66.750084,44.230049 66.300804,46.158768 65.512245,47.937038 
	C59.663925,61.125637 47.654194,68.977509 38.106174,78.922516 
	C36.879169,80.200539 32.489834,79.461311 30.159163,78.378540 
	C27.757755,77.262909 26.066181,74.600304 24.092215,72.586922 
	C15.074463,63.389114 4.579799,55.303867 1.000000,42.000000 
	C1.000000,37.643101 1.000000,33.286201 1.324889,28.273495 
	C3.149961,23.857079 4.231366,19.854897 6.233605,16.383898 
	C11.068811,8.001794 19.024380,3.700721 28.000000,1.000000 
z"/>
<path fill="#FFFFFF" opacity="1.000000" stroke="none" 
	d="
M1.000000,42.468658 
	C4.579799,55.303867 15.074463,63.389114 24.092215,72.586922 
	C26.066181,74.600304 27.757755,77.262909 30.159163,78.378540 
	C32.489834,79.461311 36.879169,80.200539 38.106174,78.922516 
	C47.654194,68.977509 59.663925,61.125637 65.512245,47.937038 
	C66.300804,46.158768 66.750084,44.230049 67.678238,42.185497 
	C68.000000,58.233398 68.000000,74.466797 68.000000,91.000000 
	C60.648529,91.000000 53.293003,91.000000 45.650471,90.680717 
	C47.236378,89.738968 49.109291,89.116508 51.417011,88.349533 
	C44.462467,82.652611 24.530165,82.804214 18.930033,88.364464 
	C21.058075,89.288445 23.029037,90.144226 25.000000,91.000000 
	C17.048256,91.000000 9.096511,91.000000 1.000000,91.000000 
	C1.000000,74.979355 1.000000,58.958336 1.000000,42.468658 
z"/>
<path fill="#FFFFFF" opacity="1.000000" stroke="none" 
	d="
M68.000000,31.531342 
	C65.219177,30.666828 62.527626,28.483290 59.638691,28.180021 
	C53.876293,27.575102 48.002811,27.890528 42.180241,28.032280 
	C35.264290,28.200655 28.795826,35.104195 29.444206,41.931160 
	C36.963150,41.931160 44.544540,41.931160 52.932449,41.931160 
	C48.609112,51.227699 40.372223,55.916977 34.448833,63.324146 
	C29.129475,57.868023 23.954924,52.911671 19.191893,47.587196 
	C13.057881,40.730145 13.543516,28.647482 19.259346,22.121315 
	C27.228218,13.022690 38.555187,12.956086 46.685093,19.188341 
	C49.948509,21.690023 53.126404,24.764400 57.499081,21.003250 
	C60.807083,18.157881 61.131779,13.830439 58.064770,10.606035 
	C53.495781,5.802567 47.890640,2.868653 41.190617,1.324549 
	C49.931549,1.000000 58.863098,1.000000 68.000000,1.000000 
	C68.000000,11.019961 68.000000,21.041323 68.000000,31.531342 
z"/>
<path fill="#FFFFFF" opacity="1.000000" stroke="none" 
	d="
M27.531338,1.000000 
	C19.024380,3.700721 11.068811,8.001794 6.233605,16.383898 
	C4.231366,19.854897 3.149961,23.857079 1.324889,27.808844 
	C1.000000,19.073568 1.000000,10.147137 1.000000,1.000000 
	C9.686316,1.000000 18.374496,1.000000 27.531338,1.000000 
z"/>
<path fill="#807FFE" opacity="1.000000" stroke="none" 
	d="
M25.468403,91.000000 
	C23.029037,90.144226 21.058075,89.288445 18.930033,88.364464 
	C24.530165,82.804214 44.462467,82.652611 51.417011,88.349533 
	C49.109291,89.116508 47.236378,89.738968 45.181732,90.680717 
	C38.645603,91.000000 32.291203,91.000000 25.468403,91.000000 
z"/>
</svg>