<?xml version="1.0" encoding="utf-8"?>
<!-- Generator: Adobe Illustrator 25.2.3, SVG Export Plug-In . SVG Version: 6.00 Build 0)  -->
<svg version="1.1" id="Layer_1" xmlns="http://www.w3.org/2000/svg" xmlns:xlink="http://www.w3.org/1999/xlink" x="0px" y="0px"
	 viewBox="0 0 137 100" style="enable-background:new 0 0 137 100;" xml:space="preserve">
<style type="text/css">
	.st0{display:none;fill-rule:evenodd;clip-rule:evenodd;fill:#6218FF;}
	.st1{display:none;fill:#FEFEFE;}
	.st2{fill:#807FFD;}
	.st3{fill:#8180FD;}
	.st4{display:none;}
	.st5{fill:#FEFEFE;}
	.st6{display:inline;fill:#8584FD;}
	.st7{display:inline;fill:#807FFD;}
</style>
<path class="st0" d="M62.4,1.3c-6.6-3.8-14.8,1-14.8,8.6c0,8.7,0,18.9,0,25.8l-2.1,2.7c-3.8,4.8-9.4,10.1-15.1,14.1
	c-1.3,0.9-2.2,1.7-2.2,1.7c0.2,0.2,5.1-2.3,7.4-3.8c5.3-3.3,9.5-6.8,18.4-15.3c6.6-6.3,9-8.4,10.9-9.7c3.6-2.4,6.3-2.3,7.7,0.3
	c0.9,1.7,1.2,3.6,1.1,8.7c-0.1,2.6-0.1,7.1-0.1,10c0,6.2,0.2,7.3,1.9,8.8c0.9,0.9,1.1,0.9,2.4,0.8c1.9-0.2,5.5-2.1,10.2-5.4
	c8.2-5.8,11.3-7.6,13.3-7.6c1.4,0,2.1,0.5,2.6,1.9c0.5,1.4,0.4,3.2-0.7,7.6c-0.4,1.8-0.8,3.9-0.8,4.7c0,1.3,0,1.5,0.7,2.1
	c0.7,0.6,0.9,0.6,2.6,0.5c1.3-0.1,2.5-0.4,4.2-1c1.3-0.5,2.3-0.8,2.3-0.8c0,0-0.9,0.8-2,1.8C102.6,64.2,98,66,96.6,63
	c-0.3-0.7-0.5-1.6-0.5-4.2c-0.1-4.4-0.1-4.4-1.1-4.4c-1.1,0-2.7,1-8,5c-8.4,6.2-12.5,8.7-16,9.5c-1.6,0.3-2.1,0.4-3.2,0.1
	c-1.4-0.3-1.8-0.6-2.5-2c-0.4-0.8-0.5-1.5-0.5-9.5c0-9.3-0.1-10.1-1.2-11.5c-2.1-2.5-5.8-1.2-19,6.6c-13.2,7.8-19.4,10.9-26.3,13.2
	c-5.8,1.9-8.6,2.3-12,2.5C3.9,68.3,0,67.8,0,67.8s5.9,1.5,8.2,1.9c5.2,0.8,10.8,0.4,14.2-0.2c5.6-1,10.9-2.7,20.5-6.6l4.6-1.8
	c0,9.7,0.1,19.4,0.1,29.1c0,7.6,8.2,12.3,14.8,8.5l69.7-40.2c6.6-3.8,6.6-13.3,0-17.1L62.4,1.3z"/>
<g>
	<path class="st1" d="M50.8,81.2c-6.7,0-13.3,0-20,0c-0.5,0-0.6-0.1-0.6-0.6c0-20.5,0-41.1,0-61.6c0-0.5,0.1-0.6,0.6-0.6
		c15.3,0,30.7,0,46,0c0.6,0,0.6,0.2,0.6,0.6c0,7.4,0,14.9,0,22.3c-0.1-0.1-0.1-0.1-0.2-0.2c-0.8-2.5-2.2-3.5-4.8-3.5
		c-4.4,0-8.7,0.1-13.1,0.2c-1.8,0-3.4,0.5-4.8,1.5c-2,1.5-3.4,3.4-4.1,5.8c-0.3,1-0.1,1.1,0.8,1.1c3.9,0.1,7.8,0.1,11.7,0.2
		c1.4,0,2.7,0,4.1,0c0.6,0,0.7,0.2,0.5,0.7c-0.8,1.9-1.8,3.6-3.3,5.1c-3.3,3.3-6.5,6.5-9.8,9.8c-0.4,0.5-0.7,0.5-1.1,0
		c-3.2-3.2-6.4-6.4-9.6-9.6c-3.6-3.6-4.9-8.1-4.1-13.1c1.1-6.6,7.2-11.7,13.8-11.8c4.2-0.1,7.7,1.3,10.7,4.2
		c1.6,1.5,3.8,1.8,5.6,0.6c2.7-1.7,2.8-5.1,0.2-7.5c-5.7-5.2-12.4-7.2-20-6c-10.7,1.7-19,11-19.5,21.8c-0.3,6.9,1.9,12.8,6.7,17.8
		c4.4,4.5,8.9,8.9,13.3,13.4c2,2,4.7,2,6.7,0c4.4-4.4,8.9-8.9,13.3-13.3c3.1-3.1,5.2-6.8,6.2-11.1c0.3-1.1,0.3-2.2,0.7-3.3
		c0,12.1,0,24.1,0,36.2c0,0.6-0.1,0.8-0.7,0.8c-6.3,0-12.7,0-19,0c0.8-0.3,1.7-0.2,2.5-0.3c1.5-0.2,3-0.4,4.5-1
		c0.3-0.1,0.6-0.3,0.6-0.6c0-0.4-0.3-0.6-0.7-0.7c-0.7-0.3-1.5-0.5-2.2-0.6c-4.6-0.8-9.3-0.8-14-0.3c-1.3,0.1-2.7,0.3-4,0.8
		c-0.4,0.2-0.9,0.3-0.9,0.8c0,0.5,0.5,0.6,0.9,0.8c0.9,0.4,1.9,0.5,2.8,0.7C48.3,80.9,49.6,80.8,50.8,81.2z"/>
	<path class="st2" d="M92.7,44.6c-0.4,1.1-0.4,2.2-0.7,3.3c-1,4.3-3.1,8-6.2,11.1c-4.4,4.4-8.9,8.9-13.3,13.3c-2,2-4.7,2-6.7,0
		c-4.5-4.5-8.9-8.9-13.3-13.4c-4.8-4.9-7.1-10.9-6.7-17.8c0.5-10.9,8.8-20.2,19.5-21.8c7.6-1.2,14.3,0.8,20,6
		c2.6,2.3,2.5,5.7-0.2,7.5c-1.8,1.1-4,0.9-5.6-0.6c-3-2.9-6.6-4.3-10.7-4.2c-6.7,0.1-12.7,5.2-13.8,11.8c-0.8,5,0.5,9.4,4.1,13.1
		c3.2,3.2,6.4,6.4,9.6,9.6c0.5,0.5,0.7,0.4,1.1,0c3.2-3.3,6.5-6.6,9.8-9.8c1.5-1.5,2.5-3.2,3.3-5.1c0.2-0.5,0.1-0.7-0.5-0.7
		c-1.4,0-2.7,0-4.1,0c-3.9-0.1-7.8-0.1-11.7-0.2c-1,0-1.1-0.2-0.8-1.1c0.7-2.4,2.1-4.3,4.1-5.8c1.4-1,3-1.5,4.8-1.5
		c4.4,0,8.7-0.1,13.1-0.2c2.6,0,4,1,4.8,3.5c0,0.1,0.1,0.1,0.2,0.2C92.7,42.7,92.7,43.7,92.7,44.6z"/>
	<path class="st3" d="M66.2,81.6c-1.2-0.4-2.4-0.3-3.6-0.5c-1-0.2-1.9-0.3-2.8-0.7c-0.4-0.2-0.9-0.3-0.9-0.8c0-0.5,0.5-0.6,0.9-0.8
		c1.3-0.5,2.6-0.7,4-0.8c4.7-0.5,9.3-0.5,14,0.3c0.8,0.1,1.5,0.3,2.2,0.6c0.3,0.1,0.7,0.3,0.7,0.7c0,0.4-0.4,0.5-0.6,0.6
		c-1.4,0.6-2.9,0.8-4.5,1c-0.8,0.1-1.7,0-2.5,0.3C70.7,81.6,68.5,81.6,66.2,81.6z"/>
</g>
<g class="st4">
	<path class="st5" d="M72,7.7c-24.6,0-49.3,0-73.9,0c-0.5,0-0.6-0.1-0.6-0.6c0-16.7,0-33.4,0-50c0-0.5,0.1-0.6,0.6-0.6
		c43.6,0,87.3,0,130.9,0c0.5,0,0.6,0.1,0.6,0.6c0,16.7,0,33.4,0,50c0,0.5-0.1,0.6-0.6,0.6c-18.6,0-37.2,0-55.8,0
		c0.1-0.2,0.3-0.4,0.3-0.8c0-0.4-0.4-0.5-0.6-0.7C73.4,6,74,5.7,74.2,5.1c0.1-0.2,0.3-0.4,0.1-0.5c-0.2-0.1-0.5-0.1-0.7,0.1
		c-0.1,0.1-0.1,0.2-0.2,0.3c-0.6,0.6-1.5,0.5-1.8-0.3c-0.3-0.9-0.3-1.8,0-2.6c0.2-0.8,1.3-0.9,1.8-0.3c0.1,0.1,0.1,0.2,0.2,0.3
		c0.2,0.3,0.5,0.2,0.7,0.1c0.3-0.1,0-0.4,0-0.5c-0.3-0.6-0.8-1-1.5-1C72,0.6,71.4,0.9,71,1.5c-0.5,0.8-0.5,3.2,0.1,4
		c0,0.1,0.1,0.2,0.2,0.2c0.7,0.3,1,0.9,1.5,1.3C72.5,7.3,71.8,7,72,7.7z M-2.5-29c0,6.4,1.6,10.3,4.8,13.4c3,3.1,6.1,6.1,9.2,9.2
		c1.4,1.4,3.2,1.4,4.6,0c3.2-3.1,6.3-6.3,9.4-9.5c2.9-3,4.4-6.6,4.6-10.8c0.1-2.2-1.5-3.7-3.6-3.5c-2.8,0.2-5.6,0.1-8.4,0.1
		c-3,0-5.4,1.7-6.5,4.5c-0.5,1.3-0.4,1.5,1,1.5C16-24,19.4-24,22.9-24c0.5,0,0.5,0.1,0.4,0.5c-0.4,1-0.9,2-1.7,2.8
		c-2.4,2.6-5,5-7.5,7.6c-0.3,0.4-0.5,0.1-0.7-0.1c-2.3-2.3-4.6-4.5-6.8-6.8c-2.9-3-3.7-6.6-2.2-10.5c2.6-6.9,11.2-8.8,16.5-3.7
		c1.3,1.3,3.3,1.3,4.5,0.1c1.2-1.3,1.2-3.2-0.2-4.5c-3.9-3.7-8.5-5.2-13.9-4.4C3.5-42-2.6-35-2.5-29z M76.4-30.2c0-2.5,0-5,0-7.5
		c0-1.6-1.1-3-2.7-3.3c-1-0.2-2.1,0-3.1-0.1c-0.6,0-0.8,0.1-0.8,0.8c0,7,0,13.9,0,20.9c0,1.2,0.1,2.4,0.3,3.6c0.4,2.7,1.5,5,4,6.4
		c3.5,2,7.3,2.7,11.4,2c3.8-0.7,6.4-2.8,7.7-6.5c1-2.6,1.2-5.3,1-8.1c-0.1-2.5-0.8-4.9-2-7.1c-2.3-3.9-6.2-5.7-10.6-4.8
		C79.4-33.2,77.7-32,76.4-30.2z M118.4-21.9c0-1.9,0-3.5,0-5.1c0-2.9-1.5-5.1-4.2-6.3c-1.3-0.6-2.7-0.9-4.2-1
		c-2.6-0.2-5.2-0.3-7.7,0.7c-2.6,1-4.4,2.8-5,5.6c-0.2,0.7-0.1,0.8,0.6,0.8c1.7,0,3.5,0,5.2,0c0.3,0,0.6,0,0.8-0.4
		c0.3-0.6,0.9-1,1.6-1.2c1.7-0.5,3.3-0.4,5,0.1c0.9,0.3,1.4,0.8,1.5,1.7c0.1,0.9-0.4,1.4-1.1,1.8c-1,0.6-2.1,0.7-3.2,0.9
		c-2.1,0.3-4.2,0.5-6.2,1.3c-2.3,0.9-4.2,2.2-4.7,4.8c-0.1,0.5-0.2,1-0.2,1.5c-0.2,4.3,1,7.2,5.3,8.5c3.3,1,6.7,0.7,9.9-0.3
		c3.9-1.2,6-3.9,6.5-8C118.5-18.2,118.3-20.2,118.4-21.9z M66.6-20.6c0.1-2.1-0.3-4.3-1.1-6.4c-1.3-3.4-3.6-5.7-7.2-6.6
		c-1.7-0.4-3.5-0.5-5.2-0.4c-4.5,0.3-8.3,3.2-9.5,7.5c-1.1,3.6-1.1,7.2-0.2,10.9c0.6,2.5,1.7,4.7,3.8,6.2c3.4,2.3,7.1,2.8,11,1.8
		c3.5-0.8,5.8-3,7.2-6.3C66.3-16,66.7-18.3,66.6-20.6z M122.1-23.9c0,5.4,0,10.7,0,16.1c0,0.5,0.1,0.7,0.6,0.7c1.8,0,3.7,0,5.5,0
		c0.5,0,0.6-0.1,0.6-0.6c0-9.9,0-19.7,0-29.6c0-1.6-1.1-2.9-2.7-3.2c-1.1-0.2-2.3,0-3.4-0.1c-0.6,0-0.7,0.2-0.7,0.7
		C122.1-34.5,122.1-29.2,122.1-23.9z M32.4-24.2c0,5.3,0,10.7,0,16c0,0.5,0.1,0.7,0.7,0.7c1.8,0,3.7,0,5.5,0c0.4,0,0.6-0.1,0.6-0.6
		c0-9.9,0-19.8,0-29.7c0-1.7-1.4-3.1-3.1-3.1c-1,0-2,0-2.9,0c-0.6,0-0.8,0.1-0.8,0.7C32.4-34.8,32.4-29.5,32.4-24.2z M14.3,0
		c1,0.1,2.3,0,3.5-0.1c1.1-0.1,2.2-0.2,3.2-0.6c0.3-0.1,0.6-0.2,0.6-0.6c0-0.4-0.4-0.5-0.6-0.6c-1.2-0.4-2.4-0.6-3.6-0.7
		c-2.6-0.2-5.2-0.2-7.7,0.1C8.9-2.3,8.1-2.2,7.3-1.9C7-1.8,6.6-1.7,6.6-1.3c0,0.5,0.5,0.5,0.8,0.6c0.2,0.1,0.5,0.2,0.7,0.2
		C10.1-0.1,12.1,0.1,14.3,0z M104.5,6.1c-0.3-0.6-0.6-1.2-0.9-1.8c-0.2-0.3-0.2-0.5,0.2-0.8c0.6-0.4,0.7-1.1,0.5-1.8
		c-0.2-0.7-0.7-1-1.4-1c-0.6,0-1.3,0-1.9,0c-0.3,0-0.4,0.1-0.4,0.4c0,1.6,0,3.1,0,4.7c0,0.3,0.1,0.4,0.4,0.4c0.3,0,0.4-0.2,0.4-0.4
		c0-0.5,0-0.9,0-1.4c0-0.3,0.1-0.5,0.5-0.5c0.5,0,0.8,0.1,1,0.6c0.1,0.4,0.4,0.7,0.5,1.1C103.5,6.1,103.8,6.3,104.5,6.1z M96.5,3.5
		C96.5,3.5,96.5,3.5,96.5,3.5c0-0.2,0-0.3,0-0.5c0-0.6,0-1.2,0.6-1.5c0.6-0.3,1.1,0,1.5,0.6c0.1,0.3,0.5,0.2,0.6,0.1
		c0.3-0.1,0.1-0.4,0-0.6c-0.4-0.7-1.2-1.1-2.1-1c-0.8,0.1-1.4,0.8-1.4,1.6c0,0.7,0,1.3,0,2c0,0.7,0.3,1.3,0.9,1.7
		c0.7,0.3,1.4,0.3,2-0.1c0.6-0.4,1.1-1.7,0.8-2.5c-0.2-0.5-0.8-0.2-1.3-0.2c-0.3,0-0.6-0.1-0.6,0.4c0,0.5,0.3,0.3,0.6,0.4
		c0.2,0,0.5-0.1,0.5,0.3c0,0.6-0.5,1.2-1.1,1.2c-0.6,0-1.1-0.4-1.1-1C96.5,4.1,96.5,3.8,96.5,3.5z M75.2,3.4c0,0.3,0,0.6,0,0.8
		c0,1.2,0.8,1.9,1.8,2c1.1,0,1.9-0.7,1.9-1.9c0-0.6,0-1.2,0-1.8c0-1.2-0.8-2-2-2c-1.1,0-1.8,0.7-1.8,2C75.2,2.9,75.2,3.2,75.2,3.4z
		 M80.1,3.4c0,0.8,0,1.5,0,2.3c0,0.4,0.1,0.5,0.5,0.5c0.9,0,1.7,0,2.6,0c0.2,0,0.4,0,0.4-0.3c0-0.3-0.1-0.4-0.4-0.4
		c-0.4,0-0.9,0-1.3,0c-1.1,0-1,0.2-1-1.1c0-0.4,0.1-0.6,0.6-0.5c0.4,0,0.8,0,1.2,0c0.3,0,0.5,0.1,0.5-0.4c0-0.5-0.3-0.4-0.6-0.4
		c-0.2,0-0.5,0-0.7,0c-1.2,0-1,0.2-1.1-1.1c0-0.4,0.1-0.5,0.5-0.5c0.6,0,1.2,0,1.8,0c0.3,0,0.5,0,0.5-0.4c0-0.4-0.2-0.4-0.5-0.4
		c-0.8,0-1.7,0-2.5,0c-0.4,0-0.5,0.1-0.5,0.5C80.1,1.9,80.1,2.7,80.1,3.4z M60.7,3.4c0-0.3,0-0.7,0-1c-0.1-1.1-0.8-1.7-1.8-1.8
		c-1.1,0-1.9,0.6-2,1.6c-0.1,0.7-0.1,1.5,0,2.2c0.1,1,0.9,1.7,1.9,1.7c1,0,1.8-0.7,1.9-1.8C60.7,4.1,60.7,3.8,60.7,3.4z M115.8,3.6
		c0-0.6,0-1-0.1-1.5c-0.2-0.9-0.8-1.4-1.7-1.4c-1,0-1.7,0.5-1.9,1.3c-0.2,0.9-0.2,1.8,0,2.6c0.2,1,0.9,1.6,1.9,1.6
		c0.9,0,1.6-0.6,1.9-1.6C115.8,4.3,115.8,3.9,115.8,3.6z M54.3,0.7c0,0-0.2,0-0.3,0c-0.8,0.1-1.4,0.6-1.4,1.4
		c-0.1,0.9,0.3,1.3,1.2,1.6c0.3,0.1,0.7,0.2,1,0.2c0.4,0.1,0.7,0.3,0.7,0.7c0,0.5-0.3,0.7-0.7,0.8c-0.6,0.2-1.2,0-1.7-0.3
		c-0.4-0.2-0.5,0-0.6,0.2c-0.2,0.3,0.1,0.4,0.2,0.5c0.8,0.5,1.7,0.6,2.6,0.2c0.6-0.2,0.9-0.7,0.9-1.4c0-0.7-0.3-1.1-0.9-1.3
		c-0.5-0.1-0.9-0.2-1.4-0.4c-0.4-0.1-0.6-0.3-0.6-0.7c0-0.4,0.3-0.7,0.7-0.7c0.5-0.1,1,0,1.4,0.2c0.3,0.2,0.4-0.1,0.6-0.2
		c0.2-0.3-0.1-0.3-0.2-0.4C55.3,0.8,54.9,0.6,54.3,0.7z M125.3,6.1c-0.6-1.7-1.2-3.4-1.9-5.1c-0.1-0.2-0.2-0.3-0.5-0.3
		c-0.3,0-0.4,0.2-0.4,0.4c-0.6,1.5-1.1,3.1-1.7,4.6c-0.2,0.4,0,0.4,0.3,0.4c0.3,0,0.4-0.2,0.5-0.4c0.1-0.7,0.5-0.9,1.1-0.8
		c0.2,0,0.5,0,0.7,0c0.5-0.1,0.7,0.1,0.8,0.6C124.4,6.1,124.7,6.3,125.3,6.1z M95.3,6.1c-0.6-1.7-1.2-3.3-1.8-5
		c-0.1-0.2-0.2-0.4-0.5-0.4c-0.3,0-0.4,0.2-0.5,0.5c-0.5,1.5-1.1,3-1.6,4.5c-0.1,0.2-0.4,0.4,0,0.5c0.3,0.1,0.7,0.1,0.7-0.3
		c0.1-0.8,0.6-1,1.3-0.9c0.2,0,0.4,0,0.6,0c0.5-0.1,0.7,0.1,0.8,0.6C94.4,6.1,94.7,6.3,95.3,6.1z M65.9,2.8
		C65.9,2.8,65.9,2.8,65.9,2.8c0,0.5,0,1,0,1.5c0,1.2,0.7,1.9,1.8,1.9c1.2,0,1.9-0.7,2-1.9c0-1.1,0-2.1,0-3.2c0-0.3,0-0.5-0.4-0.5
		C69,0.7,69,0.9,69,1.2c0,1,0,2,0,3c0,0.9-0.4,1.3-1.1,1.3c-0.8,0-1.1-0.4-1.1-1.3c0-1,0-2,0-3c0-0.3,0-0.5-0.4-0.5
		c-0.4,0-0.4,0.2-0.4,0.5C65.9,1.7,65.9,2.3,65.9,2.8z M86.4,0.7c-0.1,0-0.2,0-0.3,0c-0.9,0-1.5,0.6-1.6,1.4
		c-0.1,0.9,0.3,1.4,1.3,1.6c0.3,0.1,0.7,0.2,1,0.2c0.4,0.1,0.6,0.3,0.6,0.7c0,0.4-0.3,0.6-0.6,0.7c-0.6,0.2-1.2,0.1-1.7-0.2
		C84.7,5,84.6,5,84.4,5.3c-0.2,0.3,0,0.4,0.2,0.6c0.9,0.5,1.8,0.5,2.7,0.2c0.6-0.2,0.9-0.8,0.8-1.5c0-0.6-0.4-1-0.9-1.2
		c-0.5-0.1-1-0.2-1.4-0.4c-0.3-0.1-0.5-0.4-0.5-0.7c0-0.4,0.3-0.6,0.6-0.7c0.5-0.1,1-0.1,1.4,0.2c0.3,0.2,0.4,0,0.6-0.2
		c0.2-0.3-0.1-0.4-0.2-0.5C87.3,0.7,86.8,0.6,86.4,0.7z M127.6,0.7c-0.1,0-0.2,0-0.3,0c-0.9,0.1-1.5,0.6-1.6,1.3
		C125.6,3,126,3.4,127,3.7c0.4,0.1,0.8,0.2,1.1,0.3c0.3,0.1,0.5,0.3,0.5,0.7c0,0.4-0.2,0.6-0.5,0.7c-0.7,0.2-1.3,0.1-1.9-0.2
		c-0.3-0.2-0.4-0.1-0.6,0.1c-0.2,0.3,0,0.4,0.2,0.5c0.9,0.5,1.8,0.6,2.8,0.2c0.6-0.3,0.8-0.8,0.8-1.5c0-0.6-0.3-1-0.9-1.2
		c-0.4-0.1-0.9-0.2-1.3-0.4c-0.4-0.1-0.7-0.3-0.6-0.8c0.1-0.5,0.4-0.6,0.8-0.7c0.4,0,0.8,0,1.1,0.2c0.3,0.2,0.5,0.1,0.7-0.2
		c0.2-0.4-0.2-0.4-0.4-0.5C128.4,0.7,128,0.6,127.6,0.7z M107.4,3.4C107.4,3.4,107.4,3.4,107.4,3.4c0,0.4,0,0.7,0,1.1
		c0.1,0.9,0.6,1.5,1.4,1.7c0.8,0.2,1.6-0.2,2.1-0.9c0.1-0.2,0.3-0.5,0.1-0.6c-0.2-0.1-0.6-0.1-0.8,0.2c-0.2,0.5-0.7,0.6-1.1,0.5
		c-0.6-0.1-0.8-0.5-0.9-1c0-0.6-0.1-1.3,0-2c0.1-0.8,0.7-1.2,1.4-1c0.3,0.1,0.5,0.3,0.7,0.6c0.2,0.3,0.5,0.3,0.7,0.2
		c0.3-0.1,0.1-0.4,0-0.6c-0.4-0.7-1.1-1.1-2-1c-0.7,0.1-1.3,0.6-1.5,1.4C107.4,2.5,107.5,3,107.4,3.4z M61.8,3.5c0,0.7,0,1.5,0,2.2
		c0,0.3,0,0.5,0.4,0.5c0.9,0,1.8,0,2.7,0c0.3,0,0.4-0.1,0.4-0.4c0-0.3-0.1-0.4-0.4-0.4c-0.6,0-1.1,0-1.7,0c-0.4,0-0.6-0.1-0.6-0.6
		c0-1.2,0-2.4,0-3.6c0-0.3,0-0.5-0.4-0.5c-0.4,0-0.4,0.2-0.4,0.5C61.8,2,61.8,2.7,61.8,3.5z M116.8,3.4c0,0.7,0,1.5,0,2.2
		c0,0.4,0.1,0.5,0.5,0.5c0.8,0,1.7,0,2.5,0c0.3,0,0.5,0,0.5-0.4c0-0.3-0.2-0.4-0.5-0.4c-0.6,0-1.2,0-1.8,0c-0.4,0-0.5-0.1-0.5-0.5
		c0-1.2,0-2.4,0-3.6c0-0.3,0.1-0.6-0.4-0.6c-0.5,0-0.4,0.3-0.4,0.6C116.8,2,116.8,2.7,116.8,3.4z M106.3,3.5c0-0.8,0-1.5,0-2.3
		c0-0.3,0-0.5-0.4-0.5c-0.4,0-0.4,0.2-0.4,0.5c0,1.5,0,3,0,4.5c0,0.3,0,0.5,0.4,0.5c0.4,0,0.4-0.2,0.4-0.5
		C106.3,5,106.3,4.2,106.3,3.5z M77.7,0.3c0.6,0,0.8-0.3,0.8-0.8c0-0.4-0.3-0.4-0.4-0.2c-0.4,0.6-0.8,0.2-1.2,0
		c-0.6-0.2-1,0-1.2,0.5c0,0.1-0.1,0.3,0.1,0.4c0.1,0.1,0.4,0.1,0.4,0c0.3-0.6,0.6-0.2,1-0.1C77.3,0.3,77.5,0.3,77.7,0.3z M105.9,0.3
		c0.2,0,1-0.7,1-0.8c0-0.1,0-0.1-0.1-0.2c-0.1-0.1-0.3-0.4-0.5-0.2c-0.2,0.3-0.8,0.4-0.7,0.9C105.7,0.1,105.8,0.2,105.9,0.3z"/>
	<path class="st6" d="M77.2,80.4C77,79.7,77.7,80,78,79.7c-0.5-0.4-0.8-1.1-1.5-1.3c-0.1,0-0.1-0.1-0.2-0.2c-0.5-0.8-0.6-3.2-0.1-4
		c0.4-0.6,1-0.9,1.7-0.8c0.7,0.1,1.2,0.4,1.5,1c0.1,0.2,0.3,0.4,0,0.5c-0.2,0.1-0.5,0.1-0.7-0.1c-0.1-0.1-0.1-0.2-0.2-0.3
		c-0.5-0.6-1.6-0.5-1.8,0.3c-0.3,0.9-0.3,1.8,0,2.6c0.2,0.8,1.2,1,1.8,0.3c0.1-0.1,0.1-0.2,0.2-0.3c0.2-0.3,0.5-0.2,0.7-0.1
		c0.2,0.1,0,0.3-0.1,0.5c-0.2,0.6-0.8,0.9-1.4,1.1c0.2,0.2,0.6,0.3,0.6,0.7c0,0.3-0.2,0.5-0.3,0.8C78,80.4,77.6,80.4,77.2,80.4z"/>
	<path class="st7" d="M2.7,43.7c-0.1-6.1,6-13,13.8-14.1c5.3-0.8,10,0.7,13.9,4.4c1.4,1.3,1.4,3.2,0.2,4.5c-1.2,1.2-3.2,1.2-4.5-0.1
		c-5.3-5.1-13.9-3.2-16.5,3.7c-1.5,3.9-0.6,7.5,2.2,10.5c2.2,2.3,4.5,4.6,6.8,6.8c0.2,0.2,0.4,0.5,0.7,0.1c2.5-2.5,5.1-4.9,7.5-7.6
		c0.7-0.8,1.2-1.8,1.7-2.8c0.2-0.4,0.1-0.5-0.4-0.5c-3.4,0-6.9-0.1-10.3-0.1c-1.4,0-1.5-0.2-1-1.5c1.1-2.8,3.5-4.4,6.5-4.5
		c2.8,0,5.6,0.1,8.4-0.1c2.1-0.1,3.7,1.4,3.6,3.5c-0.2,4.2-1.6,7.8-4.6,10.8c-3.1,3.2-6.3,6.3-9.4,9.5c-1.4,1.4-3.2,1.4-4.6,0
		c-3.1-3.1-6.1-6.1-9.2-9.2C4.4,54,2.8,50.2,2.7,43.7z"/>
	<path class="st7" d="M81.6,42.5c1.3-1.8,3-3,5.2-3.5c4.4-0.9,8.3,0.9,10.6,4.8c1.3,2.2,1.9,4.6,2,7.1c0.2,2.8-0.1,5.4-1,8.1
		c-1.3,3.6-3.9,5.8-7.7,6.5c-4,0.7-7.8,0.1-11.4-2c-2.5-1.4-3.6-3.7-4-6.4C75,55.8,75,54.6,75,53.4c0-7,0-13.9,0-20.9
		c0-0.7,0.2-0.9,0.8-0.8c1,0.1,2.1-0.1,3.1,0.1c1.6,0.3,2.7,1.6,2.7,3.3C81.6,37.5,81.6,40,81.6,42.5z M92.7,52.3
		c0-1.7-0.2-3.4-1.1-5c-1-1.8-2.5-2.7-4.5-2.7c-2.2,0.1-3.9,1.1-4.7,3.2c-1.1,2.9-1.1,5.9-0.1,8.8c0.7,2.1,2.1,3.3,4.3,3.5
		c2.4,0.2,4.2-0.8,5.2-2.9C92.5,55.6,92.7,53.9,92.7,52.3z"/>
	<path class="st7" d="M123.7,50.8c-0.1,1.6,0.1,3.6-0.1,5.7c-0.4,4.1-2.6,6.8-6.5,8c-3.3,1-6.6,1.3-9.9,0.3
		c-4.3-1.3-5.6-4.3-5.3-8.5c0-0.5,0.1-1,0.2-1.5c0.6-2.6,2.4-3.9,4.7-4.8c2-0.8,4.1-1,6.2-1.3c1.1-0.2,2.2-0.4,3.2-0.9
		c0.7-0.4,1.2-1,1.1-1.8c-0.1-0.8-0.6-1.4-1.5-1.7c-1.7-0.5-3.3-0.6-5-0.1c-0.7,0.2-1.2,0.6-1.6,1.2c-0.2,0.3-0.4,0.4-0.8,0.4
		c-1.7,0-3.5,0-5.2,0c-0.8,0-0.8,0-0.6-0.8c0.7-2.8,2.4-4.6,5-5.6c2.5-1,5.1-0.9,7.7-0.7c1.4,0.1,2.8,0.4,4.2,1
		c2.7,1.1,4.2,3.3,4.2,6.3C123.7,47.3,123.7,48.9,123.7,50.8z M117.4,53.4c0-0.1,0-0.2,0-0.3c0-1.2,0-1.2-1.1-0.8
		c-0.1,0-0.2,0.1-0.4,0.1c-1.6,0.6-3.3,0.8-5,1.3c-1.3,0.4-2.3,0.9-2.7,2.4c-0.4,1.5,0.2,3.1,1.4,3.6c2.2,1,5.5,0,6.8-2
		C117.3,56.4,117.4,54.9,117.4,53.4z"/>
	<path class="st7" d="M71.9,52.1c0,2.4-0.3,4.6-1.2,6.7c-1.4,3.3-3.7,5.4-7.2,6.3c-3.9,1-7.6,0.5-11-1.8c-2.2-1.5-3.3-3.7-3.8-6.2
		c-0.8-3.6-0.8-7.3,0.2-10.9c1.3-4.3,5-7.3,9.5-7.5c1.8-0.1,3.5-0.1,5.2,0.4c3.6,0.9,5.8,3.3,7.2,6.6C71.6,47.8,71.9,49.9,71.9,52.1
		z M54.6,51.8c0.1,0.9,0.2,2,0.3,3.1c0.1,0.7,0.3,1.3,0.5,2c0.8,2.1,2.6,3.4,4.9,3.3c1.9-0.1,3.6-1.5,4.3-3.5
		c0.8-2.3,0.9-4.6,0.6-6.9c-0.2-1.2-0.5-2.3-1.3-3.3c-2.1-2.9-6.3-2.7-8.1,0.4C54.9,48.2,54.7,49.9,54.6,51.8z"/>
	<path class="st7" d="M127.3,48.8c0-5.3,0-10.7,0-16c0-0.6,0.1-0.8,0.7-0.7c1.1,0.1,2.3-0.1,3.4,0.1c1.6,0.3,2.7,1.6,2.7,3.2
		c0,9.9,0,19.7,0,29.6c0,0.5-0.2,0.6-0.6,0.6c-1.8,0-3.7,0-5.5,0c-0.5,0-0.6-0.2-0.6-0.7C127.3,59.6,127.3,54.2,127.3,48.8z"/>
	<path class="st7" d="M37.6,48.5c0-5.3,0-10.6,0-16c0-0.6,0.2-0.8,0.8-0.7c1,0,2,0,2.9,0c1.7,0,3.1,1.4,3.1,3.1c0,9.9,0,19.8,0,29.7
		c0,0.5-0.2,0.6-0.6,0.6c-1.8,0-3.7,0-5.5,0c-0.6,0-0.7-0.2-0.7-0.7C37.6,59.2,37.6,53.8,37.6,48.5z"/>
	<path class="st7" d="M19.6,72.7c-2.2,0-4.3-0.1-6.3-0.5c-0.2,0-0.5-0.1-0.7-0.2c-0.3-0.1-0.8-0.2-0.8-0.6c0-0.4,0.4-0.5,0.8-0.6
		c0.8-0.3,1.6-0.4,2.3-0.5c2.6-0.3,5.2-0.4,7.7-0.1c1.2,0.1,2.5,0.2,3.6,0.7c0.3,0.1,0.6,0.2,0.6,0.6c0,0.4-0.3,0.5-0.6,0.6
		c-1,0.4-2.1,0.5-3.2,0.6C21.8,72.7,20.6,72.8,19.6,72.7z"/>
	<path class="st6" d="M109.7,78.8c-0.6,0.2-1,0-1.2-0.5c-0.1-0.4-0.4-0.7-0.5-1.1c-0.2-0.5-0.5-0.6-1-0.6c-0.4,0-0.5,0.2-0.5,0.5
		c0,0.5,0,0.9,0,1.4c0,0.3,0,0.4-0.4,0.4c-0.3,0-0.4-0.1-0.4-0.4c0-1.6,0-3.1,0-4.7c0-0.3,0.1-0.4,0.4-0.4c0.6,0,1.3,0,1.9,0
		c0.6,0,1.2,0.3,1.4,1c0.2,0.7,0.1,1.4-0.5,1.8c-0.4,0.3-0.3,0.5-0.2,0.8C109.1,77.6,109.4,78.2,109.7,78.8z M107.4,75.8
		c0.1,0,0.2,0,0.3,0c0.7,0,1-0.3,1-0.9c0-0.6-0.3-0.8-1-0.8c-0.3,0-0.5,0-0.8,0c-0.1,0-0.3,0-0.3,0.1c0,0.5-0.1,1,0,1.4
		C106.7,76,107.2,75.8,107.4,75.8z"/>
	<path class="st6" d="M101.7,76.2c0,0.3,0,0.7,0,1c0.1,0.6,0.6,1,1.1,1c0.6,0,1.1-0.6,1.1-1.2c0-0.4-0.3-0.3-0.5-0.3
		c-0.3,0-0.6,0.1-0.6-0.4c0-0.4,0.3-0.4,0.6-0.4c0.4,0.1,1-0.3,1.3,0.2c0.3,0.7-0.1,2-0.8,2.5c-0.7,0.4-1.4,0.4-2,0.1
		c-0.7-0.3-1-0.9-0.9-1.7c0-0.7,0-1.3,0-2c0.1-0.8,0.7-1.5,1.4-1.6c0.9-0.2,1.7,0.2,2.1,1c0.1,0.2,0.3,0.4,0,0.6
		c-0.2,0.1-0.5,0.2-0.6-0.1c-0.3-0.6-0.8-0.9-1.5-0.6c-0.7,0.3-0.7,0.9-0.6,1.5C101.7,75.9,101.7,76,101.7,76.2
		C101.7,76.2,101.7,76.2,101.7,76.2z"/>
	<path class="st6" d="M80.4,76.1c0-0.3,0-0.5,0-0.8c0-1.2,0.7-2,1.8-2c1.2,0,1.9,0.7,2,2c0,0.6,0,1.2,0,1.8
		c-0.1,1.1-0.9,1.9-1.9,1.9c-1.1,0-1.8-0.8-1.8-2C80.4,76.7,80.4,76.4,80.4,76.1z M81.2,76.1c0,0.3,0,0.6,0,0.9c0,0.7,0.4,1.1,1,1.1
		c0.6,0,1.1-0.3,1.2-1c0.1-0.7,0.1-1.4,0-2.1c-0.1-0.7-0.6-1-1.2-1c-0.6,0-0.9,0.4-0.9,1.1C81.2,75.5,81.2,75.8,81.2,76.1z"/>
	<path class="st6" d="M85.3,76.1c0-0.7,0-1.5,0-2.2c0-0.4,0.1-0.5,0.5-0.5c0.8,0,1.7,0,2.5,0c0.3,0,0.5,0,0.5,0.4
		c0,0.4-0.2,0.4-0.5,0.4c-0.6,0-1.2,0-1.8,0c-0.4,0-0.5,0.1-0.5,0.5c0,1.3-0.1,1.1,1.1,1.1c0.2,0,0.5,0,0.7,0c0.3,0,0.6-0.1,0.6,0.4
		c0,0.4-0.3,0.4-0.5,0.4c-0.4,0-0.8,0-1.2,0c-0.4,0-0.6,0.1-0.6,0.5c0,1.3-0.1,1,1,1.1c0.4,0,0.9,0,1.3,0c0.3,0,0.4,0.1,0.4,0.4
		c0,0.3-0.2,0.3-0.4,0.3c-0.9,0-1.7,0-2.6,0c-0.4,0-0.5-0.1-0.5-0.5C85.3,77.6,85.3,76.9,85.3,76.1z"/>
	<path class="st6" d="M66,76.1c0,0.3,0,0.7,0,1c-0.1,1-0.8,1.8-1.9,1.8c-1,0-1.8-0.7-1.9-1.7c-0.1-0.7-0.1-1.5,0-2.2
		c0.1-1,0.9-1.7,2-1.6c1,0,1.7,0.7,1.8,1.8C66,75.5,66,75.8,66,76.1z M65.2,76.1c0-0.3,0-0.7,0-1c0-0.6-0.4-1-1-1
		c-0.6,0-1.1,0.2-1.2,0.9c-0.1,0.7-0.1,1.5,0,2.3c0.1,0.6,0.6,0.9,1.1,0.9c0.6,0,1-0.5,1-1.1C65.2,76.8,65.2,76.5,65.2,76.1z"/>
	<path class="st6" d="M121,76.3c0,0.3,0,0.7-0.1,1.1c-0.2,1-0.9,1.6-1.9,1.6c-0.9,0-1.7-0.6-1.9-1.6c-0.2-0.9-0.2-1.8,0-2.6
		c0.2-0.9,0.9-1.4,1.9-1.3c0.9,0,1.6,0.6,1.7,1.4C121,75.3,121,75.7,121,76.3z M120.2,76.1c0-0.4,0-0.8-0.1-1.2
		c-0.1-0.5-0.5-0.7-1-0.7c-0.5,0-0.9,0.1-1.1,0.6c-0.2,0.9-0.2,1.8,0,2.6c0.1,0.5,0.5,0.7,1,0.7c0.5,0,0.9-0.2,1-0.7
		C120.3,77,120.2,76.6,120.2,76.1z"/>
	<path class="st6" d="M59.5,73.4c0.6,0,1,0.1,1.4,0.3c0.2,0.1,0.4,0.1,0.2,0.4c-0.1,0.2-0.3,0.4-0.6,0.2c-0.4-0.3-0.9-0.3-1.4-0.2
		c-0.4,0.1-0.7,0.3-0.7,0.7c0,0.4,0.2,0.6,0.6,0.7c0.5,0.1,0.9,0.2,1.4,0.4c0.6,0.2,0.9,0.6,0.9,1.3c0,0.7-0.3,1.2-0.9,1.4
		c-0.9,0.4-1.8,0.3-2.6-0.2c-0.2-0.1-0.5-0.2-0.2-0.5c0.1-0.2,0.3-0.4,0.6-0.2c0.5,0.3,1.1,0.4,1.7,0.3c0.4-0.1,0.7-0.3,0.7-0.8
		c0-0.5-0.3-0.6-0.7-0.7c-0.3-0.1-0.7-0.1-1-0.2c-0.9-0.2-1.2-0.7-1.2-1.6c0.1-0.8,0.6-1.3,1.4-1.4C59.3,73.4,59.5,73.4,59.5,73.4z"
		/>
	<path class="st6" d="M130.6,78.8c-0.6,0.2-0.9,0-1-0.5c-0.1-0.4-0.3-0.6-0.8-0.6c-0.2,0-0.5,0-0.7,0c-0.6-0.1-1,0.1-1.1,0.8
		c0,0.3-0.2,0.4-0.5,0.4c-0.3,0-0.5,0-0.3-0.4c0.6-1.5,1.1-3.1,1.7-4.6c0.1-0.2,0.2-0.4,0.4-0.4c0.2,0,0.4,0.1,0.5,0.3
		C129.3,75.4,129.9,77.1,130.6,78.8z M127.4,76.9c0.5,0,0.9,0,1.2,0c0.3,0,0.4-0.1,0.3-0.4c-0.2-0.6-0.4-1.2-0.7-2
		C128,75.4,127.7,76.1,127.4,76.9z"/>
	<path class="st6" d="M100.5,78.8c-0.6,0.2-0.9,0-1-0.6c-0.1-0.4-0.3-0.6-0.8-0.6c-0.2,0-0.4,0-0.6,0c-0.7-0.1-1.2,0.1-1.3,0.9
		c-0.1,0.4-0.4,0.4-0.7,0.3c-0.4-0.1-0.1-0.4,0-0.5c0.5-1.5,1.1-3,1.6-4.5c0.1-0.2,0.1-0.4,0.5-0.5c0.3,0,0.4,0.2,0.5,0.4
		C99.3,75.4,99.9,77.1,100.5,78.8z M98.3,74.5c-0.2,0.5-0.3,0.9-0.5,1.3c-0.4,1.2-0.4,1.2,0.8,1.1c0.3,0,0.4-0.2,0.3-0.4
		C98.7,75.9,98.5,75.3,98.3,74.5z"/>
	<path class="st6" d="M71.2,75.5c0-0.5,0-1.1,0-1.6c0-0.3,0-0.5,0.4-0.5c0.4,0,0.4,0.2,0.4,0.5c0,1,0,2,0,3c0,0.9,0.3,1.3,1.1,1.3
		c0.8,0,1.1-0.4,1.1-1.3c0-1,0-2,0-3c0-0.3,0-0.5,0.4-0.5c0.4,0,0.4,0.2,0.4,0.5c0,1.1,0,2.1,0,3.2c0,1.2-0.8,1.9-2,1.9
		c-1.1,0-1.8-0.8-1.8-1.9C71.2,76.5,71.2,76,71.2,75.5C71.2,75.5,71.2,75.5,71.2,75.5z"/>
	<path class="st6" d="M91.6,73.4c0.5,0,0.9,0.1,1.3,0.3c0.2,0.1,0.5,0.2,0.2,0.5c-0.1,0.2-0.3,0.4-0.6,0.2c-0.4-0.3-1-0.3-1.4-0.2
		c-0.3,0.1-0.6,0.3-0.6,0.7c0,0.4,0.2,0.6,0.5,0.7c0.5,0.1,1,0.2,1.4,0.4c0.6,0.2,0.9,0.5,0.9,1.2c0,0.8-0.2,1.3-0.8,1.5
		c-0.9,0.4-1.8,0.3-2.7-0.2c-0.2-0.1-0.4-0.3-0.2-0.6c0.2-0.2,0.3-0.3,0.6-0.1c0.5,0.3,1.1,0.4,1.7,0.2c0.4-0.1,0.6-0.3,0.6-0.7
		c0-0.4-0.2-0.6-0.6-0.7c-0.3-0.1-0.7-0.2-1-0.2c-1-0.2-1.4-0.7-1.3-1.6c0.1-0.8,0.7-1.3,1.6-1.4C91.4,73.4,91.5,73.4,91.6,73.4z"/>
	<path class="st6" d="M132.8,73.4c0.4,0,0.8,0,1.2,0.2c0.2,0.1,0.6,0.1,0.4,0.5c-0.2,0.3-0.4,0.4-0.7,0.2c-0.3-0.2-0.7-0.2-1.1-0.2
		c-0.4,0-0.8,0.2-0.8,0.7c-0.1,0.5,0.2,0.7,0.6,0.8c0.4,0.1,0.9,0.2,1.3,0.4c0.6,0.2,0.9,0.6,0.9,1.2c0,0.7-0.2,1.2-0.8,1.5
		c-0.9,0.4-1.9,0.3-2.8-0.2c-0.2-0.1-0.4-0.3-0.2-0.5c0.2-0.2,0.3-0.3,0.6-0.1c0.6,0.4,1.2,0.5,1.9,0.2c0.3-0.1,0.5-0.4,0.5-0.7
		c0-0.4-0.2-0.6-0.5-0.7c-0.4-0.1-0.8-0.2-1.1-0.3c-1-0.3-1.3-0.7-1.2-1.7c0.1-0.8,0.7-1.3,1.6-1.3
		C132.6,73.4,132.7,73.4,132.8,73.4z"/>
	<path class="st6" d="M112.7,76.1c0-0.4,0-0.9,0.1-1.3c0.2-0.8,0.8-1.3,1.5-1.4c0.9-0.1,1.6,0.2,2,1c0.1,0.2,0.3,0.4,0,0.6
		c-0.2,0.1-0.5,0.1-0.7-0.2c-0.2-0.3-0.4-0.5-0.7-0.6c-0.7-0.2-1.3,0.2-1.4,1c-0.1,0.6,0,1.3,0,2c0,0.5,0.3,0.9,0.9,1
		c0.5,0.1,0.9-0.1,1.1-0.5c0.2-0.4,0.5-0.4,0.8-0.2c0.3,0.2,0,0.4-0.1,0.6c-0.4,0.7-1.2,1.1-2.1,0.9c-0.8-0.2-1.3-0.8-1.4-1.7
		C112.7,76.8,112.7,76.5,112.7,76.1C112.7,76.1,112.7,76.1,112.7,76.1z"/>
	<path class="st6" d="M67.1,76.2c0-0.8,0-1.5,0-2.3c0-0.3,0-0.5,0.4-0.5c0.4,0,0.4,0.2,0.4,0.5c0,1.2,0,2.4,0,3.6
		c0,0.4,0.1,0.6,0.6,0.6c0.6,0,1.1,0,1.7,0c0.3,0,0.4,0.1,0.4,0.4c0,0.3-0.1,0.4-0.4,0.4c-0.9,0-1.8,0-2.7,0c-0.4,0-0.4-0.2-0.4-0.5
		C67.1,77.6,67.1,76.9,67.1,76.2z"/>
	<path class="st6" d="M122.1,76.1c0-0.7,0-1.4,0-2.1c0-0.3-0.1-0.6,0.4-0.6c0.5,0,0.4,0.3,0.4,0.6c0,1.2,0,2.4,0,3.6
		c0,0.4,0.1,0.5,0.5,0.5c0.6,0,1.2,0,1.8,0c0.3,0,0.4,0.1,0.5,0.4c0,0.4-0.2,0.4-0.5,0.4c-0.8,0-1.7,0-2.5,0c-0.4,0-0.5-0.2-0.5-0.5
		C122.1,77.6,122.1,76.9,122.1,76.1z"/>
	<path class="st6" d="M111.5,76.2c0,0.7,0,1.5,0,2.2c0,0.3,0,0.5-0.4,0.5c-0.4,0-0.4-0.2-0.4-0.5c0-1.5,0-3,0-4.5
		c0-0.3,0-0.5,0.4-0.5c0.4,0,0.4,0.2,0.4,0.5C111.5,74.7,111.5,75.4,111.5,76.2z"/>
	<path class="st6" d="M82.9,73c-0.1,0-0.3,0-0.5-0.1c-0.3-0.2-0.7-0.5-1,0.1c-0.1,0.1-0.3,0.1-0.4,0c-0.2-0.1-0.1-0.3-0.1-0.4
		c0.1-0.5,0.6-0.7,1.2-0.5c0.4,0.1,0.8,0.6,1.2,0c0.1-0.1,0.4-0.1,0.4,0.2C83.7,72.7,83.5,73,82.9,73z"/>
	<path class="st6" d="M111.1,73c-0.1-0.1-0.2-0.1-0.2-0.2c-0.1-0.5,0.5-0.6,0.7-0.9c0.2-0.3,0.4,0,0.5,0.2c0,0,0.1,0.1,0.1,0.2
		C112.2,72.3,111.3,73,111.1,73z"/>
	<path class="st5" d="M92.7,52.3c0,1.7-0.2,3.3-0.9,4.9c-1,2.1-2.8,3.1-5.2,2.9c-2.2-0.2-3.7-1.4-4.3-3.5c-0.9-2.9-1-5.9,0.1-8.8
		c0.8-2.1,2.5-3.1,4.7-3.2c2,0,3.5,0.9,4.5,2.7C92.5,48.8,92.8,50.5,92.7,52.3z"/>
	<path class="st5" d="M117.4,53.4c0,1.5-0.1,3-0.9,4.3c-1.3,2.1-4.6,3-6.8,2c-1.2-0.6-1.8-2.1-1.4-3.6c0.4-1.4,1.4-2,2.7-2.4
		c1.6-0.5,3.4-0.7,5-1.3c0.1,0,0.2-0.1,0.4-0.1c1.1-0.4,1.1-0.4,1.1,0.8C117.4,53.2,117.4,53.3,117.4,53.4z"/>
	<path class="st5" d="M54.6,51.8c0.1-1.9,0.2-3.5,1.1-5c1.8-3.1,6-3.3,8.1-0.4c0.7,1,1.1,2.1,1.3,3.3c0.3,2.4,0.2,4.7-0.6,6.9
		c-0.7,2-2.4,3.4-4.3,3.5c-2.3,0.1-4.1-1.2-4.9-3.3c-0.2-0.6-0.4-1.3-0.5-2C54.8,53.7,54.7,52.6,54.6,51.8z"/>
	<path class="st5" d="M107.4,75.8c-0.2-0.1-0.7,0.2-0.8-0.2c-0.1-0.4,0-0.9,0-1.4c0-0.1,0.2-0.1,0.3-0.1c0.3,0,0.5,0,0.8,0
		c0.7,0,1,0.3,1,0.8c0,0.6-0.4,0.9-1,0.9C107.6,75.8,107.5,75.8,107.4,75.8z"/>
	<path class="st5" d="M81.2,76.1c0-0.3,0-0.6,0-0.8c0-0.7,0.4-1.1,0.9-1.1c0.7-0.1,1.2,0.3,1.2,1c0.1,0.7,0.1,1.4,0,2.1
		c-0.1,0.6-0.6,1-1.2,1c-0.6,0-1-0.5-1-1.1C81.2,76.7,81.2,76.4,81.2,76.1z"/>
	<path class="st5" d="M65.2,76.1c0,0.3,0,0.7,0,1c0,0.6-0.5,1-1,1.1c-0.5,0-1-0.3-1.1-0.9c-0.1-0.7-0.1-1.5,0-2.3
		c0.1-0.6,0.5-0.9,1.2-0.9c0.6,0,0.9,0.4,1,1C65.2,75.5,65.2,75.8,65.2,76.1z"/>
	<path class="st5" d="M120.2,76.1c0,0.5,0,0.9-0.1,1.3c-0.2,0.5-0.6,0.7-1,0.7c-0.5,0-0.9-0.2-1-0.7c-0.2-0.9-0.2-1.8,0-2.6
		c0.1-0.5,0.6-0.7,1.1-0.6c0.5,0,0.8,0.2,1,0.7C120.3,75.3,120.2,75.7,120.2,76.1z"/>
	<path class="st5" d="M127.4,76.9c0.3-0.8,0.5-1.5,0.8-2.4c0.3,0.8,0.5,1.4,0.7,2c0.1,0.3,0,0.4-0.3,0.4
		C128.3,76.9,127.9,76.9,127.4,76.9z"/>
	<path class="st5" d="M98.3,74.5c0.3,0.7,0.5,1.4,0.7,2c0.1,0.3,0,0.4-0.3,0.4c-1.2,0.1-1.2,0.1-0.8-1.1
		C97.9,75.4,98.1,75.1,98.3,74.5z"/>
</g>
</svg>
