<svg width="74" height="48" viewBox="0 0 74 48" fill="none" xmlns="http://www.w3.org/2000/svg">
<g id="Icon">
<rect id="BASE" x="1" y="1" width="72" height="46" rx="23" stroke="#F5F5F5" stroke-width="2"/>
<g id="Mastercard">
<path id="Left" fill-rule="evenodd" clip-rule="evenodd" d="M36.9206 36.1777C34.0692 38.5611 30.3705 40 26.3288 40C17.3106 40 10 32.8366 10 24C10 15.1634 17.3106 8 26.3288 8C30.3705 8 34.0692 9.43886 36.9206 11.8223C39.7719 9.43886 43.4707 8 47.5124 8C56.5305 8 63.8411 15.1634 63.8411 24C63.8411 32.8366 56.5305 40 47.5124 40C43.4707 40 39.7719 38.5611 36.9206 36.1777Z" fill="#ED0006"/>
<path id="Right" fill-rule="evenodd" clip-rule="evenodd" d="M36.918 36.1761C40.4277 33.2414 42.653 28.8753 42.653 24C42.653 19.1247 40.4277 14.7586 36.918 11.8239C39.7696 9.43951 43.4691 8 47.5117 8C56.5298 8 63.8405 15.1634 63.8405 24C63.8405 32.8366 56.5298 40 47.5117 40C43.4691 40 39.7696 38.5605 36.918 36.1761Z" fill="#F9A000"/>
<path id="Middle" fill-rule="evenodd" clip-rule="evenodd" d="M36.9245 36.1776C33.4137 33.243 31.1875 28.8762 31.1875 24C31.1875 19.1237 33.4137 14.757 36.9245 11.8223C40.4353 14.757 42.6614 19.1237 42.6614 24C42.6614 28.8762 40.4353 33.243 36.9245 36.1776Z" fill="#FF5E00"/>
</g>
</g>
</svg>
