<svg version="1.1" id="Layer_1" xmlns="http://www.w3.org/2000/svg" xmlns:xlink="http://www.w3.org/1999/xlink" x="0px" y="0px" viewBox="0 0 512 512" style="enable-background:new 0 0 512 512;" xml:space="preserve">
<g>
	<g>
		<g>
			<path style="fill:#BC9AF4;" d="M462.697,501.463H327.068c-21.706,0-39.303-17.597-39.303-39.303v-135.64&#10;&#9;&#9;&#9;&#9;c0-21.706,17.597-39.303,39.303-39.303h135.629c21.706,0,39.303,17.597,39.303,39.303v135.64&#10;&#9;&#9;&#9;&#9;C502,483.867,484.403,501.463,462.697,501.463z"/>
			<path style="fill:#6864F7;" d="M354.323,353.535c0-23.83,5.603-46.351,15.561-66.318h-42.769&#10;&#9;&#9;&#9;&#9;c-21.733,0-39.351,17.619-39.351,39.353v135.54c0,21.734,17.618,39.353,39.351,39.353h135.533c4.187,0,8.22-0.654,12.005-1.866&#10;&#9;&#9;&#9;&#9;C406.094,486.325,354.323,425.976,354.323,353.535z"/>
		</g>
		<g>
			<path style="fill:#67CCD1;" d="M462.697,224.782H327.068c-21.706,0-39.303-17.597-39.303-39.303V49.84&#10;&#9;&#9;&#9;&#9;c0-21.706,17.597-39.303,39.303-39.303h135.629C484.403,10.537,502,28.133,502,49.84v135.64&#10;&#9;&#9;&#9;&#9;C502,207.186,484.403,224.782,462.697,224.782z"/>
			<path style="fill:#27A2CC;" d="M354.323,76.855c0-23.83,5.603-46.351,15.561-66.318h-42.769&#10;&#9;&#9;&#9;&#9;c-21.733,0-39.351,17.619-39.351,39.353v135.54c0,21.734,17.618,39.353,39.351,39.353h135.533c4.187,0,8.22-0.654,12.005-1.866&#10;&#9;&#9;&#9;&#9;C406.094,209.644,354.323,149.296,354.323,76.855z"/>
		</g>
		<g>
			<path style="fill:#67CCD1;" d="M184.932,501.463H49.303C27.597,501.463,10,483.867,10,462.16v-135.64&#10;&#9;&#9;&#9;&#9;c0-21.706,17.597-39.303,39.303-39.303h135.629c21.706,0,39.303,17.597,39.303,39.303v135.64&#10;&#9;&#9;&#9;&#9;C224.235,483.867,206.638,501.463,184.932,501.463z"/>
			<path style="fill:#27A2CC;" d="M76.558,353.535c0-23.83,5.603-46.351,15.561-66.318H49.351C27.618,287.218,10,304.837,10,326.571&#10;&#9;&#9;&#9;&#9;v135.54c0,21.734,17.618,39.353,39.351,39.353h135.533c4.187,0,8.22-0.654,12.005-1.866&#10;&#9;&#9;&#9;&#9;C128.329,486.325,76.558,425.976,76.558,353.535z"/>
		</g>
		<g>
			<path style="fill:#FDCB50;" d="M117.249,224.782h-0.263C57.899,224.782,10,176.883,10,117.796v-0.273&#10;&#9;&#9;&#9;&#9;C10,58.436,57.899,10.537,116.986,10.537h0.263c59.087,0,106.986,47.899,106.986,106.986v0.273&#10;&#9;&#9;&#9;&#9;C224.235,176.883,176.336,224.782,117.249,224.782z"/>
			<path style="fill:#FD8F01;" d="M64.134,78.072c0-22.182,5.839-43.001,16.064-61.002C39.229,32.112,10,71.472,10,117.659v0&#10;&#9;&#9;&#9;&#9;c0,59.162,47.958,107.123,107.117,107.123h0c25.1,0,48.184-8.634,66.444-23.094C117.224,199.445,64.134,144.959,64.134,78.072z"/>
		</g>
	</g>
	<g>
		<path style="fill:none;stroke:#052A75;stroke-width:20;stroke-linecap:round;stroke-linejoin:round;stroke-miterlimit:10;" d="&#10;&#9;&#9;&#9;M462.697,224.782H327.068c-21.706,0-39.303-17.597-39.303-39.303V49.84c0-21.706,17.597-39.303,39.303-39.303h135.629&#10;&#9;&#9;&#9;C484.403,10.537,502,28.133,502,49.84v135.64C502,207.186,484.403,224.782,462.697,224.782z"/>
		<path style="fill:none;stroke:#052A75;stroke-width:20;stroke-linecap:round;stroke-linejoin:round;stroke-miterlimit:10;" d="&#10;&#9;&#9;&#9;M117.249,224.782h-0.263C57.899,224.782,10,176.883,10,117.796v-0.273C10,58.436,57.899,10.537,116.986,10.537h0.263&#10;&#9;&#9;&#9;c59.087,0,106.986,47.899,106.986,106.986v0.273C224.235,176.883,176.336,224.782,117.249,224.782z"/>
		<path style="fill:none;stroke:#052A75;stroke-width:20;stroke-linecap:round;stroke-linejoin:round;stroke-miterlimit:10;" d="&#10;&#9;&#9;&#9;M462.697,501.463H327.068c-21.706,0-39.303-17.597-39.303-39.303v-135.64c0-21.706,17.597-39.303,39.303-39.303h135.629&#10;&#9;&#9;&#9;c21.706,0,39.303,17.597,39.303,39.303v135.64C502,483.867,484.403,501.463,462.697,501.463z"/>
		<path style="fill:none;stroke:#052A75;stroke-width:20;stroke-linecap:round;stroke-linejoin:round;stroke-miterlimit:10;" d="&#10;&#9;&#9;&#9;M184.932,501.463H49.303C27.597,501.463,10,483.867,10,462.16v-135.64c0-21.706,17.597-39.303,39.303-39.303h135.629&#10;&#9;&#9;&#9;c21.706,0,39.303,17.597,39.303,39.303v135.64C224.235,483.867,206.638,501.463,184.932,501.463z"/>
		<g>
			
				<line style="fill:none;stroke:#FFFFFF;stroke-width:20;stroke-linecap:round;stroke-linejoin:round;stroke-miterlimit:10;" x1="117.118" y1="84.813" x2="117.118" y2="150.506"/>
			
				<line style="fill:none;stroke:#FFFFFF;stroke-width:20;stroke-linecap:round;stroke-linejoin:round;stroke-miterlimit:10;" x1="149.962" y1="117.66" x2="84.273" y2="117.66"/>
		</g>
	</g>
</g>
<g>
</g>
<g>
</g>
<g>
</g>
<g>
</g>
<g>
</g>
<g>
</g>
<g>
</g>
<g>
</g>
<g>
</g>
<g>
</g>
<g>
</g>
<g>
</g>
<g>
</g>
<g>
</g>
<g>
</g>
</svg>