<svg width="32" height="32" viewBox="0 0 32 32" fill="none" xmlns="http://www.w3.org/2000/svg">
<g id="Icon">
<mask id="mask0_125_1624" style="mask-type:alpha" maskUnits="userSpaceOnUse" x="0" y="0" width="32" height="32">
<rect id="Bounding box" width="32" height="32" fill="white"/>
</mask>
<g mask="url(#mask0_125_1624)">
<g id="Icon_2">
<path id="Vector" d="M14.3358 3.26706C15.2691 2.4804 16.7758 2.4804 17.6824 3.26706L19.7891 5.06706C20.1891 5.4004 20.9491 5.6804 21.4824 5.6804H23.7491C25.1624 5.6804 26.3224 6.8404 26.3224 8.25373V10.5204C26.3224 11.0537 26.6025 11.8004 26.9358 12.2004L28.7358 14.3071C29.5224 15.2404 29.5224 16.7471 28.7358 17.6537L26.9358 19.7604C26.6025 20.1604 26.3224 20.9071 26.3224 21.4404V23.7071C26.3224 25.1204 25.1624 26.2804 23.7491 26.2804H21.4824C20.9491 26.2804 20.2024 26.5604 19.8024 26.8937L17.6958 28.6937C16.7624 29.4804 15.2558 29.4804 14.3491 28.6937L12.2424 26.8937C11.8424 26.5604 11.0824 26.2804 10.5624 26.2804H8.22911C6.81578 26.2804 5.65578 25.1204 5.65578 23.7071V21.4271C5.65578 20.9071 5.38911 20.1471 5.05578 19.7604L3.25578 17.6404C2.48245 16.7204 2.48245 15.2271 3.25578 14.3071L5.05578 12.1871C5.38911 11.7871 5.65578 11.0404 5.65578 10.5204V8.26706C5.65578 6.85373 6.81578 5.69373 8.22911 5.69373H10.5358C11.0691 5.69373 11.8158 5.41373 12.2158 5.0804L14.3358 3.26706Z" stroke="#0F0F0F" stroke-width="2" stroke-linecap="round" stroke-linejoin="round"/>
<g id="Group 689" opacity="0.4">
<path id="Vector_2" d="M16.002 10.8398V17.2798" stroke="#0F0F0F" stroke-width="2" stroke-linecap="round" stroke-linejoin="round"/>
<path id="Vector_3" d="M15.9941 21.3333H16.0061" stroke="#0F0F0F" stroke-width="2" stroke-linecap="round" stroke-linejoin="round"/>
</g>
</g>
</g>
</g>
</svg>
