<svg width="74" height="48" viewBox="0 0 74 48" fill="none" xmlns="http://www.w3.org/2000/svg">
<g id="Icon">
<rect id="BASE" x="1" y="1" width="72" height="46" rx="23" stroke="#F5F5F5" stroke-width="2"/>
<g id="APAY">
<g id="amazonpay-secondary-logo-rgb_clr">
<path id="Shape" fill-rule="evenodd" clip-rule="evenodd" d="M57.6206 33.6579C51.9737 37.7985 43.7876 40 36.7376 40C26.8574 40 17.9605 36.3712 11.2284 30.3315C10.6999 29.8571 11.1707 29.2094 11.8065 29.5772C19.0697 33.7765 28.0526 36.3059 37.3305 36.3059C43.5891 36.3059 50.4687 35.0158 56.7998 32.3478C57.7534 31.944 58.5542 32.9715 57.6206 33.6579ZM59.9693 30.9925C60.6923 31.9121 59.1658 35.6982 58.4845 37.3893C58.2779 37.9011 58.7205 38.1076 59.1873 37.7198C62.216 35.2024 62.9993 29.9264 62.3796 29.1641C61.764 28.4085 56.4684 27.7581 53.2359 30.013C52.7382 30.3595 52.8241 30.8393 53.3754 30.7726C55.1955 30.5567 59.2477 30.073 59.9693 30.9925Z" fill="#FF9900"/>
<g id="Group">
<path id="Path" fill-rule="evenodd" clip-rule="evenodd" d="M51.7918 24.2132L57.6695 9.34995C57.7929 9.04877 57.8559 8.83687 57.8559 8.71294C57.8559 8.50104 57.7312 8.39443 57.4817 8.39443H55.9861C55.7004 8.39443 55.5059 8.43974 55.3973 8.52769C55.29 8.61698 55.184 8.81155 55.0767 9.11274L51.4699 19.4103L47.7303 9.11274C47.623 8.81155 47.517 8.61698 47.4097 8.52769C47.3024 8.43974 47.1066 8.39443 46.8209 8.39443H45.218C44.9685 8.39443 44.8438 8.50104 44.8438 8.71294C44.8438 8.83687 44.9054 9.04877 45.0302 9.34995L50.1862 21.9836L49.6792 23.3376C49.3761 24.1879 49.0381 24.7716 48.6638 25.0901C48.2896 25.4086 47.7638 25.5672 47.0878 25.5672C46.7846 25.5672 46.5445 25.5485 46.3675 25.5139C46.1891 25.4792 46.055 25.4606 45.9664 25.4606C45.6995 25.4606 45.5654 25.6285 45.5654 25.9643V26.6546C45.5654 26.9025 45.6096 27.0838 45.6995 27.1984C45.788 27.313 45.9302 27.3983 46.1274 27.4502C46.5714 27.5728 47.0797 27.6368 47.6498 27.6368C48.6652 27.6368 49.4887 27.3716 50.1205 26.8399C50.7549 26.3108 51.3116 25.4339 51.7918 24.2132Z" fill="#232F3E"/>
<path id="Shape_2" fill-rule="evenodd" clip-rule="evenodd" d="M29.8501 12.0473C29.5912 11.1891 29.2224 10.4588 28.7408 9.85774C28.2606 9.25671 27.6731 8.7956 26.9783 8.47709C26.2849 8.15859 25.5096 8 24.6538 8C23.8531 8 23.0684 8.14926 22.3038 8.45044C21.5379 8.75162 20.8163 9.19407 20.1389 9.77778L20.0062 8.92754C19.9525 8.57438 19.7473 8.39713 19.3905 8.39713H18.2155C17.86 8.39713 17.6816 8.57438 17.6816 8.92754V26.7906C17.6816 27.1451 17.86 27.321 18.2155 27.321H19.7915C20.1483 27.321 20.3254 27.1438 20.3254 26.7906V20.5804C21.4829 21.6239 22.8632 22.1463 24.466 22.1463C25.3379 22.1463 26.1306 21.973 26.8429 21.6292C27.5551 21.284 28.16 20.8016 28.659 20.1819C29.158 19.5636 29.5456 18.8119 29.8206 17.9257C30.0969 17.0408 30.2351 16.0493 30.2351 14.9525C30.2377 13.8744 30.1076 12.9055 29.8501 12.0473ZM23.8531 20.022C22.6405 20.022 21.4655 19.5982 20.3267 18.748V11.3437C21.4481 10.5294 22.6418 10.1229 23.9067 10.1229C26.3291 10.1229 27.5403 11.7781 27.5403 15.0858C27.539 18.3775 26.3104 20.022 23.8531 20.022Z" fill="#232F3E"/>
<path id="Shape_3" fill-rule="evenodd" clip-rule="evenodd" d="M41.8988 9.04215C41.0967 8.35316 39.8506 8.008 38.1592 8.008C37.3222 8.008 36.4852 8.08396 35.6482 8.23322C34.8099 8.38381 34.1071 8.58238 33.537 8.83025C33.3237 8.91954 33.1802 9.0115 33.1091 9.10878C33.038 9.20607 33.0018 9.37931 33.0018 9.62586V10.3415C33.0018 10.66 33.1172 10.8199 33.3492 10.8199C33.4203 10.8199 33.4968 10.8066 33.5773 10.7799C33.6577 10.7533 33.7248 10.732 33.7771 10.7133C35.1493 10.3068 36.4571 10.103 37.7045 10.103C38.7722 10.103 39.5206 10.2975 39.9485 10.688C40.3764 11.0771 40.5897 11.7488 40.5897 12.7043V14.4554C39.3436 14.1543 38.2209 14.005 37.223 14.005C35.6563 14.005 34.4102 14.3901 33.4834 15.1591C32.5578 15.928 32.0938 16.9595 32.0938 18.2509C32.0938 19.4556 32.468 20.4138 33.2164 21.1308C33.9636 21.8477 34.9789 22.2049 36.2612 22.2049C37.0271 22.2049 37.797 22.0543 38.5723 21.7545C39.3476 21.4546 40.0545 21.0282 40.6956 20.4804L40.8298 21.356C40.8834 21.6918 41.0793 21.8597 41.4186 21.8597H42.5668C42.9222 21.8597 43.102 21.6825 43.102 21.3293V12.2539C43.1006 10.8026 42.6996 9.73247 41.8988 9.04215ZM40.5897 18.8639C40.0022 19.3064 39.3879 19.6422 38.7467 19.8727C38.1055 20.1033 37.4912 20.2179 36.9037 20.2179C36.2089 20.2179 35.6751 20.0367 35.3008 19.6742C34.9266 19.3117 34.7402 18.7946 34.7402 18.1216C34.7402 16.5824 35.7462 15.8121 37.7581 15.8121C38.2209 15.8121 38.6971 15.8441 39.1867 15.9054C39.6762 15.968 40.1444 16.052 40.5897 16.1573V18.8639Z" fill="#232F3E"/>
</g>
</g>
</g>
</g>
</svg>
