<svg id="Layer_1" enable-background="new 0 0 502 502" viewBox="0 0 502 502" xmlns="http://www.w3.org/2000/svg"><g><g><g><path d="m220 236c0-57.99-47.01-105-105-105s-105 47.01-105 105c0 35.679 17.8 67.196 45 86.171v-11.171c0-16.569 13.431-30 30-30h60c16.568 0 30 13.431 30 30v11.171c27.2-18.975 45-50.492 45-86.171zm0 0c0-57.99-47.01-105-105-105s-105 47.01-105 105c0 35.679 17.8 67.196 45 86.171v-11.171c0-16.569 13.431-30 30-30h60c16.568 0 30 13.431 30 30v11.171c27.2-18.975 45-50.492 45-86.171zm-105 15c-16.569 0-30-13.432-30-30s13.431-30 30-30 30 13.432 30 30-13.432 30-30 30z" fill="#fff"/></g><g><circle cx="115" cy="221" fill="#27a2cc" r="30"/></g><g><path d="m145 281h-60c-16.569 0-30 13.431-30 30v11.171c17.008 11.865 37.689 18.829 60 18.829s42.992-6.964 60-18.829v-11.171c0-16.569-13.432-30-30-30z" fill="#27a2cc"/></g><g><circle cx="387" cy="100" fill="#67ccd1" r="30"/></g><g><path d="m447 201.172v-11.172c0-16.568-13.432-30-30-30h-60c-16.569 0-30 13.432-30 30v11.171c17.008 11.865 37.689 18.829 60 18.829 22.31 0 42.992-6.963 60-18.828z" fill="#67ccd1"/></g><g><circle cx="387" cy="372" fill="#67ccd1" r="30"/></g><g><path d="m417 432h-60c-16.569 0-30 13.431-30 30v11.171c17.008 11.865 37.689 18.829 60 18.829 22.31 0 42.992-6.963 60-18.828v-11.172c0-16.569-13.432-30-30-30z" fill="#67ccd1"/></g></g><g><g><path d="m207.176 165.5h87.647v20h-87.647z" fill="#fd6050" transform="matrix(.913 -.407 .407 .913 -49.711 117.412)"/></g><g><path d="m241 260.968h20v101.065h-20z" fill="#fd6050" transform="matrix(.485 -.875 .875 .485 -143.131 380.014)"/></g><g><path d="m115 261c-22.056 0-40-17.944-40-40s17.944-40 40-40 40 17.944 40 40-17.944 40-40 40zm0-60c-11.028 0-20 8.972-20 20s8.972 20 20 20 20-8.972 20-20-8.972-20-20-20z" fill="#052a75"/></g><g><path d="m115 121c-63.41 0-115 51.59-115 115s51.59 115 115 115 115-51.59 115-115-51.59-115-115-115zm-50 195.73v-5.73c0-11.03 8.97-20 20-20h60c11.03 0 20 8.97 20 20v5.73c-14.53 9.05-31.67 14.27-50 14.27s-35.47-5.22-50-14.27zm118.83-15.33c-4.3-17.44-20.08-30.4-38.83-30.4h-60c-18.75 0-34.53 12.96-38.83 30.4-16.21-17.04-26.17-40.08-26.17-65.4 0-52.38 42.62-95 95-95s95 42.62 95 95c0 25.32-9.96 48.36-26.17 65.4z" fill="#052a75"/></g><g><path d="m387 140c-22.056 0-40-17.944-40-40s17.944-40 40-40 40 17.944 40 40-17.944 40-40 40zm0-60c-11.028 0-20 8.972-20 20s8.972 20 20 20 20-8.972 20-20-8.972-20-20-20z" fill="#052a75"/></g><g><path d="m492.43 112.08c-5.5-.36-10.28 3.8-10.64 9.31-1.52 22.86-11.15 43.44-25.96 59-4.31-17.43-20.08-30.39-38.83-30.39h-60c-18.75 0-34.53 12.96-38.83 30.4-16.21-17.04-26.17-40.08-26.17-65.4 0-49.86 38.92-91.49 88.61-94.79 5.51-.36 9.68-5.13 9.31-10.64-.36-5.51-5.12-9.68-10.64-9.31-60.16 3.99-107.28 54.39-107.28 114.74 0 63.41 51.59 115 115 115 60.35 0 110.75-47.12 114.74-107.28.37-5.51-3.8-10.28-9.31-10.64zm-155.43 83.65v-5.73c0-11.03 8.97-20 20-20h60c11.03 0 20 8.97 20 20v5.71c-14.58 9.07-31.74 14.29-50 14.29-18.33 0-35.47-5.22-50-14.27z" fill="#052a75"/></g><g><path d="m502 40c0 5.52-4.48 10-10 10h-20v20c0 5.52-4.48 10-10 10s-10-4.48-10-10v-20h-20c-5.52 0-10-4.48-10-10s4.48-10 10-10h20v-20c0-5.52 4.48-10 10-10s10 4.48 10 10v20h20c5.52 0 10 4.48 10 10z" fill="#fd6050"/></g><g><path d="m387 412c-22.056 0-40-17.944-40-40s17.944-40 40-40 40 17.944 40 40-17.944 40-40 40zm0-60c-11.028 0-20 8.972-20 20s8.972 20 20 20 20-8.972 20-20-8.972-20-20-20z" fill="#052a75"/></g><g><path d="m492.43 384.08c-5.5-.37-10.28 3.8-10.64 9.31-1.52 22.86-11.15 43.44-25.96 59-4.31-17.43-20.08-30.39-38.83-30.39h-60c-18.75 0-34.53 12.96-38.83 30.4-16.21-17.04-26.17-40.08-26.17-65.4 0-49.86 38.92-91.49 88.61-94.79 5.51-.36 9.68-5.13 9.31-10.64-.36-5.51-5.12-9.68-10.64-9.31-60.16 3.99-107.28 54.39-107.28 114.74 0 63.41 51.59 115 115 115 60.35 0 110.75-47.12 114.74-107.28.37-5.51-3.8-10.28-9.31-10.64zm-155.43 83.65v-5.73c0-11.03 8.97-20 20-20h60c11.03 0 20 8.97 20 20v5.71c-14.58 9.07-31.74 14.29-50 14.29-18.33 0-35.47-5.22-50-14.27z" fill="#052a75"/></g><g><path d="m502 312c0 5.52-4.48 10-10 10h-20v20c0 5.52-4.48 10-10 10s-10-4.48-10-10v-20h-20c-5.52 0-10-4.48-10-10s4.48-10 10-10h20v-20c0-5.52 4.48-10 10-10s10 4.48 10 10v20h20c5.52 0 10 4.48 10 10z" fill="#fd6050"/></g></g></g><g/><g/><g/><g/><g/><g/><g/><g/><g/><g/><g/><g/><g/><g/><g/></svg>