<svg id="Layer_1" enable-background="new 0 0 512 512" viewBox="0 0 512 512" xmlns="http://www.w3.org/2000/svg"><g clip-rule="evenodd" fill-rule="evenodd"><path d="m243.31 77.16h27.38c7.99 0 14.54 6.52 14.54 14.54v10.63c0 6.69 4.34 12.33 10.77 14.06 12.84 3.43 25 8.5 36.26 15.02 5.75 3.34 12.81 2.41 17.55-2.32l7.54-7.51c5.64-5.67 14.88-5.67 20.55 0l19.36 19.36c5.67 5.64 5.67 14.88 0 20.55l-7.54 7.54c-4.71 4.71-5.64 11.76-2.3 17.55 6.49 11.25 11.59 23.41 15.02 36.25 1.73 6.43 7.37 10.77 14.03 10.77h10.66c7.99 0 14.54 6.52 14.54 14.54v27.38c0 7.99-6.55 14.54-14.54 14.54h-10.66c-6.66 0-12.3 4.34-14.03 10.77-3.43 12.84-8.53 25-15.02 36.26-3.34 5.75-2.41 12.81 2.3 17.55l7.54 7.54c5.67 5.64 5.67 14.88 0 20.55l-19.36 19.36c-5.67 5.67-14.91 5.67-20.55 0l-7.54-7.54c-4.73-4.71-11.76-5.64-17.55-2.3-11.25 6.49-23.41 11.59-36.26 15.02-6.43 1.73-10.77 7.37-10.77 14.03v10.66c0 7.99-6.55 14.54-14.54 14.54h-27.38c-8.02 0-14.54-6.55-14.54-14.54v-10.66c0-6.66-4.34-12.3-10.77-14.03-12.84-3.43-25-8.53-36.26-15.02-5.78-3.34-12.84-2.41-17.55 2.3l-7.54 7.54c-5.67 5.67-14.88 5.67-20.55 0l-19.36-19.36c-5.67-5.67-5.67-14.91 0-20.55l7.51-7.54c4.73-4.73 5.67-11.76 2.32-17.55-6.52-11.25-11.59-23.41-15.02-36.26-1.73-6.43-7.37-10.77-14.06-10.77h-10.63c-8.02 0-14.54-6.55-14.54-14.54v-27.38c0-8.02 6.52-14.54 14.54-14.54h10.63c6.69 0 12.33-4.34 14.06-10.77 3.43-12.84 8.5-25 15.02-36.25 3.34-5.78 2.41-12.84-2.32-17.55l-7.51-7.54c-5.67-5.67-5.67-14.91 0-20.55l19.36-19.36c5.64-5.67 14.88-5.67 20.55 0l7.54 7.51c4.71 4.73 11.76 5.67 17.55 2.32 11.25-6.52 23.41-11.59 36.26-15.02 6.43-1.73 10.77-7.37 10.77-14.06v-10.63c-.01-8.02 6.51-14.54 14.54-14.54z" fill="#8c9eff"/><path d="m257.25 156.58c57.88 0 104.8 46.91 104.8 104.8s-46.91 104.83-104.8 104.83c-57.91 0-104.83-46.94-104.83-104.83s46.92-104.8 104.83-104.8z" fill="#80d8ff"/><path d="m353.29 219.4c5.64 12.87 8.76 27.07 8.76 41.98 0 57.88-46.91 104.83-104.8 104.83-32.26 0-61.11-14.57-80.33-37.5-5.64-12.84-8.76-27.04-8.76-41.98 0-57.88 46.91-104.8 104.8-104.8 32.26 0 61.11 14.57 80.33 37.47z" fill="#c9f0fe"/><path d="m214.34 260.87c11.68 3.57 21.34 11.88 26.59 22.9-12.22 17.49-32.77 27.21-54.03 25.57-21.23-1.62-40.05-14.37-49.44-33.53 35.58 4.11 45.44-24.55 76.88-14.94z" fill="#00d391"/><path d="m238.15 287.46c-13.8 17.52-35.35 23.1-51.25 21.88-18.99-1.45-37.56-15.22-47.65-31.07 15.98 11.86 81.92-12.27 98.9 9.19z" fill="#00f4a8"/><path d="m317.91 251.74c-11.11 5.07-19.56 14.6-23.3 26.22 14.43 15.7 36.08 22.62 56.92 18.2 20.86-4.45 37.81-19.59 44.59-39.8-34.72 8.79-48.3-18.31-78.21-4.62z" fill="#00d391"/><path d="m298.36 281.71c13.75 10.23 36.08 18.08 53.18 14.46 17.15-3.66 31.78-20.55 40.17-35.52-19.23 7.25-80.43 1.24-93.35 21.06z" fill="#00f4a8"/><path d="m278.68 234.42c4.05 11.51 3.03 24.21-2.75 34.95-21.32.51-41.3-10.29-52.55-28.4-11.25-18.08-12.1-40.82-2.24-59.7 17.74 31.1 46.69 22.09 57.54 53.15z" fill="#00d391"/><path d="m273.92 269.4c-14.17-4.05-42.55-15.56-50.54-28.43-9.69-15.56-7.37-36.2-1.47-53.21 1.02 18.57 57.91 51.99 52.01 81.64z" fill="#00f4a8"/></g><path d="m472.15 226.49c-.62-3.8 1.96-7.4 5.78-7.99 3.8-.62 7.4 1.96 7.99 5.75 4.56 27.92 3.97 56.41-1.67 84.02-.77 3.77-4.48 6.21-8.25 5.44s-6.21-4.45-5.44-8.22c5.33-26.02 5.9-52.7 1.59-79zm-13.98 119.31c1.47-3.54 5.56-5.24 9.13-3.77s5.24 5.58 3.77 9.13c-32.88 79.09-107.43 133.91-192.64 141.68-3.83.37-7.23-2.47-7.57-6.29-.34-3.86 2.47-7.23 6.32-7.6 80.08-7.32 150.04-58.83 180.99-133.15zm-221.35 133.11c3.83.34 6.66 3.74 6.32 7.57s-3.74 6.66-7.57 6.32c-38.89-3.57-76.73-17.21-109.05-39.12l1.96 6.55c1.08 3.71-1.05 7.6-4.73 8.67-3.71 1.08-7.6-1.02-8.67-4.73l-9.5-32.12c-1.47-4.99 2.95-10.23 8.73-8.65l32.15 7.74c3.74.88 6.07 4.65 5.16 8.39-.88 3.74-4.65 6.07-8.39 5.16l-7.74-1.84c30.23 20.27 65.13 32.66 101.33 36.06zm148.7-415.47c-1.08-3.71 1.02-7.6 4.73-8.67 3.69-1.11 7.57 1.02 8.67 4.73l9.5 32.09c1.45 5.02-2.95 10.23-8.73 8.67l-32.15-7.74c-3.74-.91-6.07-4.65-5.19-8.39.91-3.74 4.65-6.07 8.42-5.19l7.74 1.87c-30.13-20.21-65.28-32.74-101.34-36.06-3.86-.34-6.66-3.74-6.32-7.57.34-3.85 3.74-6.69 7.57-6.32 38.86 3.57 76.71 17.18 109.02 39.12zm-343.67 233.71c.6 3.83-1.98 7.4-5.78 8.02s-7.4-1.96-8.02-5.75c-3.94-24.24-4-48.61-.34-72.74.57-3.83 4.14-6.46 7.97-5.9 3.83.6 6.43 4.14 5.87 7.97-3.5 22.97-3.47 45.47.3 68.4zm9.89-108.68c-1.3 3.63-5.3 5.53-8.96 4.22-3.63-1.3-5.53-5.3-4.22-8.93 18.37-51.5 54.28-94.98 102.44-122.79v-.03c29.14-16.81 61.46-27.1 94.56-30.13 3.83-.34 7.23 2.49 7.57 6.32s-2.49 7.23-6.32 7.57c-31.12 2.86-61.34 12.47-88.81 28.35v-.03c-45.52 26.56-78.83 66.56-96.26 115.45zm222.27 169.29c1.25-23.9-12.67-50.4-32.6-63.41-16.64 18.43-42.21 26.25-66.36 20.13 21.17 32.71 59.81 50.03 98.96 43.28zm-46.01-69.65c-8.82-2.49-17.92-2.01-26.76 2.24-3.49 1.67-7.65.2-9.3-3.29-1.67-3.46-.2-7.63 3.29-9.3 9.33-4.48 18.77-5.84 27.92-4.82-3.26-2.35-6.92-4.22-10.83-5.41-23.84-7.28-35.18 12.87-62.08 15.42 19.34 23.7 55.05 26.45 77.76 5.16zm19.59-6.35c7.68 4.73 14.49 11 20.21 18.11.88-7.63.85-15.79-.14-23.84-47.54-4.85-74.49-56.27-52.7-97.99 2.58-4.93 9.58-4.96 12.25-.23h.03c16.36 28.72 45.95 19.7 58.05 54.31 4.71 13.41 3.54 28.06-3.2 40.56-.17.34-.4.68-.62.99.26 1.96.45 3.91.6 5.9 1.08-1.19 2.24-2.32 3.4-3.43 1.13-1.05 2.27-2.04 3.49-3 2.18-5.7 5.36-10.89 9.35-15.36 4.59-5.22 10.29-9.44 16.72-12.39 15.68-7.2 27.1-4.88 38.55-1.11-8.14-46.32-48.5-80.7-96.32-80.7-55.98 0-100.57 46.8-97.68 103.07 4.88-1.64 9.27-3.86 13.55-6.01 12.59-6.35 24.26-12.25 43.26-6.46 13.55 4.17 24.77 13.8 30.84 26.62.16.31.27.62.36.96zm17.17-20.24c-2.75-9.58-7.03-18.14-12.93-24.18-2.69-2.75-2.64-7.17.14-9.86 2.75-2.69 7.17-2.64 9.86.14 4.99 5.13 9.07 11.51 12.22 18.62-.23-3.23-.88-6.43-1.96-9.52-8.28-23.67-30.81-20.32-49.12-40.9-7.73 29.85 11.46 60.03 41.79 65.7zm51.31-.85c8.28-1.42 16.87-.91 25.26 2.01 3.63 1.28 5.56 5.24 4.28 8.9-1.25 3.63-5.24 5.56-8.87 4.28-10.46-3.63-21.52-2.04-31.04 2.92 24.95 20.04 61.94 13.58 78.66-13.66-27.24 1.05-40.85-17.43-63.55-7.06-1.65.77-3.24 1.65-4.74 2.61zm-21.99 26.56c-4.9 4.82-8.73 10.63-10.94 16.92-2.32 6.66-2.81 13.89-.77 21.06 3.57 9.35 5.61 19.25 5.67 29.06 25-8.28 45.69-26.45 57.2-50.12-18.62 1.76-37.25-4.42-51.16-16.92zm74.29-38.09c7.51 2.04 15.82 3.03 26.05.45 5.27-1.33 10.06 3.74 8.31 8.99-6.52 19.47-21.57 34.84-40.71 41.81-16.16 43.4-57.74 72.82-104.77 72.82-23.13 0-44.62-7.03-62.45-19.08-17.75-11.96-31.86-28.89-40.39-48.81-.2-.14-.4-.26-.6-.4-9.52-6.46-17.38-15.36-22.62-26.05-2.44-4.96 1.64-10.6 7.06-9.98v-.03c2.64.31 5.1.4 7.46.34-4.39-65.03 46.89-119.62 111.54-119.62 57.18 0 104.97 43.23 111.12 99.56zm-125.06-178.98h27.38c11.88 0 21.54 9.67 21.54 21.54v10.63c0 3.54 2.15 6.38 5.58 7.31 13.29 3.54 26.02 8.84 37.93 15.7 3.06 1.79 6.6 1.3 9.1-1.19l7.54-7.54c8.39-8.39 22.05-8.39 30.47 0l19.36 19.36c8.39 8.39 8.39 22.05 0 30.47l-7.54 7.51c-2.52 2.52-2.98 6.07-1.22 9.13 6.89 11.88 12.19 24.6 15.73 37.93.91 3.4 3.77 5.58 7.29 5.58h10.66c11.88 0 21.54 9.67 21.54 21.54v27.38c0 11.88-9.67 21.54-21.54 21.54v-.03h-10.66v.03c-3.51 0-6.38 2.15-7.29 5.58-1.64 6.09-4.14 13.63-6.63 19.47h.03c-2.64 6.35-5.7 12.53-9.13 18.45-1.76 3.06-1.28 6.58 1.22 9.13v-.03l7.54 7.54c8.39 8.39 8.39 22.05 0 30.47l-19.36 19.36c-8.42 8.39-22.08 8.39-30.47 0l-7.54-7.54c-2.49-2.52-6.04-2.98-9.1-1.22-11.91 6.89-24.63 12.19-37.93 15.73-3.43.91-5.58 3.77-5.58 7.28v10.66c0 11.88-9.67 21.54-21.54 21.54h-27.38c-11.88 0-21.54-9.67-21.54-21.54v-10.66c0-3.51-2.18-6.38-5.58-7.28-13.29-3.54-26.05-8.84-37.93-15.73-3.06-1.76-6.6-1.3-9.13 1.22l-7.51 7.54c-4.2 4.2-9.72 6.29-15.25 6.29v-.03c-5.53 0-11.03-2.1-15.22-6.26l-19.36-19.36c-8.39-8.42-8.39-22.08 0-30.47l7.54-7.54c2.49-2.49 2.98-6.04 1.22-9.1-6.89-11.91-12.19-24.63-15.73-37.93-.94-3.43-3.77-5.58-7.31-5.58h-10.65c-11.88 0-21.54-9.67-21.54-21.54v-27.38c0-11.88 9.67-21.54 21.54-21.54h10.63c3.54 0 6.38-2.18 7.31-5.58 3.54-13.32 8.84-26.05 15.7-37.93 1.79-3.06 1.3-6.58-1.19-9.13l-7.54-7.51c-4.17-4.2-6.26-9.69-6.26-15.25h-.03c0-5.41 2.13-11.08 6.29-15.19v-.03l19.36-19.36c4.2-4.2 9.72-6.29 15.22-6.29v.03c5.53 0 11.06 2.1 15.25 6.26l7.51 7.54c2.52 2.49 6.07 2.98 9.13 1.19 11.85-6.86 24.69-12.16 37.93-15.7 3.4-.94 5.58-3.77 5.58-7.31h.03v-10.62h-.03c0-5.92 2.41-11.28 6.32-15.22 3.9-3.91 9.28-6.32 15.24-6.32zm27.38 14h-27.38c-2.07 0-3.97.85-5.33 2.21-1.39 1.39-2.21 3.2-2.21 5.33h-.03v10.63h.03c0 9.84-6.49 18.28-15.99 20.81-12.16 3.26-23.7 8.05-34.53 14.31-8.5 4.9-19.08 3.54-26.02-3.4l-7.54-7.54c-1.47-1.47-3.4-2.21-5.33-2.21v.03c-1.93 0-3.85.74-5.33 2.18l-19.36 19.36c-1.47 1.45-2.18 3.4-2.18 5.33h-.03c0 1.93.74 3.85 2.21 5.33l7.54 7.54-.03.03c6.94 6.94 8.33 17.46 3.43 25.99-6.24 10.77-11.06 22.39-14.32 34.53-2.52 9.5-10.97 15.99-20.81 15.99h-10.62c-4.14 0-7.54 3.4-7.54 7.54v27.38c0 4.14 3.4 7.54 7.54 7.54h10.63c9.84 0 18.28 6.49 20.81 15.99 3.26 12.13 8.08 23.73 14.32 34.53 4.9 8.5 3.54 19.08-3.4 26.02l-7.54 7.51c-2.92 2.95-2.92 7.74 0 10.66l19.36 19.36c1.5 1.5 3.43 2.24 5.33 2.24v-.03c1.96 0 3.88-.74 5.33-2.18l7.54-7.54c6.94-6.95 17.52-8.33 26.02-3.4 10.77 6.24 22.39 11.05 34.53 14.31 9.5 2.52 15.99 10.97 15.99 20.78v10.66c0 4.14 3.4 7.54 7.54 7.54h27.38c4.14 0 7.54-3.4 7.54-7.54v-10.66c0-9.81 6.49-18.26 15.99-20.78 12.13-3.26 23.73-8.08 34.53-14.31 8.5-4.93 19.08-3.54 26.02 3.4l7.51 7.51c2.95 2.95 7.74 2.95 10.66 0l19.36-19.36c2.95-2.92 2.95-7.71 0-10.66l-7.51-7.51v-.03c-6.94-6.94-8.33-17.49-3.4-25.99 3.09-5.36 5.87-10.97 8.28-16.81h.03c2.35-5.67 4.37-11.59 6.01-17.74 2.52-9.47 10.97-15.96 20.78-15.96v.03h10.66v-.03c4.14 0 7.54-3.4 7.54-7.54v-27.38c0-4.14-3.4-7.54-7.54-7.54h-10.66c-9.81 0-18.26-6.49-20.78-15.99-3.26-12.13-8.08-23.75-14.31-34.53-4.93-8.5-3.54-19.08 3.4-26.02l7.51-7.54c2.95-2.92 2.95-7.71 0-10.66l-19.36-19.36c-2.92-2.92-7.74-2.92-10.66 0l-7.51 7.54c-6.94 6.94-17.52 8.31-26.02 3.4-10.8-6.24-22.39-11.06-34.55-14.31-9.47-2.52-15.96-10.97-15.96-20.81v-10.64c-.03-4.14-3.43-7.54-7.57-7.54z"/></svg>