<svg width="20" height="20" viewBox="0 0 20 20" fill="none" xmlns="http://www.w3.org/2000/svg">
<g id="Icon">
<mask id="mask0_125_6912" style="mask-type:alpha" maskUnits="userSpaceOnUse" x="0" y="0" width="20" height="20">
<rect id="Bounding box" width="20" height="20" fill="white"/>
</mask>
<g mask="url(#mask0_125_6912)">
<g id="Icon_2">
<path id="Vector" d="M1.66634 10.2084C1.66634 11.7041 2.8789 12.9167 4.37467 12.9167C5.87045 12.9167 7.08301 11.7041 7.08301 10.2084C7.08301 8.71259 5.87045 7.50003 4.37467 7.50003C2.8789 7.50003 1.66634 8.71259 1.66634 10.2084Z" stroke="#0F0F0F" stroke-width="2" stroke-linecap="round" stroke-linejoin="round"/>
<path id="Vector_2" d="M13.333 4.16669C13.333 5.5474 14.4523 6.66669 15.833 6.66669C17.2137 6.66669 18.333 5.5474 18.333 4.16669C18.333 2.78598 17.2137 1.66669 15.833 1.66669C14.4523 1.66669 13.333 2.78597 13.333 4.16669Z" stroke="#0F0F0F" stroke-width="2" stroke-linecap="round" stroke-linejoin="round"/>
<path id="Vector_3" d="M13.333 15.8334C13.333 17.2141 14.4523 18.3334 15.833 18.3334C17.2137 18.3334 18.333 17.2141 18.333 15.8334C18.333 14.4526 17.2137 13.3334 15.833 13.3334C14.4523 13.3334 13.333 14.4526 13.333 15.8334Z" stroke="#0F0F0F" stroke-width="2" stroke-linecap="round" stroke-linejoin="round"/>
<g id="Group 74" opacity="0.4">
<path id="Vector_4" d="M6.66634 8.33335L13.333 4.16669" stroke="#0F0F0F" stroke-width="2" stroke-linecap="round" stroke-linejoin="round"/>
<path id="Vector_5" d="M6.66634 12.5L13.333 15.8334" stroke="#0F0F0F" stroke-width="2" stroke-linecap="round" stroke-linejoin="round"/>
</g>
</g>
</g>
</g>
</svg>
