<?xml version="1.0" encoding="UTF-8" standalone="no"?>
<!-- Created with Inkscape (http://www.inkscape.org/) -->

<svg
   version="1.1"
   id="svg4134"
   xml:space="preserve"
   width="682.66669"
   height="682.66669"
   viewBox="0 0 682.66669 682.66669"
   xmlns="http://www.w3.org/2000/svg"
   xmlns:svg="http://www.w3.org/2000/svg"><defs
     id="defs4138"><clipPath
       clipPathUnits="userSpaceOnUse"
       id="clipPath4148"><path
         d="M 0,512 H 512 V 0 H 0 Z"
         id="path4146" /></clipPath></defs><g
     id="g4140"
     transform="matrix(1.3333333,0,0,-1.3333333,0,682.66667)"><g
       id="g4142"><g
         id="g4144"
         clip-path="url(#clipPath4148)"><g
           id="g4150"
           transform="translate(142.6559,207.9456)"><path
             d="m 0,0 -133.586,-134.034 c -3.358,-3.369 -0.972,-9.117 3.785,-9.117 h 347.973 c 3.196,0 6.26,1.273 8.516,3.537 L 360.274,-5.581 c 3.358,3.37 0.972,9.117 -3.785,9.117 H 8.517 C 5.321,3.536 2.256,2.264 0,0"
             style="fill:#ffa78f;fill-opacity:1;fill-rule:nonzero;stroke:none"
             id="path4152" /></g><g
           id="g4154"
           transform="translate(132.2795,97.9922)"><path
             d="m 0,0 c -13.603,0 -24.631,-9.425 -24.631,-21.052 0,-4.525 1.676,-8.713 4.519,-12.145 h 40.224 c 2.843,3.432 4.519,7.62 4.519,12.145 C 24.631,-9.425 13.603,0 0,0"
             style="fill:#f89580;fill-opacity:1;fill-rule:nonzero;stroke:none"
             id="path4156" /></g><g
           id="g4158"
           transform="translate(499.1451,211.4818)"><path
             d="m 0,0 h -33 c 4.757,0 7.143,-5.748 3.785,-9.117 L -162.801,-143.15 c -2.256,-2.264 -5.321,-3.537 -8.517,-3.537 h 33 c 3.196,0 6.261,1.273 8.517,3.536 L 3.785,-9.117 C 7.143,-5.748 4.757,0 0,0"
             style="fill:#f89580;fill-opacity:1;fill-rule:nonzero;stroke:none"
             id="path4160" /></g><g
           id="g4162"
           transform="translate(289.0185,132.007)"><path
             d="m 0,0 c 0,-12.834 -14.971,-23.238 -33.438,-23.238 -18.467,0 -33.438,10.404 -33.438,23.238 0,12.834 14.971,23.238 33.438,23.238 C -14.971,23.238 0,12.834 0,0"
             style="fill:#f89580;fill-opacity:1;fill-rule:nonzero;stroke:none"
             id="path4164" /></g><g
           id="g4166"
           transform="translate(142.6559,288.1092)"><path
             d="m 0,0 -133.586,-134.034 c -3.358,-3.369 -0.972,-9.117 3.785,-9.117 h 347.973 c 3.196,0 6.26,1.273 8.516,3.537 L 360.274,-5.581 c 3.358,3.37 0.972,9.117 -3.785,9.117 H 8.517 C 5.321,3.536 2.256,2.264 0,0"
             style="fill:#e8ad8c;fill-opacity:1;fill-rule:nonzero;stroke:none"
             id="path4168" /></g><g
           id="g4170"
           transform="translate(499.1451,291.6454)"><path
             d="m 0,0 h -33 c 4.757,0 7.143,-5.748 3.785,-9.117 l -133.586,-134.034 c -2.256,-2.263 -5.321,-3.536 -8.517,-3.536 h 33 c 3.196,0 6.261,1.273 8.517,3.536 L 3.785,-9.117 C 7.143,-5.748 4.757,0 0,0"
             style="fill:#e19a74;fill-opacity:1;fill-rule:nonzero;stroke:none"
             id="path4172" /></g><g
           id="g4174"
           transform="translate(142.6559,373.1848)"><path
             d="m 0,0 -133.586,-134.034 c -3.358,-3.369 -0.972,-9.117 3.785,-9.117 h 347.972 c 3.197,0 6.261,1.273 8.517,3.537 L 360.274,-5.581 c 3.358,3.37 0.972,9.117 -3.785,9.117 H 8.517 C 5.321,3.536 2.256,2.264 0,0"
             style="fill:#68ca44;fill-opacity:1;fill-rule:nonzero;stroke:none"
             id="path4176" /></g><g
           id="g4178"
           transform="translate(499.1451,376.721)"><path
             d="m 0,0 h -33 c 4.757,0 7.143,-5.748 3.785,-9.117 l -133.586,-134.034 c -2.256,-2.263 -5.321,-3.536 -8.517,-3.536 h 33 c 3.196,0 6.261,1.273 8.517,3.536 L 3.785,-9.117 C 7.143,-5.748 4.757,0 0,0"
             style="fill:#4fc123;fill-opacity:1;fill-rule:nonzero;stroke:none"
             id="path4180" /></g><g
           id="g4182"
           transform="translate(149.9417,335.8184)"><path
             d="M 0,0 C -9.113,0 -16.5,7.387 -16.5,16.5 -16.5,25.613 -9.113,33 0,33 9.113,33 16.5,25.613 16.5,16.5 16.5,7.387 9.113,0 0,0 M 0,66 C -27.295,66 -49.5,43.794 -49.5,16.5 -49.5,-23.678 0,-54 0,-54 0,-54 49.5,-22.314 49.5,16.5 49.5,43.794 27.294,66 0,66"
             style="fill:#fd8087;fill-opacity:1;fill-rule:nonzero;stroke:none"
             id="path4184" /></g><g
           id="g4186"
           transform="translate(344.0311,442.8038)"><path
             d="m 0,0 c 0,2.632 2.301,4.689 4.912,4.368 19.704,-2.421 34.96,-19.215 34.96,-39.573 v -7.746 H 31.22 C 13.978,-42.951 0,-28.973 0,-11.731 Z"
             style="fill:#68ca44;fill-opacity:1;fill-rule:nonzero;stroke:none"
             id="path4188" /></g><g
           id="g4190"
           transform="translate(423.776,442.8038)"><path
             d="m 0,0 c 0,2.632 -2.301,4.689 -4.912,4.368 -19.704,-2.421 -34.96,-19.215 -34.96,-39.573 v -7.746 h 8.652 c 17.242,0 31.22,13.978 31.22,31.22 z"
             style="fill:#4fc123;fill-opacity:1;fill-rule:nonzero;stroke:none"
             id="path4192" /></g><g
           id="g4194"
           transform="translate(152.392,64.7953)"><path
             d="m 0,0 c 2.843,3.432 4.519,7.62 4.519,12.145 0,11.627 -11.028,21.052 -24.631,21.052 -13.604,0 -24.631,-9.425 -24.631,-21.052 0,-4.525 1.676,-8.713 4.518,-12.145"
             style="fill:none;stroke:#000000;stroke-width:15;stroke-linecap:round;stroke-linejoin:round;stroke-miterlimit:10;stroke-dasharray:none;stroke-opacity:1"
             id="path4196" /></g><g
           id="g4198"
           transform="translate(283.3499,144.9602)"><path
             d="m 0,0 c 3.58,-3.7 5.67,-8.16 5.67,-12.95 0,-12.84 -14.97,-23.24 -33.44,-23.24 -18.47,0 -33.44,10.4 -33.44,23.24 0,4.79 2.09,9.25 5.67,12.95"
             style="fill:none;stroke:#000000;stroke-width:15;stroke-linecap:round;stroke-linejoin:round;stroke-miterlimit:10;stroke-dasharray:none;stroke-opacity:1"
             id="path4200" /></g><g
           id="g4202"
           transform="translate(79.8803,144.9602)"><path
             d="m 0,0 -70.81,-71.05 c -3.36,-3.37 -0.97,-9.11 3.78,-9.11 h 245.79"
             style="fill:none;stroke:#000000;stroke-width:15;stroke-linecap:round;stroke-linejoin:round;stroke-miterlimit:10;stroke-dasharray:none;stroke-opacity:1"
             id="path4204" /></g><g
           id="g4206"
           transform="translate(432.1197,211.4801)"><path
             d="m 0,0 h 67.03 c 4.75,0 7.14,-5.75 3.78,-9.12 L -62.78,-143.15 c -2.25,-2.26 -5.32,-3.53 -8.51,-3.53 h -67.19"
             style="fill:none;stroke:#000000;stroke-width:15;stroke-linecap:round;stroke-linejoin:round;stroke-miterlimit:10;stroke-dasharray:none;stroke-opacity:1"
             id="path4208" /></g><g
           id="g4210"
           transform="translate(107.1624,144.9608)"><path
             d="M 0,0 -53.682,53.682"
             style="fill:none;stroke:#000000;stroke-width:15;stroke-linecap:round;stroke-linejoin:round;stroke-miterlimit:10;stroke-dasharray:none;stroke-opacity:1"
             id="path4212" /></g><g
           id="g4214"
           transform="translate(170.2901,144.9602)"><path
             d="M 0,0 -85.06,85.07"
             style="fill:none;stroke:#000000;stroke-width:15;stroke-linecap:round;stroke-linejoin:round;stroke-miterlimit:10;stroke-dasharray:none;stroke-opacity:1"
             id="path4216" /></g><g
           id="g4218"
           transform="translate(233.43,144.9602)"><path
             d="M 0,0 -85.07,85.07"
             style="fill:none;stroke:#000000;stroke-width:15;stroke-linecap:round;stroke-linejoin:round;stroke-miterlimit:10;stroke-dasharray:none;stroke-opacity:1"
             id="path4220" /></g><g
           id="g4222"
           transform="translate(296.5699,144.9602)"><path
             d="M 0,0 -85.07,85.07"
             style="fill:none;stroke:#000000;stroke-width:15;stroke-linecap:round;stroke-linejoin:round;stroke-miterlimit:10;stroke-dasharray:none;stroke-opacity:1"
             id="path4224" /></g><g
           id="g4226"
           transform="translate(359.6998,144.9602)"><path
             d="M 0,0 -85.08,85.07"
             style="fill:none;stroke:#000000;stroke-width:15;stroke-linecap:round;stroke-linejoin:round;stroke-miterlimit:10;stroke-dasharray:none;stroke-opacity:1"
             id="path4228" /></g><g
           id="g4230"
           transform="translate(394.2898,173.5002)"><path
             d="M 0,0 -56.53,56.53"
             style="fill:none;stroke:#000000;stroke-width:15;stroke-linecap:round;stroke-linejoin:round;stroke-miterlimit:10;stroke-dasharray:none;stroke-opacity:1"
             id="path4232" /></g><g
           id="g4234"
           transform="translate(425.7997,205.1401)"><path
             d="M 0,0 -42.47,42.47"
             style="fill:none;stroke:#000000;stroke-width:15;stroke-linecap:round;stroke-linejoin:round;stroke-miterlimit:10;stroke-dasharray:none;stroke-opacity:1"
             id="path4236" /></g><g
           id="g4238"
           transform="translate(457.3097,236.7501)"><path
             d="M 0,0 -42.47,42.47"
             style="fill:none;stroke:#000000;stroke-width:15;stroke-linecap:round;stroke-linejoin:round;stroke-miterlimit:10;stroke-dasharray:none;stroke-opacity:1"
             id="path4240" /></g><g
           id="g4242"
           transform="translate(427.2297,291.65)"><path
             d="m 0,0 h 71.92 c 4.75,0 7.14,-5.75 3.78,-9.12 L -57.89,-143.16 c -2.25,-2.26 -5.32,-3.53 -8.51,-3.53 h -347.979 c -4.75,0 -7.14,5.75 -3.78,9.12 l 75.7,75.95"
             style="fill:none;stroke:#000000;stroke-width:15;stroke-linecap:round;stroke-linejoin:round;stroke-miterlimit:10;stroke-dasharray:none;stroke-opacity:1"
             id="path4244" /></g><g
           id="g4246"
           transform="translate(266.82,376.7198)"><path
             d="m 0,0 h 232.33 c 4.75,0 7.14,-5.75 3.78,-9.12 L 102.52,-143.15 c -2.25,-2.26 -5.32,-3.54 -8.51,-3.54 h -347.98 c -4.75,0 -7.14,5.75 -3.78,9.12 l 94.67,94.99"
             style="fill:none;stroke:#000000;stroke-width:15;stroke-linecap:round;stroke-linejoin:round;stroke-miterlimit:10;stroke-dasharray:none;stroke-opacity:1"
             id="path4248" /></g><g
           id="g4250"
           transform="translate(231.82,376.7198)"><path
             d="M 0,0 H -38.83"
             style="fill:none;stroke:#000000;stroke-width:15;stroke-linecap:round;stroke-linejoin:round;stroke-miterlimit:10;stroke-dasharray:none;stroke-opacity:1"
             id="path4252" /></g><g
           id="g4254"
           transform="translate(330.9021,376.7224)"><path
             d="M 0,0 -146.46,-146.69"
             style="fill:none;stroke:#000000;stroke-width:15;stroke-linecap:round;stroke-linejoin:round;stroke-miterlimit:10;stroke-dasharray:none;stroke-opacity:1"
             id="path4256" /></g><g
           id="g4258"
           transform="translate(438.9197,303.38)"><path
             d="M 0,0 H -263.4"
             style="fill:none;stroke:#000000;stroke-width:15;stroke-linecap:round;stroke-linejoin:round;stroke-miterlimit:10;stroke-dasharray:none;stroke-opacity:1"
             id="path4260" /></g><g
           id="g4262"
           transform="translate(123.8602,303.38)"><path
             d="M 0,0 H -50.78"
             style="fill:none;stroke:#000000;stroke-width:15;stroke-linecap:round;stroke-linejoin:round;stroke-miterlimit:10;stroke-dasharray:none;stroke-opacity:1"
             id="path4264" /></g><g
           id="g4266"
           transform="translate(149.9419,335.8183)"><path
             d="M 0,0 C -9.113,0 -16.5,7.387 -16.5,16.5 -16.5,25.613 -9.113,33 0,33 9.113,33 16.5,25.613 16.5,16.5 16.5,7.387 9.113,0 0,0 Z M 0,66 C -27.295,66 -49.5,43.794 -49.5,16.5 -49.5,-23.678 0,-54 0,-54 0,-54 49.5,-22.314 49.5,16.5 49.5,43.794 27.294,66 0,66 Z"
             style="fill:none;stroke:#000000;stroke-width:15;stroke-linecap:round;stroke-linejoin:round;stroke-miterlimit:10;stroke-dasharray:none;stroke-opacity:1"
             id="path4268" /></g><g
           id="g4270"
           transform="translate(383.9034,402.9165)"><path
             d="M 0,0 V -65.598"
             style="fill:none;stroke:#000000;stroke-width:15;stroke-linecap:round;stroke-linejoin:round;stroke-miterlimit:10;stroke-dasharray:none;stroke-opacity:1"
             id="path4272" /></g><g
           id="g4274"
           transform="translate(344.0309,442.8035)"><path
             d="m 0,0 c 0,2.632 2.301,4.689 4.912,4.368 19.704,-2.421 34.96,-19.215 34.96,-39.573 v -7.746 H 31.22 C 13.978,-42.951 0,-28.973 0,-11.731 Z"
             style="fill:none;stroke:#000000;stroke-width:15;stroke-linecap:round;stroke-linejoin:round;stroke-miterlimit:10;stroke-dasharray:none;stroke-opacity:1"
             id="path4276" /></g><g
           id="g4278"
           transform="translate(423.7758,442.8035)"><path
             d="m 0,0 c 0,2.632 -2.301,4.689 -4.912,4.368 -19.704,-2.421 -34.96,-19.215 -34.96,-39.573 v -7.746 h 8.652 c 17.242,0 31.22,13.978 31.22,31.22 z"
             style="fill:none;stroke:#000000;stroke-width:15;stroke-linecap:round;stroke-linejoin:round;stroke-miterlimit:10;stroke-dasharray:none;stroke-opacity:1"
             id="path4280" /></g></g></g></g></svg>
