<svg width="74" height="48" viewBox="0 0 74 48" fill="none" xmlns="http://www.w3.org/2000/svg">
<g id="Icon">
<rect id="BASE" x="1" y="1" width="72" height="46" rx="23" stroke="#F5F5F5" stroke-width="2"/>
<path id="visa-logo" fill-rule="evenodd" clip-rule="evenodd" d="M23.5014 32.4571H18.8278L15.3231 18.8081C15.1567 18.1802 14.8035 17.6251 14.284 17.3635C12.9874 16.7061 11.5586 16.1829 10 15.919V15.3935H17.5289C18.568 15.3935 19.3473 16.1829 19.4772 17.0997L21.2956 26.9452L25.967 15.3935H30.5107L23.5014 32.4571ZM33.1053 32.4571H28.6914L32.326 15.3935H36.7398L33.1053 32.4571ZM42.4546 20.1207C42.5845 19.2016 43.3638 18.6761 44.2731 18.6761C45.7018 18.5442 47.2582 18.8081 48.557 19.4632L49.3364 15.7894C48.0375 15.2639 46.6087 15 45.3121 15C41.0282 15 37.9109 17.3636 37.9109 20.6439C37.9109 23.1394 40.1189 24.4497 41.6776 25.2391C43.3638 26.0262 44.0133 26.5517 43.8834 27.3388C43.8834 28.5194 42.5845 29.0449 41.2879 29.0449C39.7293 29.0449 38.1706 28.6513 36.7442 27.9939L35.9648 31.6701C37.5235 32.3252 39.2097 32.5891 40.7684 32.5891C45.5719 32.7188 48.557 30.3575 48.557 26.8133C48.557 22.35 42.4546 22.0884 42.4546 20.1207ZM63.9992 32.4571L60.4945 15.3935H56.7301C55.9508 15.3935 55.1714 15.919 54.9117 16.7061L48.4219 32.4571H52.9656L53.8726 29.9639H59.4554L59.975 32.4571H63.9992ZM57.3848 19.9887L58.6814 26.4197H55.0469L57.3848 19.9887Z" fill="#172B85"/>
</g>
</svg>
