<svg version="1.1" id="Layer_1" xmlns="http://www.w3.org/2000/svg" xmlns:xlink="http://www.w3.org/1999/xlink" x="0px" y="0px"
	 width="100%" viewBox="0 0 135 180" enable-background="new 0 0 135 180" xml:space="preserve">
<path fill="#807FFE" opacity="1.000000" stroke="none" 
	d="
M59.000000,1.000000 
	C65.021156,1.000000 71.042305,1.000000 77.744858,1.335921 
	C93.867455,3.817306 106.912567,10.593886 117.502129,22.023827 
	C121.205772,26.021399 121.120255,33.932262 117.494041,38.010746 
	C110.900154,45.427010 103.715630,45.172848 95.947754,38.753166 
	C91.009926,34.672352 85.095047,30.820301 79.006279,29.271118 
	C63.123753,25.230087 49.163761,29.191452 37.669647,41.671604 
	C27.274099,52.958950 23.382782,75.525894 32.596825,87.686028 
	C43.241707,101.734497 55.857502,114.289558 68.135162,128.074234 
	C81.155075,111.807663 99.052658,101.563950 107.674759,81.240555 
	C90.316101,81.240555 74.293060,81.240555 56.815887,81.240555 
	C58.412888,76.852921 59.120502,73.642059 60.666225,70.904411 
	C64.952759,63.312496 70.998566,57.011837 79.921265,56.206520 
	C92.461716,55.074692 105.146271,55.643333 117.733551,54.889526 
	C125.863708,54.402637 131.704834,57.365383 136.000000,64.000000 
	C136.000000,68.689255 136.000000,73.378510 135.666809,78.741257 
	C133.787582,90.958839 129.562195,101.739967 121.922455,110.212776 
	C108.032547,125.617256 93.275993,140.262878 78.480942,154.818451 
	C71.768341,161.422379 64.213234,160.686569 57.495201,153.982834 
	C45.247650,141.761383 32.793388,129.734589 20.899057,117.177872 
	C16.213793,112.231674 12.155847,106.421234 8.979115,100.389755 
	C5.599197,93.972504 3.601323,86.827332 1.000000,80.000000 
	C1.000000,72.979050 1.000000,65.958107 1.333198,58.261208 
	C6.408305,31.044815 22.247528,13.838947 46.871578,4.186691 
	C50.736855,2.671560 54.948505,2.040072 59.000000,1.000000 
z"/>
<path fill="#FFFFFF" opacity="1.000000" stroke="none" 
	d="
M1.000000,80.468658 
	C3.601323,86.827332 5.599197,93.972504 8.979115,100.389755 
	C12.155847,106.421234 16.213793,112.231674 20.899057,117.177872 
	C32.793388,129.734589 45.247650,141.761383 57.495201,153.982834 
	C64.213234,160.686569 71.768341,161.422379 78.480942,154.818451 
	C93.275993,140.262878 108.032547,125.617256 121.922455,110.212776 
	C129.562195,101.739967 133.787582,90.958839 135.666809,79.207367 
	C136.000000,112.902504 136.000000,146.805008 136.000000,181.000000 
	C119.313576,181.000000 102.625450,181.000000 85.696152,180.656952 
	C91.249367,179.503235 97.566185,180.232162 102.147736,175.098770 
	C92.540749,166.517166 44.405300,166.764618 37.652176,175.849731 
	C40.094681,176.944229 42.285069,178.200455 44.639992,178.912552 
	C47.691387,179.835251 50.873920,180.324280 54.000000,181.000000 
	C36.383659,181.000000 18.767323,181.000000 1.000000,181.000000 
	C1.000000,147.645920 1.000000,114.291618 1.000000,80.468658 
z"/>
<path fill="#FFFFFF" opacity="1.000000" stroke="none" 
	d="
M136.000000,63.531342 
	C131.704834,57.365383 125.863708,54.402637 117.733551,54.889526 
	C105.146271,55.643333 92.461716,55.074692 79.921265,56.206520 
	C70.998566,57.011837 64.952759,63.312496 60.666225,70.904411 
	C59.120502,73.642059 58.412888,76.852921 56.815887,81.240555 
	C74.293060,81.240555 90.316101,81.240555 107.674759,81.240555 
	C99.052658,101.563950 81.155075,111.807663 68.135162,128.074234 
	C55.857502,114.289558 43.241707,101.734497 32.596825,87.686028 
	C23.382782,75.525894 27.274099,52.958950 37.669647,41.671604 
	C49.163761,29.191452 63.123753,25.230087 79.006279,29.271118 
	C85.095047,30.820301 91.009926,34.672352 95.947754,38.753166 
	C103.715630,45.172848 110.900154,45.427010 117.494041,38.010746 
	C121.120255,33.932262 121.205772,26.021399 117.502129,22.023827 
	C106.912567,10.593886 93.867455,3.817306 78.213120,1.335921 
	C97.263168,1.000000 116.526337,1.000000 136.000000,1.000000 
	C136.000000,21.687086 136.000000,42.374886 136.000000,63.531342 
z"/>
<path fill="#FFFFFF" opacity="1.000000" stroke="none" 
	d="
M58.531342,1.000000 
	C54.948505,2.040072 50.736855,2.671560 46.871578,4.186691 
	C22.247528,13.838947 6.408305,31.044815 1.333198,57.792633 
	C1.000000,39.072567 1.000000,20.145136 1.000000,1.000000 
	C20.020340,1.000000 39.041512,1.000000 58.531342,1.000000 
z"/>
<path fill="#807FFE" opacity="1.000000" stroke="none" 
	d="
M54.468658,181.000000 
	C50.873920,180.324280 47.691387,179.835251 44.639992,178.912552 
	C42.285069,178.200455 40.094681,176.944229 37.652176,175.849731 
	C44.405300,166.764618 92.540749,166.517166 102.147736,175.098770 
	C97.566185,180.232162 91.249367,179.503235 85.227493,180.656952 
	C74.979103,181.000000 64.958214,181.000000 54.468658,181.000000 
z"/>
</svg>